<mxfile host="app.diagrams.net" agent="Mozilla/5.0 (Windows NT 10.0; Win64; x64) AppleWebKit/537.36 (KHTML, like Gecko) Chrome/135.0.0.0 Safari/537.36" version="27.0.9">
  <diagram name="Trang-1" id="LsncL1yzaDjC49BOBIUc">
    <mxGraphModel dx="1824" dy="535" grid="1" gridSize="10" guides="1" tooltips="1" connect="1" arrows="1" fold="1" page="1" pageScale="1" pageWidth="827" pageHeight="1169" math="0" shadow="0">
      <root>
        <mxCell id="0" />
        <mxCell id="1" parent="0" />
        <mxCell id="2hYeIwUKahBhDZ7bIVge-3" value="" style="rounded=0;whiteSpace=wrap;html=1;fillColor=none;dashed=1;dashPattern=12 12;labelPosition=center;verticalLabelPosition=top;align=center;verticalAlign=bottom;" parent="1" vertex="1">
          <mxGeometry x="-751" y="60" width="611" height="460" as="geometry" />
        </mxCell>
        <mxCell id="RAkV_QfOQvglam8f1-1x-3" style="edgeStyle=orthogonalEdgeStyle;rounded=0;orthogonalLoop=1;jettySize=auto;html=1;" parent="1" source="RAkV_QfOQvglam8f1-1x-1" target="RAkV_QfOQvglam8f1-1x-2" edge="1">
          <mxGeometry relative="1" as="geometry" />
        </mxCell>
        <mxCell id="RAkV_QfOQvglam8f1-1x-1" value="" style="shape=image;verticalLabelPosition=bottom;labelBackgroundColor=default;verticalAlign=top;aspect=fixed;imageAspect=0;image=data:image/png,iVBORw0KGgoAAAANSUhEUgAABAAAAAEzCAIAAAAgqeZwAAAABGdBTUEAALGPC/xhBQAAACBjSFJNAAB6JgAAgIQAAPoAAACA6AAAdTAAAOpgAAA6mAAAF3CculE8AAAABmJLR0QA/wD/AP+gvaeTAAAACXBIWXMAAFxGAABcRgEUlENBAAAAB3RJTUUH4AEWAyo5oKpqqAAAgABJREFUeNrs/VmQZNl53wme5e7Xr+/hsee+FWoDCgtBYiVAkaLUIqWGRjJTj43GhtY2L2PSw7Se5knvetI8TI/12JhMNtaa0dLdlCiSAEQRJAGCIJZCAbXnFhn74utdz37m4Xh4ekZmVmVVZVYudX5Aebjf8Lh+/ab7/c63/T+otQYWi8VisVgsFovlkwF63AdgsVgsFovFYrFYPj6sA2CxWCwWi8VisXyCsA6AxWKxWCwWi8XyCcI6ABaLxWKxWCwWyycI6wBYLBaLxWKxWCyfIKwDYLFYLBaLxWKxfIKwDoDFYrFYLBaLxfIJwjoAFovFYrFYLBbLJwjrAFgsFovFYrFYLJ8gnMd9AJZnFqWU1tqMmkYIQQghhB9uV2YnZocf5ZBmx4DQHa6v1lopNXuh997DifvztxaLxWKxWCxPPvAjrqgsFovFYrFYLBbLU4TNAFgePlJKIcRbb711dHRk7n/qU5+K47jb7WKMP8QO0zQlhLz55ptlWX4Ul9V13eXl5Xq9vry87HkeAEAppZQaDofvvPMOpZQQcr9YvkliOI6DMXYcByFUr9c9z2s2m57nxXGMMf5w785isVgsFovl48Q6AJaHD2MsTdN/+S//5Xe/+908z/M8/xf/4l+cP3/+13/91+M4/kC70lpDCDc2NnZ2dv7ZP/tnGxsbUkpTrvOBMMv6ZrP59//+33/xxRe/9a1vdbtdAADnnFL605/+9J//83++t7e3t7d3PwfA933Xdev1uu/7jUbD9/0XX3yx0+l87nOfW1hYuHjxYhzHYRg+7nNvsVgsFovF8j5YB8Dy8IEQYow7nc7q6mpZlkVR1Ov1KIo+dKG853lhGC4vL5vV/4d2AOr1eqfTSZJkFqqHECKEgiBYWlpCCLmue/dBQgi11kEQOI5Tq9WCIEiSxPO8paWlVqvVarUajUYQBK7rPu4Tb7FYLBaLxfL+WAfA8vDRWksp+/3+9vZ2nudFUUwmk49SvcMYq6pqd3d3c3NTSimlBA/QsDuPWcS3Wq1+v28cidmhKqWqqto7BkJ4PwdDa20KgTDGEMLvfOc7QRB0u92VlZUvfelL586d+9a3voUxtp6AxWKxWCyWJxnrAFgePmZpLoTgnHPOhRAfLmw/w/y52ZtZu8dxjBBynA/2Aa7X60EQeJ53IsyvtRbHOI4TBMHd63h1jPEZtNaTySTLsjzPCSGLi4sIodFoFARBs9kEVhfIYrFYLBbLk4p1ACyPCnjMQ9yV4zhRFHU6nX/8j/9xt9tdX19XSj34S7iuu7KyUq/XkyS5+yVMXdCVK1e++c1vnjp16sKFC/NPMKt/Silj7ODgoCzLP/iDP0jTdGdnZ3d394//+I/feOMNjPGlS5d+53d+RyllmowtFovFYrFYnjSsA2B5yjAl++vr68vLyxcuXPhADgBCyJTvv4dcTxRFKysrZ86cee655+a3zxwAznmn06mq6saNG4PBgFJaFEWapgcHB2+//bbneaPRyHXde7YTWCwWi8VisTx2rANgeZowcXrP8xYWFpaWltbW1j5oJ4Ap3z8xCGz2WwBAEATtdntxcXF9fR3c1Wlgin8uXryolHrhhRf29/d///d//8aNGz/4wQ/SNP3Od74zGo0uX768srLy0ksvWVVQi8VisVgsTyDWAbA8NRhJ0JluTxiGQRA89FdBCPm+7/v+++48SZJarXbx4kUp5c9//vPJZHJ4eLi/v7+5uRmGoUlN3NPTsFgsFovFYnmM2NWJ5anBKPmAY+ke01WstX7o06zn9zl/5wQY4263+61vfet3f/d3X3jhhdXVVaXU3t7ed77zHTOzTAjxuM+ZxWKxWCwWy0msA2B5WplV2D/SUvv5VzmBmRuQJEm73V5ZWen1elprQsje3t5kMmGMWQfAYrFYLBbLE4h1ACyWDw/GOI7j9fX1v/k3/+ZXv/pVAMBkMvnRj350/fr1NE0ppY/7AC0Wi8VisVhOYh0Ay9PKrFBHPxiP7khc1+12u51Ox4wJgxBWVTUcDsuyfNwnyWKxWCwWi+UktgnY8jRhCnKMmI/jOI9dZ9McQBiGzz33XFmWZsSY1no0Gt26dSsIgtXVVdO7/LjPnMVisVgsFssU6wBYnia01lLKqqo2NjYIIVLKB58D4Hme53m9Xs/3/Yd7VBBCz/OCIAiCQClVVRXnPM9zWwJksVgsFovlCcQ6AJanCaUU53wymfzwhz9sNptvvPHGg9f2tFqtVqv1ta99zXTrPsSoPELIcRzXdWu1GmMsTVPG2Gg0siVAFovFYrFYnkCsA2B5mtBaCyGqqrp27VoURdvb2w/oAEAIl5eXFxcXv/CFL4DjkQIP8cCMKFAYhuZ4hBCEEM754z5hFovFYrFYLCexDoDlaUIpxRirqurP/uzPPujfLi0tXb58+bd+67dOnz790HuCjSRos9k0fgVjbDweV1X1uE+YxWKxWCwWy0msA2B5mkAIeZ7nuu65c+d834+i6MEzAGtra6urq/V6HTyC0QFGaIhzLqUEx0VBGOPHfcIsFovFYrFYTmIdAMvThNH/ieP4ypUrSZJ0Op0HL+YxSp1RFD2iYzM+gJlPbCqCHvfZslgsFovFYrkH1gGwPE1ACM3w3c985jO9Xu/06dMPrgIURVEYhrVaDTyaDICUsigKxhgAwHGcKIoeutyQxWKxWCwWy0fHOgCWpwYT7DcOwCuvvHLq1KkrV658uHbeh+sAzGL/VVUZBwBjHIah67qP+5xZLBaLxWKxnMQ6AJanhvlVu1lwm9sHX82bMb0P/cCEEMPhsN/vTyYT05NQq9XW19ebzebjPmcWi8VisVgsJ7EOgOWpBCGEEDItAY/xMEz+QWtNCKmqKs9zU/ofBMHi4uIjaji2WCwWi8Vi+ShYB8DyVDIT/3noiv4fgjzPf/zjH//yl7+EEAZB4DhOr9fr9Xqm38BisVgsFovlicI6ABbLh8f4IYSQra2tvb09rbXjOHEcJ0mSJEkQBI/7AC0Wi8VisVhOYh0Ai+XDwzkfjUbXrl378Y9/vLGxAQBoNBpf+MIXzp07F4ah49jvl8VisVgslicOu0CxfNw8CUU7H/0tAACEEGVZ7u/vb29vb25uHhwcQAhrtdr58+cXFhY8z7ODwCwWi8VisTyBWAfA8vFh5DLBXAX/e/C+TsIH2tuD73m+u+B+zyGESCnfeOONg4ODP/3TP93Y2Nja2hJCrKysXL58+etf//ry8rJ1ACwWi8VisTyZWAfA8vFhVDgfYgbg4e5tts8Td05gZn5xzg8ODra3t3/xi1/s7u5OJhPP85aWljqdzpkzZ2q1Gsb4aU90WCwWi8VieSaxDoDl0WLi6H/+53/+5ptvvvXWW+87HFdrbUZoffGLXzx//jzG2HXdWTBeKUUIOTo6+l/+l/+l1WotLS09ePjfdOh2Op1Go/HZz3620WiEYTj/BKUUAGB7e/vb3/72z3/+8x/84AcnfmtenTE2Go0opT/96U/zPN/d3VVK+b5/5syZf/JP/sn6+vrp06ft0t9isVgsFssTi3UALA8fs/w18X6j1j8YDIQQZjX/3otjpVStVvN9/1Of+pSUcrar2Q6VUoyxvb29LMvyPH/wo9Jau65bVVVVVYSQeY1OOAch5PDwkHPOOZ//cynlzAEYj8eMsd3dXcYY59z3/W63u7Kycu7cuW63G4bhBxpPZrFYLBaLxfJxYh0Ay8PHVOcLITjnjDGt9V//9V8jhIwqznusjCGEUspOp5MkyYULFy5dumSC9GbirxCCUqqUKoriO9/5DkLowYvsjecQBMFzzz135syZT3/607VabeYDKKVmh7qzs3N0dIQxvnvn834IhNBxnCRJLl26dPr06d/+7d8+derUF77wBcdxHvt4MovFYrFYLJb3wDoAloePWQGbEp1arVaWpZmP+yBBcSllFEVGQ3P2fMdxgiDo9Xqm+1ZK+eA7nGEcgDAMfd83eQlwvJoPgmBhYUEppbW+355ni36Tx0AItdvtWq12+vTp9fX18+fPLy4uRlH0uM+9xWKxWCwWy/tgHQDLwwdj7Pv+pz/9acdxCCGUUoTQA3brKqXMCK319XXP80zSoF6vSym//vWv9/t9U4sPPuDqHxyXAK2trXW73Uaj4XkeAMDkJXq93pe//OXxeDwej+eLjk68KYRQHMee59VqNdd1L168WKvVzp07F0VRvV5/3/yGxWKxWCwWy5OAdQAsDx+zql5bWxNCmCr5B18WK6WiKHJdt9VqmTU3ACAIAlNss7i4aOL0H+KoTBOwWf1HUTRbr2OMTcVRnud5nt/zULXWpigoDEPP8+I4dl337NmztVptbW3Ndd3HfcotFovFYrFYHhT44dZSFst7Y3oATKj+Q2DW5bNCnVlTwUf/uJpKHqPROVvrmwYD8AEHFBjnZFYyZGP/FovFYrFYngqsA2CxWCwWi8VisXyCQI/7ACwWi8VisVgsFsvHh3UALBaLxWKxWCyWTxDWAbBYLBaLxWKxWD5BWAfAYrFYLBaLxWL5BGEdAIvFYrFYLBaL5RPEvecAzKSBZsObrMShxWKxWD5RzM8ctEbQYrE8S1gZUIvFYrFYLBaL5RPEPTIAjLG9vT3HcSilQggzNjUIAjvu1GKxWCzPPFprKSUh5Nq1a2EY1ut1M4wcIWQG/1ksFsvTzh0OgCn4YYzt7Oz4vp/nOaV0bW0NQuh53uM+VIvFYrFYHjnGASjL8o033mi1Wmtra81ms1arPe7jslgslofGPTIA6WTy3e98p9lsbmxsHB4dtVqtOI47nU4URYuLi1EU9Xq9OI5brZbv+47jYIwdx0EIYYwhhLZQ0mKxWCxPL1LK/b3dra2tf/fv/l0cx/V6PY7jZrNZr9e73W69Xm8e4/u+7/sYY4SQsYMIIWsELRbLk889MgBZnn//+99fXlp69bXXbt26FQSB4zi9Xi+Koueff77dbj/33HPdbvfUqVO1Wi0MQ8dxwjA0q3977bNYLBbLU42Usn90tHHz5re//W2zvg+CwAS/zpw5s7Kysr6+fvr06bW1tSRJarWa67qO4xhbaWuELBbLU8E9MgBKiGLUzwNX0goBzRnljB0c7GPspGnq+/5PfvKTIAharVYYht1uN4qilZWVMAzb7XYYhsYrSJIkCALjHpjmgVlywHoIFovFYnliUVKOjg7T4SAKPAShELwqFWOUkGo4HL799ttxHNdqtVqt1mw2TYY8juOlpaVardZoNHzfT5LE87xms2kCZLPMgDWCFovlCeGeTcB089ZNKdje/v4kK6ZbJxMAwM7OzvwzXdc9e/Zsq9V6/vnnW63W6dOnG41Gr9cz10SMcRzH9kpnsVgslqcDrQGESsmj/b3Dvb3RJHtvoTzjCZw/d67d6Vy5cmWh211eWUmSRGsdx3G32w2CwPf9x/2uLBaL5SR3yICaEqCjnc3/9X/8F0mzvbe3nY6Hg0kxycvdwXhSVLuHw5KygjApFcYIIhT4gePgMAxd1/WDIAyCWq2WJInJDMxqJZeWllqt1srKSpIk7XY7CILH/cYtFovFYrkHnJGbb7w2ONj9yz/89xXlg0k+ycuD4XiUl3v9UV7RSV5pALQGrutg7ASBbyL9ruvGcez5fqfdDoKg1+uZ3Hi9Xl9eXm40Gqurq/V6vdfrOY7jOM5HP1SLxWL5cNxxATKx+ijwP3P5fBDXV+punrX2++P+OAs892icVRXFCAohGdBaKyVkRul8eAQhGIZhHMftdieKolqt1u12O53OmTNnFhcXAQDdbtfzPK31fLPU3VnR+923WCwWi+WRghDqtJsB4F947lxB+dEoOxqnSeTvDyeMcQQRoUIqKaTkjDFNiyKf+1voYKfZavm+bwJh7Xa73W6Px+Nup4MQopSGYeh5XhiGM9v33kYQWDtosVgeNncOAtMaQCiy4fhn30ZBzLOhJiXlnHJZEsq4KAhlXByN06wkWweDSVFt7g+KimwfDYRUhAqpFZdKayAVQBghhH3fc10vikLf96Mo8jyv0WjUarXV1dVGo3H69OkkSc6dO+f7fq1WcxzH933Xdc2V0V7yLBaLxfIxo6Vgo32Zj4o3fyC1ZlxwLkrKKBclYSWlFWEHw/HRONsfjodpsXM0mhRVVlSMcy6VVFoorQEAEGGEXNdzXceYv1qt5nleEASdTmdhYaHX63W73eXl5W632263TeeAsYOm8/hxnwmLxfLMcmcKEgIAAMaoVa8DL4RIwMjVGiitlVZaa6W0kKo/TidF1WvVh2mRhEFaVI6DGBNZRSgTBSGU8bQkkmshZZFDrYHxLUzIv1arRVF05syZVqs1Ho+bzaZSKgiCZrMZBEEcx6Z3CiHkeZ5RFpq1T1mv4BlDa621Vko97gP5YJjPoZX7sFieSSAEvu9q6QeNBEKgNdBaK62V1kBrwgXjfOdotD8cbx0Mj8ZpEoWDNB9O8qKiJaFUiLyouJBFVZo/nO0YQGgU8xYWFhZ7veWVlaWlpeFwuLi4uLS0ZMZumnCY67pJkhiB0RN2ENiEgMVi+cjcmQEAGgCoy7F4+y+gF4FyDFhpturpKl5rDbgQQqqKMiElYZxxOcnLgtD+OMtK0p9kk7zcG4yKik7yKqtIVlTjvMorwoWUShmhNKOYZoomjWRQp9Op1WoLCwv1en11ddWMGkiSpNFoNBqNZrMZhqGJiNhr37OBUopzTghJ0/RxH8sHAEIYRZHjOEmS2I+ixfIMooTOB7qcqKs/AgiC4yCW+Z/SSilNuWBCUCa4EBXjXMjDwSSvyNEkKyq6PxyXhO0cjQhlo7yoCB+mOWF8UlTmouG6rneM7/ue55mRO91uN0kSM2xnfX09DMNWqxVFkRnF0+l0EEJGWM9isVg+CvduQoLTdgAwjTXMbgAAEPiuAyBs1WsAAoAQUIozkVdkfziZ5NXRaDKY5EkUTPKyn+aDSe45WGklpNBKKaUFZ0rrsiznX9F1nE63W68ni4tLrVYrTVPTKdVqtaqq4pxDCJVSs8jrfDbANgw8pWithRBlWY5GI9OA/riP6IEwx2my+U/LMVsslg+DsYV32kAHYgBAGPgQAgAhOL4I9IeTvKT7g0lWVe2jOC+J7zoFoeHQTYtKCIERLCuiAZBSEVKdMIK+74dBsLi0VK/XV1ZWarVaVVVxHC8uLtbrda31bPCOuVqai4/JQ1ojaLFYPij3zgDIt78PvBCUY8jL497gO54EpgGR6R2lgdZaKqW0VkpJqYRSFWEV5QUhZUUnRUUY2zkap3l5Y/ewP8lu7h6N8qI/yRkXAGgAEUYYITgbqeh7npm9UqvVarUkisJOp1Ov18+cOWOmsXQ6nbW1NdM58LhPo+WDYQxYmqabm5t/9Vd/9e///b8XQoDjRNMTC4RQa+267m/8xm+srKx861vfsgJ/FsszyCwDcO1H91tP65kRBNMrl1RKKyC10koLpZRWRUU5l1lJCGOToioqOphk/Um+2x/t9kdbB4OjUXowSoWQQkqIEIIIY4Qgwg6GEIVh4LpurZYEgd9oNMMwaLfbjUZjeXl5aWnp7NmzvV5vfX09iqIwDB/3KbNYLE8ZH2bpPMsFzO4gEwcBDoAAAqgBAEAzJigXFWOE8rwijIvQ89OyghA2aiGCcJgVcehTygnnSmkupFJKCCGFZlVJHacsnDzz08kkjELP8yeTSS2OhRCTyUQIMRqNKKVJksRx7DgOxhhjbOqLMMYAgBOdAzZG8qShlKKUjkajjY0NIcT86v+J+gc6IZXreV6/34+i6Al3VywWy6Pjdlbg+KeDMZiaQggg0BokUSCEahBGOW9XtCSsVY+aSRwFXuR7noOTMIgCn1BWMS6FlEoJKaVUgnGlNacVwrgqC8d1zRTO0XBYbzSKosjzXEqZpiml1MwjM4GzmQW8nx2cO/4n6BprsVg+fh5a7HxWH2mSAgAAjHGIUei7OpkGS66cXjEdUaafWGqd5mVJ6C+vb4+z4sbu0TDNNw/6RUX744wJUVBaUdrPc6m1kgphBCHEf/7nCE4TBUYw4bnnnms2m+fPn+90OmfPnjUtBJ7nmdYCo71gLoWWJwopJSFkNBptbm4aB2DG4z60e2DsqNba9/3BYNBsNp/M47RYLI8Fre/MjAOAIPJc5DlYg1A3p310SgOllVZAacW51Frv9sejvHjn1t7+cLx10B+mxeEoLQgdZSXjoqhIRar+YGgSpwgiky43RhAAYJrlzp8/v7q6ur6+vrCwsLq62mq1Wq2W6Sc29YpWtMBisczzCItnjgMhc2EGPN1ufq+1dhGMA+/UYqeVRK7rpHnVqcdZRQ5HGWEsLauyYllZEcYp55xLISUTQgjFGFVKOxgjjPd2d/Ms01ofHR1lWVar1Y6OjnzfN33DSZKEYWgqhVzXdV3XOWY+ImLDIY8FPa0Zk8YBcBzHOHVPlMOmlNJaV1UlpTR9C0qpp065yGKxfJzAmVm5y7jMkudSSgAglyoMXMZFPQ7qcTjJy6NxWhJ2OMoo45OipIylBeFSUiaklEwIKUVFqT4WUiOE+L5PKS2K4uDgoN/vJ0mysLAQBEG9Xg/DsNFomMkDGGMTEfM8zyQNbh+VNYIWyyeJx1A9r0zYVGsAdOB7vue9dPGUUloqJZUSXBaE7g/HeUUHaT7JymGa9yfZYJIfjtJxWhyMJuO8zCqilBRSAimv37yJEHrz7bcRhI7jeL7f7XTiOF5YWEiSpNPpNJvNTqfTbreN9HKr1ep2u/V63WopPAnMd3LX63UzNTNJkicnvk4IkVJev359MpmcOGyLxWL5oOipAZwqH3QacaserXRbUikpldR6khWUi63DQUnY0TgrSrI/HGcl2TwY5mW1P5ykRdkfZ1JqAECeF2VZjcdjUwWLEQrDEGNnfX0tiqJut1ur1Xq9nhm/E8fx0tKSmUwcx7E1ghbLJ5bH4ADA2z+mAXjHwSZYooHWGiSMua5TEdpM4rys0rwcpMUoy49G2TgrD0aTSV6O86qijHLOpSwJlUJRRrlSldIIY8FZEARFkUdR3O/3G/V6o9lst9tm6d9qtUw/sakOMroKZvCK67pGbhkcl3yAuaWeXfM9CsxC31TXhGHY7XYXFhY6nc4TEmKHEGZZxjnf2dmZdwAsFovlQwPn/nMxBhBCF8ya6CLP40JihAjj7aRWENpp1LKKNJM4K8nicJIW5dEoI4wTxpkQjAvCOOOCMqq0JlUJIIRQB0GYppMwjAaDQRxFw+EwjqKDg4N6vX5wcBDHcbPZdF3X6JCa7KvrumZSwUxfyDYPWCzPJE+Efo7SpnlguuBzHWexXQcAAA2U1gBoxgWXqqKMcVEQRhjrj9OsIFe390dZ8bN3b03ycvtgUFHOhJBSj8cTDca7e3sAAAAgxhgjHARBEPhBGIZBEEVREARGau3ll1/udDrnz59vtVpLS0tBEJjaSlsx+XFibMzCwsLzzz9/8eLFs2fPCiEeu6XRWmOMDw4OCCE3b948Ojp6QtwSi8XyzGCaA9RcB53nOZ7rnFvtmcY6rbWQUkhVEMq5IJSVjGUlORyme0fjzcPB9uHgxt7R7tEor2hFmVRaa7m9s3u8P4AQQhhFYTSbSWwU9hqNhpESOn369OnTp5eXl3u9nrGPM8Xtx316LBbLI+GJcADmYyFglhsAAECotYYAIIRcpRyMhJC+53Lhew4uawxCmFWVg3FWkoPlhZLQvKKMi6youJQlZVJKzqXSWiqNgBKMVkoySgipXNdVSoZh5DhOvV4/OjoyRZNhGJrqIDOkzNyaoMi80JDNDzwKzIwbMxnnCVF3RQj5vq+Uultv22KxWB4W8KQRnF1toNYaI+Q6CkIoPRX6bsT9KPA9x418rxYF3WbSazeORmlWkoLQilImZFZUXEjCuJRKSKkBgEApwauyYJRSSkhVlWVBqqqqqslkcnh42O12m83mrHFu3g7OMuTGApomulmYzM4ntlieOu69xtJAP/bv8byeAkbIQch33dttVQgCCAFCAELgYKA14IIRurnfH6T5q+/eGmflxl4/LYv+OEuLapSVaV6N84IwPnuJa9euAwC+973vzb8uQuiFF14wskLtdvvMmTOtVmtxcdFIrdXrdTOt3V7pHgVGus6kpJ+cDIDruk/CwVgslk8UsykDAACEIAI4iZz5ANltO3i8EKdplhXk6s7+MC1eu7Y5yoqdw2FWkH6alYQdDieEsf7kfSavh2EYx/Hzzz/f7XbNyJ1Tp07V63UTIDMzidvt9uM+PRaL5SNxbwcAAQggnK6+n4xlzzRJCkwTsQZyusUcpNKaC0k5BxBEvnd2eaFqs8V2oyAkzcusIpOc5CXJyiovSUFoQRljvKSMCVGUlCsppYYQep7rui6l1MyoOjo6Ojw8rNVqZki7aU6t1+u1Ws0MZTRioyadavSF5uVr7JLxw/HkiIHODuNJOBiLxfIJx1yPtDGCx/9NK2iVVkqVhBEhosAHAD53ZrUk7MziQkXZMMsrxgbjnDA+zkvCeF4SynlJOWW8pEwIyYQ0IwPiOPZ9P01TIQSlNI7jra0ts/QPgqDdbodh2G63gyCo1Wq+70dRZG5N/na+cMgaQYvlieUeDgB8gr+08OR/0+PEALgOjgKvmcRA6+fOrJq5BITxsqJZScZ5mZZVVlT9ST7Oit3+aJAWO4eDSVFe3z4gTHIhAQCMMQDAaDSevhyEAABzmTMZgEaj0Wg02u12s9lcWlpqNpvnzp1rNpvLy8tJkvi+/8SeuqcIew4tFsvjRANjCR/3cdwbeJchBABgBADAvucCAJbaTfMelNaMC8rFKM0ryg9HqXEGxlm5ezQapPlOfzQY59uHg1RWnE/T44RSAMDOzo55NYSg7/uu6xpd0U6nE8dxt9ttNBorKyvNZnN1dbXT6ayurtbr9SAIbPucxfJU8F5l1k9M9P8DcHtCMQQAQM9xQAAwRr7nNGohYbzXqpeUnV7u5iUdpnlJ6P5gXDE2zitKWVYSysVgknEhi4oqpYTSCGMpeFnkgvMsywaDwcHBQRiGzWYziqK3337baClEUVSv1838gVlmwAxhmW8snt2ZSSvY9a7FYrFYHhYzGwghdB0HQtSoxZEvPNfhQi626wWh671OVpFRWmRlNcqKtKgmeVUQUlGWl6RifJKXlHEmhFIaQgSBLrKUVCWl1HXdfr8fhuHm5mYcx+12e5YnN8Gy2fwB009s2o5nU4ohhKaFwCbMLZbHyBPRZ/nocB3sOjgOffMQTgWYFZdKKi2EkEpTxgjju/3xOC9vbB8M0+LVdzeykuwcDRkXJeVcSFpWucyZEHecO8eZDVUx6mlm9NinPvWpRqNx7ty5Vqt1+vTper3e6/WM0qhpbJ0NabdYLBaL5VFgyhYdjByMAs8BACyCBgAAQqiUElJJpYSQUimpdFpUeUW2Dwf7w8nG3tHhKHt3c2c4KdKyokxQzrkUw+HQPHn2EhhjhLHnuRhhY+M8z1tcXGy1WhcuXOj1emtra51OZ21tzfgDruuacJhxBuyi32J5jDzjDsAJjq9bEEEEkIaO42iNIHAdZ7kLWklcj8KKstNL3YrxUZpXlI2LqiQ0zcuCsLQoCRcVoYxLJoSQSkgtlJRScKWkFJMxKIrirbfeCoJgc3MzDMNWq2VyBUZcyEgrxHEcx3EQBGYKgRG9MZ2vZkTxvOCMzRJYLBaL5WFhOpoQggAg4ACskNI6iQPfdRyMus1kpdsqKvryhfWS0HFeVoSN87JifJzmlItJUXEhS0K5VIwLqTSTEmgtOAdac84PDw+zLMvzvFarmXk7MztoMuS+7zcaDd/3kySZCQ0FQWBaCMwtONaGBtYIWiyPhk+WA2CAELoYgttdSj4EcKHdOJYVAgA7QEnARZZXe/1xP81uHRwNxvn24XCUFkeTdDAuxlk+zPKS0ElezfY8AmMAwObm5t2v2Gw219bWWq3W8vLywsJCr9drtVpGg9k0Fcwyp4/79FgsFovlWQZCiCF0MDBrAAhAHYYAgjXUPZYVgkBroHU2ybOSbOwejfPixvZBWlZbh8OsqPb646ysjsZZXtHxJJvfeb/fv+eLdrvdOI5NVvzUqVONRmN5eXk2pXhhYcHIj9ouAovl4+GT6ACAOY1RMFUV0kDqE7JCQkohZS3yXRfXo4AwXl1gRUXziho1oawkhPFhmleMTbKypNzIjB6NMipEVlRKa6U0QsjEM4bDYZ7n/X4/CIIgCMIwNOGQOI6TJDFFk77vm0Yro7TQarWCIGg0Gq7rRlEEbBTEYrFYLA8DfVtJaKosZPT1bssKaS2EdBBa7jQ7jdpiq86EzEtSUTbKioqySVFVlE3yqiR0UpR5SfKKpkVVEDbOioJQIaVU2rS9KaWqqtra2nJdd3tnx/c80xvQaDRmeXITCDNtdUmSJEkySyOYhjrTQvC4z5zF8izwCXUA5rlDUeikrBBsJhEEJl2gAYSMccpFUZGSsKKilIlhmhWE7hyNRlmxdTiY5JWQMitJmhdSKikVuC0uNDrx0hjjRr0ehKGRXavVar7nnTp9OkmSs2fPNhqNM2fONBoNx3GiKIrj+HGfKovFYrE8g8xpZ4A5WSEQeC4EoNeqG31AoIFSijGRlhVhPCsrwnhR0VGWH42zw2F6MJzsDcZHo0wIUVFm2gzMSxBC7n5dhGAcT5uGTbtwkiRxHK+trS0uLi4tLS0sLKysrHQ6HVMdZFf/FsvDwjoA74VRgT8OiGgzkRFBGPqe6zhx4EulOo2aUPLsSo9xkVeUCTHJC8ZFWpKKsnFa5BUdTPKCkEGal4SnRcm4YEIoDZTSGgBGCWcMQDgYDDDGB4eHruu++urPfX8qIhTHseu6pkAoSRITC4miyOgOmS1BEJj+ASPDbEY2mgHGRm/BXjctFovF8oG4YxKKnmYGANS+57oODjxHSs2lXO42KeUV4xVlJWHGN6gYz4qqJGwwyQpC++Osoqw/yRnneUmFlFwprbQCUEsxGY/T6SBIz3WdjY2NMAxNRZAJkJlWgZnU3ixnbu43m835DuMZs4e259hiOYF1AN6f+aCIg7GDMQTuXAsBAMBMY5kKp2qtldJMiLwke/3xMCs29g6HaXFrvz/Kyv3BpKK0oJRQzjjPK0opp4xJodT9x01hjAPfT+r1hYUF0znQbDbNiOL54e2mq9hcBx3HCcPQKDPM6w6duAjaa6LFYrFY3ptZhgBjiAHyHOe2Ebz9LK2N2J6GUiul9Tgt85Js7B+N8uLmzuEkr27sHhYV7U8ywnhFGBOiqAgToqioVEpIdb8DMAra7XY7juOVlZUkSRYXF02uoFarrayshGFo1LeNGNGsq9g8nB/TOW/1rAW0fGKxDsCHYb6FwPyci48ADbTWGkIYBt5yt9lp1pa7TcZFURHCREFoUZK8IllFSkoHk6IoSVZWFeV5RSjn47ykTGQFYUJWjEklgQYAQqV1WRb7+3I4GOzu7riuZ65x/jFxHJt6ymk1ke+b2WRGaaFWq5nbmfSQ6UOIouhu98DOcbRYLBbL/bjDCM7NStdAA60BgEprrXXou66DXQ8zLi6sLnIhiopSLsZ5WVE2zgtC+SgtyuOmgqKiJWVlxXJCiopWjFEupJBKawgRAKAqS8YYJcRx3Rs3rjuOG4Wh47qz+FcQBLU4DqOoVquZHEIURaa7wKQRTFLd8zwzurhWqzmOYzqP7yc6ZO2g5ZnEOgAPB3hHBwEEALgOhMCtxyEAECAIIAQIAqmB1lleTPJimJaTstrrj0dZMZxkaUGOxmleESEVAGSYSsJoWdH5V6kqAEB2v2PwgyAMgm63a2TXoihqt9vm1oxvjKJo9lsI4cwNeNwnz2KxWCxPMXDe+JlEAYAAAN91AITtRm1qAQEAGAGh8rwsCT0cTfKK7vfHaVntDydZUQ3TfJgWg0kulSwrQigr7jSCZkrx3Q11BoRQHMeNRqNer5tcQa1WazabZk7ZzCYaO2hSCt4xj/sUWiwfN9YBeFSY0kktFDjWWdBAaw201gihRi2Ow3BFqQuri1IpJqQUsiSMSzHJSypEURLGRVaSirJBmpvSybKigzTPKzrJy6KiaVmZeS5m5iOCgDN2eHAAEdra3kJwOnXYpD5NOVAUx96x4vJMjMjMJWg0GnEcGy02c63sdDrmt6aLANxnNIGNjlgsFotlHpMR0Fof6wvdzhporREEUeCt9tpK6bPLC1IpLiQXgnJRUVYSbmYSE8oI45O8LCkbTPKSsEGaVYQfTbKSsFGaG00Os08IIYRISTkej7I03dvbQwhBhJzjhT7GOIoix3Wj4+CXkddzXde00hlRPqPKvbCwEMdxvV43jXazPPk9zZ81gpanEesAPFrgHbIK02uEBx0zpH2qqwCgaTdmXEgpC8KElIQyxkVBaEno/nBSVHR3ME6LqjYYT/LSd3HqORACLiTjQmutgFZSKSUoZ1ppoaTWYL6jAGPkYMfzPQc7rutix/E8z/Ncz/WSej2p1Trdbr1eX1lZabVavV4vSRIhRK1W45x7nmfaiE2S1Lyp2f0TnHjv93sIpj3W+sQWMJ9Nvm9PxMfKE3IYFovF8tRxt74QAMB1ThhBAAAASgmpGJeUc8I45YIxwQQfZUVR0b3BOC/J3mCcV9T33KyoIASEMgS00lqYfmKtlZaCSaaUlFprfaKlwPc8jLHn+w7GrueZ5jpTCBTHcXdhoV6vLy4uNhuNsixNGoFSKqXEGLuuCwA4YQfNnXnfYH6IwXsbwfd1G6xfYXmkWAfgMXC3rsJshYkRikNfa10LAw20UkopfenUilRKSHk8uV1LKblUSqpxXmZVlRZVVpLJNKmaFoQO04KyaXNVRblQijIulaZcCCmLgplOZYgghAhjjDFyHAdh7Dqu42CTNDAiQqZcstVqzRoMjCaDKaw0OgzhMa7ruq47/+czVSKMsWlHNu6E0SmajT02zNwMw2O//Jl0jeHxHonFYrE8M9xtBM1PrTVGMPBcz3WMkVJar3RbxvYprfnsVinTHZATWlE6GOcFoZO8zCsyyoq0qIZpUVFWEkoYZ1xSxrmUTEgpNeGCclGUpdIaQoggwhhN7RHG7pz9MneM+pBJlZt2AqNN5HmeaTs2ltGMNTBKRMbYmZ0Ymzhj9tDONLA8XqwD8Dg5MX4AmeaB6e/gnU8D0MROjhOPJuM5zoq8JOO8TMtqnBVFRfeHYyM8SijLiopykVeESVWUhAuRV4RxUVImhOKcK62lEkJyrpU0wROlToS7A993HKfd6UwF13w/rtWMYHMURY1Gw9w3DoBpRzYXON/3zS3G2FwTjTaRuTLGcTwYDCaTSVVVsxC7lJJSWlVVURRCiMeeXdVaY4wJIYQQpRS4Mxtwd2bgPXIF82mNRyrEZC2KxWJ5WrijeW4uRTB/H4A7x/Xcfqy1UiXlJWF9M5M4K9KyGmb5JC8H46wgLK9ISRihvKSUMVESyoTMK0K5IIxLKaVUSkvBuNa6Ukodex0njtM4AKaxuF6vm+JYz/OOpUgbnucbjY0oiowEn1n6z3oM3GOMZTTCRCYQdnci3YScTvwKfJDL++O1m++xffbbR9pmbe3gg2AdgCeOO9SFjrdoPdtyx/bAc10H1+PQpAiU0lxIc19IWRJGhUiLijGZlRXjPC0rQkVRkYrxoiJ5SSZFVRJaEppVtCR0klclpYRyKaUGAELIhRBSHh4eIoT29w+QiZZAaBoMzO3sjhFcMxe4IAy9OwVJTbWl2RJFUVVVeZ6/8cYbShnFCD0ej2/cuEEpPTo6MtF3EyMx18GPPwxvjmE0GlFKi6I4cV27+xLzHhcdOTU1SillnmY6K2YX+o/5rVksFssTy6xpYPpwtuWu7Q7GtdAPPEcqPc2TSyWlFFJxLrmUBSEV5UVJCONZRRgTEzO/rCRMiFFWEMZHaUEYzwpSMTbOK8JYmpcAAKmUKVQqy5JSOp5M0HFTgbFN5tZczGddxa7rzjS4DcYsmuhYEAQzK2lsovElzPaZNpF55ky5yHQtO85TsGa7nx2UUmqtOefGkqI5gDWCj4On4MNkAXcUT94RFMEuBmCumBLM11NqwjnnIi0IFzItS8pFVlSUiaKiJaV5RSZ5OUyLvCSmgiirSOB5eUWKinIxLao008qklFIKTokGYLpcv9dxYoRc1/V8z3XdwA9c1/WDwHWdwA+w48Rx5DjTWS1RFAkhhBD9fn+2M0LIeDx2XdeE/+cdjMdVEQQhTNOUc04pBXcG8qWU4PiiZnwYc99sNxkDc8dc9aSUQgillLnSmamWM/cJ3L+f7D36red/daIsdX6H81tOpCDueVY/kG9jsVgsj5o7Y/+3N2IMgYMD4E7z5McZcwAhkEopXRBKGcsrShjPS0K5GWMs8rJinB+Ns4qxo2FaEjbOq4LQwM9KwhwMtQJcSAWm13elleJSak2V1kCbZPnddhBC6GAcRpHjYM/1fN/3zYr/uOvO9wPjETiOY6Z81uv1mTjprKbIOAam1igIAiNXOuvHm73Wh7i938aPkp02IbyZBZwF9WZR/5kRZIyB4+DaiTDi/RId93t4z+0n7ODdZvF99/++r/vMYB2Apxvz5VIAAHW72Wmmt4AA9Fyn06hprXutRB9/D7UGUmmpFBeCCSml5EJyKaRQlAspVVYRwtjRKMsrcjBMS0qHaU65GGcF4TwvCGEiKyshFWXiWOlhKu+gAZCCS8Grsjr2E4z8kfkKzt0AgBBinM3WyoeHR+Px2NRHgru+wOBj/waaC6K5qOV5bt4NhFApZVbznHPGWFmWBwcH4/H47bffHg6HN2/eJIRMJhPzW/M0E/ufz36eeGsnroamO2K2xRSM3vMJprbKCFnMRj1EUTQbDTGzIibjfHeu+T2Szs/eJc9isTxLmAWmAgAc/wduJ9KBBtpzHdfBcRjMW0CzgtdaM86lVJQLIRUTUkpFBedCUspzQrOiGqT5KMvHWWF67SrK06KqKDP1tFlF5fG13VSJmiJaYwRJVR2bwOl8BHCHGQQYYYig57oIIew4CCHXcUwaYXZ5N2VCs24Ek08weQaTUjDdd9PE+3GCfVZza3IR5naWiJgvTJpvcpsPxt+z9OjuO+aE5nleVdXNmzcnk8nrr78+mUwODg6qqqqqSgjBGJNSmti/mlur3NMY3W3mTILFGK95yzi7b9YMRthw1qNovCljBx3HMfbRnBkTcZtVFsD7MO+TPJNYB+BZYL42EoA7RIfuEGCYe6w1UFpPC4e0VlJKpaTUQiqlVUEoZbwehXlFkyisKB2msZneYoIohPG8pFyIinINtJJKKiW1FlIqpUzyQEplcrJGq1RrLaQCYOorKK0BBBoiBEDguVPVVA2E4ELw6VDlOWf+rjetZzfgXmGYh4hZtRs3wDwsimIymezu7gZBUJZlURS7u7vD4fDq1auj0WhjY4MQkmUZ55wzxoUQQhxf+I5NwO2b29dTx8FwJt6KMcIIY8dcnY0DgBDCCOHjq+Ese2DMQFKrOce549mkm/mmbWM/5ku25u+fyGXPLsSz58AH4PaH0KrEWiyWj4sTKkMn0gV3q/FBAE05kRBSmdohrU3kWigphOJC5ITmJWkl8TCLJ3mRFSSrSEV4Wt52APKKCilNU7JUSiktpFJKcym00lKqYwEPLZWU6jiXoIG5EQACACSj86tOCCFCGEIIEUQQmZpbiKBZ5vq+77me53nO8aI/DEN31nQXBA7GURTh4y0z1W9nKv03HY1s+hNMm/LMB5hd+cFxic78UhjcFWUHAJjY1mg0yvPcOABXr15N0/Tw8NC0zxkHQCklBDd93nf8w90Vrb9fIMxxHAQhvjM0ZmwlPnYAjKUzdVOziajzVVWzSqqZL3HCDt5vy6xkd/be7+k5gPvYvifTDt7HAYAaQA2exAO2fDBuCw3NPZ79FiOIIAYAANed/90CAADoS6dW4HznwfxuNEAQUs6NxkJFWEFZRVlWkpLQsqKU8YzQivGsIJTxrKy4kHlFhJDEqDEwzoUsCBNKMi44F5RJJgXlXEhzJVUP8P7enxPe0Yc/k8eXLSHEq6++eu3atcPDQyHExsbGZDK5desWY2yW9FRag49RPBTeP9U7v8VEPkxFqbkyzledmgCJSUnP/AczXDMMQxNKmU2eNm3f5s/NDp+K4lSL5UHQAAAAgTWBzwp63oDN2UIwvTBC7CCg4e24Ejx+xpz1PKFZbW6YlELJNCspF0VFKeNpSSjn46xkQhQVqQjPKlJRVlJaUU4YJ5QzIRgTQsqKcSElMdrfnAshKyakFFleKq3UBzAicF4p5ETU+u5Slvlqn5lcx0y0w6yST2w3K2ZwZ+0+xth0R1y9etWE/E2Y/0Sk/9EzK/6C8D2NoHkXxiky2fJZA4YZizS7M+9LOI5jyrTm+7xnFtP8ubGMH+NbfghYm/1JZ+5LciLSDsG9Q++3n62Bo7TGCDkYu54bBV4UeIQKwhgXsqSMC1kSau4LKStCuVCUcaEEZYILWRIupGSCc64oF5RzLkR/kqdFhSAEQJu4t5gmWJXSQGkFNFDTikMFwPT+7Vt1+6FJvAL9gVIE7//8oiiUUtvb21LK4XCQ5wVnzIT5TQQnDoIoihBCGE2DN3MRAnhsWWYaeNMpcdPgyKxocppOvv349vPA8VM10FobBWypTP3l9FzNR1rMv7KpXAIAmEMlhFRV5ThOnueO46Rpaq6Ms5qi2aV/Vk00u8wZr2DeATBXyXnZOzN5ZyaHd3cI5MkMilgslk8Ot69Cc9mBuQ3vd42CwFFQBr7nOA7GXMrA97gQtTAQQlaMU84JZZQLyjhlgglBGGdCMs6FUBVjQqqKMCEl44JLSSg3tlJozbgw+XOllJRKaS3vsG7mDlBKTSuaTGeCBkbNTx9vMUYT3JUqN++NQWiq9jHGnHOMEGMMIeS5LsLY8zyMkHOcOr67cJRSyjlP05QQwjkXQgAAEEK1OHYc7HveNIMx/SsAITp+8TmjB2Y1UvpOW3d7YNCcOZ81hB9b+WOXQ2stlVRzmZYTdtBU8AIAzHG6rssYm+VGZvi+75p0yrELNN+ubWquZhW2pgpr5ioYI2juGGZ28O5WxsdrBOGd6RgNAATlWL37feCFqhhDWj6U6KnlWWJaxXLHEnb21b39pVVzC1nzTWVCCiVN5INyzoUqCZNKccEZl5zLijEN9E/eunlt+6CZRJ7nJGEY+d4ozZmQOaFCCsqElIpyLqUqKqaUYlxwk0YQZreSccmF4EIKKR/FGTAreuzg4/aw29EO13U9z1lfXbl0/rxp/HIdx3Gw63qO62CEEZp+6RgXWitzsTJadEIKdVwvZbIgUiiljb6TsQHy2B5oKYWxClJJSqngoihLLkReFFJILsSDvA14/N/MOYHoOIIyF0rBjuM6zswBMCGQ+fuzOEqz2QzD0MyTXlxcrNVqKysrYRi2Wq3H/bG1WB4ULQUoRrqcqGs/tG6q5W7m1aDBLF4zM4K3AzZ3WEnTdUCZ4FJQLqSQFedSqoqyWR8CYUxKVVFqWuwI53lJCWNFRQgT0+yBEEwIISVlQghFOBNCMiGEUIRxqVRFmFSKcWlM7Qd8c3D+f6ZXAd7efvs54PYqHhgHZXZiPNe9dPF8o54sLnQDP3Ac18HTYcye55ql+LFBm1VPKTk1bfzY4VFCSK20UEIrfVxaLJWSSmqllVRSSmUU9oSQhBDGWFFVlDFCiBAPYv1PWMD7tg6bciCz9J85ALPbmV5TFEVGLjZJkl6v12q1ut2usYMmr/K4P7l3YDMAlg/M7ZTB7Dty/PgeT5v90FooZaa3mMHvUirChNZGtFQJqcZ5wRj3MOZcEEKlEI0w9F1nrdfBCCqgldJcSimnOyGUH4+Dkdz8nwshTQXndKM4FiQ4DooofZxAmCYWpsEDrY4bozmXlHPKuDpWhFZau66DMfZdjBEyvo06HrZsdm6u4wBoISWEyPP8hU57abEX+F4UBq7rOo5rKgpNXEIIadwHpbVSUivFTfBeThsGpNLTBo3jkIaSJtJ/22cwjgFlTEpRVpUUsiSVEJJSppQSUmqtpu7DcWGV2ZsQx4+mGPdjmkY4zqRMG7wl19rIQHFelaXjOFmWzUIdszpUkyf1fb/dbodh2O12oyhaWFgIw7DT6ZhQyqzw1NSkGu7ZaTD7jD3uz7vFYrHcwXxxCbhdYXLXL0/80FoDYOaXCSGkUkwIqTTnYmoTlWZCKKUo50ppziXjoqSUMF5RxrigJrYlJZdSCsU5F1JRIaRUXAihFGNSKkUYk8ea4IxzpbRJIBznyZVWwOgaaZMuOL7kT1Pr06iWuX+7qlXdkaMGx94OANMQH6BsWsGrARBCIoQWFxYazUar3vBcJwgDjLDrusankMfxr6kFMqZNaSWFmg0mklJpJe8Q2VPKmOrjMJkJjUkpKWOMc0Io45xSKoQwBcVSKq2BlGaxMTWfSisppNLTlkXjhsipgZwuFuZrmYTR79aaIkQpwdjJ89yMOp0F+z3PC4MgNDOSwrDd6dTr9VarFcdxt9s1I+RMhmG+RXu+1WHWgHciV/CI7KB1ACwPgROzC+75AxjJNoSwh/S9/hJBtHUwGOV5WpRXt/akkELKX335MnTwb37uhdWFdrdZ81xHHa/gjzOBU9WFO0p+ji9T5oJGmJBSlpQxISgTJjMrpMzKSipVUS6koowzLgjj46wYTPLtw+Gtw0FZlEVeKQCk1t16ksRhM4lC3+VCag2ElEoDpRQTPM2rkjJT9QS4kFI6GF26cO63vvH1Wi3udlpSKnS7/gfO1JvmezOmtT1Aw+N07Vw10u3853QPx4lTAIDRo5s6OkArpYSQnPG8KimlRVFVVVUUZUVoSaqqqihlkzyrCCnLilJaFiVlfJJlnPMsz6SUnE/TC1oDc1k0UwwE55QQIaUQQgh5MqUMoUlxzEk3IMfBJj/QbDYXFxc7nc7y8vLS0tL6+nq73e50Oma45kwh285dtlgsTyPzBvB+RhAAgBHECPsuvtsOnnwqANOF+FSzaL4u5nYBzXyBjOk+u9MOKiU1F5IJSThnXFDOTd9dxTgVnBDOhSSccyFNLqKoqJSqYsxs4UISxqVUTIrjeJXWCiilpFZSaaU05ZwJeTAYZyUxi+bhcFSvxS++8NyFc2dfuHI5CILA9Y974zScvjt4bPTubDG83Xdx+8FxSuX4/tRUztQHgZq+25mTo0tSccazsuCcp2nGGEvznDFWFBVjbJJllLI8zynlxjKWZVVUVVVVnHFuXLRpa/fU/RCcS6XKojSxQuN83PkvBs2sJHws3TGTMHJdd3l5uV6vr6ys1Ov1c+fONRqN8+fPR1HUbrdNAmGm7PTxGEHrAFgePvBeP+7xBDAruYRSaQhhWlbvbu2zvEyEShB2IXaycrI/ePfG9nCcnV9fTOKgHkee4/iOY8LEc/PkgZ62cc0q66cXhpALqXTEuRkNI5ViXEilKkpNnpQJURKaFWR/OMYQVhXFUjY16Ll+mDhjKQsuIt/zQ//K6eVeuw4BRBAJqcw11rR8DSb5T96+wYWc5GVVVrv7B9du3Ox02itLi4SsNOpJUqsZH19PNSmO6+8gnIupzDUg3DXyZvZezd05PwHezjSDaXeEECIIA845qVHKGCWUckaZCY3woqwY54RSwQUhhHNRVpWQoqoqKRXjTErFpxWoQgpJOTdiDoxxE19h7DjdIuRxlOU4SDONygitAeeac2ZmPgjO0zQdj8f7+/vb29uNRqNerydJEkVRrVYLgsBoYBu5BpNeOM4ae/eclmDzAxaL5QnkfY0guJcdvPtPtNYazZe8g/nmZBPngmBu83RNDI7/ApgmAaPIx4QQQjIphVBSSmqSCUwIqZgUUirGhZSKMpOd4EIqNhVIFUYradpzBrRS0/iamZ3MpWRcvL2x259kt/aOqJCMs0mavvnO1aIoHYwb9fr6yqrj4CgK0SzHe5xEn52J+cZrOPcQ3OlMzf/dbaMPju3fcTzQ9z0hRBSFQop6rSaEKKvK1Bfw6X1eEWoEuylllFJCKWWccy6kOJ7eI6VSQggpJSGEC0kpE1KYKiNCqZRSHJcimRyGKSgwngNjVGvAGUMYu65bFAWlNIqiLMuiKDJagqZ0tl6vGyM4kzE16YVZnsFE1u4uT/rQWAfA8vjRU8V9sLF7+G/+5EfewWihYJ9vNdY8/7vvbv88y//Lq2+hyP/f/40vnVvtfenFi7WmH4U+QFAK+SBfgDnRTQBulzFCYKanORgIqbm4udf/05+9eTTO39o9qDOREPbZWvLVZvOnWbZVkbRdR+3k9/7O13/tpUvQdYDnTS9MEAJC+4PJ6ze3/2//4/+vP8pGWbG1u7e1u/fzX77+n7/9X77+5V/7yq/+yhe/8EpvsQeUBgiarOp9j/ZePz4o03drTg6Ex/+fe9cmHXHivnlBqQAliouqqjgXJSWU0DwvirLMirzIi6yoxukky7K8KMuqyrK8qkiaZZSy8WRSEdofDsuqyvNi7ojS+x1qFEX1en11dbXVaq2vr9fr9bW1tUaj0ev1arXa8vJyHMfr6+s2LWCxWJ5h7ps5h3PGy2y5/buTG+7H/Y3g3MPbbdAQnHjmnapC93hBpQAX/+67f/nGzZ3/6T9+Lz0aUsbHk/Tq9ZutVuO3f+Mb586e/u/+d3+/FketThsAoIUAd8Sz7jrg93itB6aezFu9O60huNsyzm0RAiilS0Km7QS8rCrK2HA8qSoySVNSkcFoTAgZjEaUsrwoyrLKsqKsjJUs86Icjkd5ls2/w/F4fM/jxBg3m01jBM1tr9dbWFhYWFhot9v1en1paaler0dR9OHPxb2wDoDl8QMBKAnNCekPxocHw08DdLFZvxzHK76vMHy51djCsMRo8+bOcDTJi2qhVf/UudUkDJY7TaX0cShhjpNXlXtcZUyUgXAxycv+KHtnc2+/P3rtnQ2VlS8iZynwF/3ojB+c8n2q1Krnf6eg+0L84uothNC5lV67XpNKmVpG04+VRMFvfuHFrcOh6zpZWe0PU4yxkHJjaxtAWFbV5vbu+urqQqddiyOjF3ZP7+U9cscPjtbT2Tgn3u8dr6JPPJz+p9S0PpVzbupGEUJhEGAHB4HfSBLGBKELlDJTc1lVFWPcRFPyomCcp2lOGM2ynDGW5QVlzNwvCaGUVhURUnLOTbFjGAQIoTzPTYbB9/3d3d0oDBvNpukeNl3FJjRiyijjOG61WiZMAh5GIMRisVieFu5ZO/TeHOvJ3d9O3r8M6Z4KQif+TCkglVzstBDCX3/lyu7R6J1buyXlCkAE0cbmdknI7//hHy8v9l56/rlmo9HtdDBGruNofW+hmdt58I+gp31CivQ9rN7cj6kR1FozLszET6kkhMh13HqtFgVBHIZCioVuh3NREsI5p5Qa00YoJYRUhFaE5nlelGVRlsYOMsazoqCMVWXFOS+qykyTNhpEjuNUVaW1FkIcHBxsbW01Go0kSUyGvNVqzW6NhLexgKa5zlQZgQ+eErcOgOXxAyEsCN05Gm3uHL321o1vnD/7pWbzU3F8KgieiyKm9X8dDrcI/f/+5I3CQaeuba4stP8B+sJKt7W62AFSam1cd3hXXOS+j7XWGgIIES/Jfn/85sbO//rnP+0Pxu/c3H4lrv1qFD8fB68kSctxWp63HgRM6z+9eWN3Qq5tHYRhsLbQcV0HCmFeM8Be4HtR6P+j3/rSGze3pVJXN/d3jkaj8WQ0nvQHox+/+tqtza0LZ89882tfeen5T/meFyWJFgIeZz8e0Vm98yF48HyC53n33iUw/Qu3R8BopSljXAjTdFURIoQoqopRnhd5WZLdg4PxJL1x89Y4newdHA5Ho729Q0qnRUEAAELIiZcxVzRTCNRoNMzFrlar9Xq9brd7+vTplZWV559/vtls1mq1R3HqLBaL5VniRA7h9saTDz5sJAUDAPBnLp4GEEolN/f746zY7Y8GkyLLi8HoJ7U4fuPtd1947jKl9MK5s51WC2KMHAdI+fEZQfDBhgLdret/u0jL2EGtNQAmWGbqiBjjjDHKOGO8qEpKyGg8qSjZ2NiapNnNza3RZLK7t59l+XgyMWoinPOqqszs5PnXmg02DoLAlMh2u916vb6+vt5qta5cuWKSA0ae6MOdH+sAWB4nEALOpVBqY//oz159a3QweDlJzvrBuTBMMAZaRxj7Wr9Qq60FAXbwQKvtSrDD0X/6s58sLbSXOy3HQb1mvaRsmBVKaiHle3zDTYoPI9Rp1BCCaUE2D/r/+Qc/Pzoayf54ncuvLi6tef4l3+95XsNxfIQAABHGodYvhqHCcLg/+JlWV06thIFXjwM891qOg5txdH5l8W//2qevnTpY67W3jgbXdw6l1AVh27t7ZVmWpPrJa7+4cO5su9V8/sqlpBYnSeK5rvdxNf18NPSJkIk5p46DzagDpZTve1KqOI6llJQ1Oee9hU5FyMVzZwilWZ6XZZXnRV4WWVqUVVlUZZYXZVmmWV4RMnUMpNJaQwCkEOPxGGOc57nv+wcHB1EUvfvuu/V6/fvf/36z2ex2u51Op9VqdTqder1uKintVDKLxWL5+HEcDAC4vL680KwrrXeORj9560Z/ku0PUwj0aDS+eu060GB56c1Xf/H68mLv/NnTjXq90277vud5Hnric7n6jpvjWXIAzGYnu64b+L6UUijVYDUuRKfT5lwsLvQIpS+OPkVINclzSuloPKGMjscpoTTL8opUkzSjlOZFKaXkQhq3iDPGOSeEYIzTNPV9f29vLwiCN998M4qiv/iLv4jjuNfr1et1Uy7b7XbNjDNwfFTv9e/1uM+n5RMOFEpSJm5sH/6n7796mutXarWLYXAljqXWCIAEYwDAZ+t1rfVnk2ST0n+1t/d2f/SfXnur121943Mv1KOgU0/Kim4fDBiXFeMQgvtFEyCEDoae6wS+62C8dTh4/frWv/7j77sVvYDds3H8fz11CkPYcN3bu9A6wRhC+EpcizD+3tb+Lw+PvvLS5XoS1kLfwdAsVQEAvuP4jVq7UXvx0ulbOwcvnT/1l798tySsP8764+zazQ2t9Y9e/bmD8WdefKHdav33/4d/tLqyvL6OYFwz174PMvfxiWA2C8Z1AQD+3b89vgPuKC1FsEizLCt29vYOjo5ube/sHxxtbm0fDQaj0aSsSFbklFJTTVSW1f1evVarNRqN55577sqVK5/61KfOnTt37ty5hYUFu/q3WCyWjx/PwQCAly6cEkq9cvns1uHAd513t/YnRVVU9PCof3jU/8Ubb0dh2GzWP/PSi7/xta9cOn/Odd06THzPA8dTih/3+/hgGOU691525x561tM7mnNRluX1jc3ReLy5uX3Y71/f2BhP0p3dPcp4WVZFWRZFmZclpVTeZ6yy53mNRuPixYunTp360pe+tLS09NJLL8VxHMfxgxy5tZSWx4bSGgMwmOQ3dg+3do9oVnb98CutZs/1wPGqeorWWmsEoQNhiFDiuevt5tJS58xSF0Kgtd46Gv7RX71GK0ay0nOwO5UHugOhlUaQIxhEQeR7nUbSbSTLndZzZ1bYKMOjDCDkIgS1vqcDsR4EGsLXUzau2PWN3ZKJU72u5558mtZAS1kLg3MrC1KpKPBu7B5d3znc7Y/645QwLpQ+ODyaTLL/+Mff6bTbF8+fbbdaZ06tN5JkdXnJcR13KnD0RAdCHoTZdfxE+wGQAGMchsFibyGOo06nnRfFePxcWVWj0YQQMhyPK0LGaUoJHU9SytgkTTnnRVlRxoqyFEJSSrTWVVXeunUrz/OdnZ1Go/H8888vLS194QtfWF1dNdMJHvc5sFgslk8WJpLlYtxO4q98+sr5taVOIxlMsrdv7RYVPRymAOiyqm5s3PqOlFev33zznXdXlpeWegsrS0vtdqsWRZ7nPhs6b3NGUJ/crrXjOL1up57EzXq9KMorly4UZTWejMuS5HmRZtkky/O8qKoqLXJKWZYXjNLjiZ+lUhJCxBjb3d0tiiLLsna7/cYbb5w6derll18GAHz6059+78oCayAtjw8NkIvTonprY/fmzuFef1xb9H+z1zbf+RMfWwhhgnHLcRZcNwW65cJ2vXZ2tZeVpdL6xu7Rv/2TH6WTfJTmIQD+vTqWOAAaAOE4rVby2ctnMUYX15bH7eLUYjeHiEzKGMHEdcFdrjYEAGh9JggSjL/TH/CyuLq5t5eX/+AbX0AOllzceZxAKd2q1zqt+kqv9crlM3/1xrWfvH3zL157a38wKgkDAGzu7AIAbmxt1uL48y+/tL6++rVf++L62trFC+ew5wIAgVZaSPDIKiMfO77vB0HQaDUBhAAhgBDQGiBUjkakIrv7+2mWHxz186Lc2z/Isvz6rY00zfYPj0bjyWA4opQCAIQoiqIYDkdXr141u/3CF75w9uzZ9fX1xcVF13U/0iFaLBaL5UOBIAx9N/Aav/3FT0+KarFV39jvj4vyoD/ZFkMmRFmR8Th9652rC93u6vLSyy88d+XShV/9/Oe6nXYYBjCOAKHTycnPohE0A78ix4lrMYAIIAQgBA4GnGvGx5PJeJweDvpH/eFwOE7zbGf/YDJJt3a2R6PJ/sEhz/KqmubGCSGTyQQA8Nprrzmuu7K8/MUvfjGOY631Sy+9ZB0Ay5MIgrDibJBm727t/+AX7zqD9LdbrReiyL9P1ZrSeovSDUr/uiiOXPSNL768utwFWmOIIAC+g5u16Izrnk4a62Fwxg+k1vOxAw3AgPGRkn9a5lXkB57jYOw5uNNMvvaZK9dubH935/CqEj+eTNquez4M9YkUBAA+QnWMP9eox5777vbRu7tHN3YO2o2kU69hfPI7ZsaHIIgCz/vU2bXlTvO5Myt7R6N3Nvd2+6PrO4f9SaY00kq/e2Nj9+Bwd3e/1Wr+8Mc/Xuh2Pvfyy7VabXmp5zqu4+CnPwhyD8x0G9P+dazbrAAAUkqEUbfTbtTrCwtdIURVEsbYaDKmlKV5QQjJi3w8SQ8Ojw77g72Do/5g0B8OlVKUsp2dnTRNf/aznwEAXnjhhU6no7V+Bk+fxWKxPNmYwcNCSIzgp86urvXaKwutg8H47Y3d7cPh27f2CkL7k1xKcXB4+JNX2dUbN3/55judVuuzn35xqbdw6fy5RqMehqHrOE9Dg9yHQWut+G05VDNATUqJIKrVYtdzuu0OZUwKkRUFpWycplVF8jynjPWHg6Isr16/mabZ1s5uWVbjSWr6BN55553f//3fhxD+3b/7d987DW4dAMtjQAMAIeRSjrJyrz968+b2RQU/7wenXC9y3btG6wEAgAJgJMQh5xuMFa7/wsVTa0tdjLHj4Ok0XKmaCL8Y+s/Vaq8kCVMK3vmK24Tscv4zUlVqqizmuU4ziV44t0YIzRx0JPS1qjoHwPkw1HepIYQIYcc5FwQagL8+PLxaVUejFCLUTCIHoBMxClPBEwV+HAaNWoQQOL28MErzbqt+dXMvr0hRkVFWMi4maQoAuHlrsxZHmzvbp9fXO612r9vttJoQQITM3DBTFvlMLWXndKnNu0IAABO2bzYat+WZFdBKEVJxIcyAFsb5Ub+/ubXz7o2bb71zFUGYZrmRWtvZ2YEQXr9+vdPpnD9/HkznSzxDZ81isVieEhCEvut4ntuohVzIC+vLe/3R+mLn9etbk7w6HE364yzPsqGQe4eHGKEbG5ue6zFGz5xabzYajuO6rocxhvrZNILgromWZuZXGAJ457wCxblUqqoIF9xIZQxGoyzL/uIvf7R3cEgpGwyHk0lqeueEEHmeI4TUfToHZlgHwPI40BoglObVH/zlq/tbB3FOTofxrzYaq74P7ly4GxQAVOtvD4fbWi2fXqotNC+dXl5oNbRS85LIGEAfohChCCH3zguFBiBEKEAIz22XSnmOs9ZrZ3n15ZevkKPRf3zr1tc67Yth6EBYvysXgSA8F4aJ4/ykyBGCf/iDny8vdv7BN36llUSu4yB0L7FRrbXWQuo48F2Mv/TSpZcvnPr8c+ezivzJT97oj7ONvX5ekawiFSE3bm7uH/Rvbe0s9xYuX7ywvrry3JVLrUZjebEXBH4cRc9sSdDcGQOmhHSudFJrDSB0MIaB73luIJXv+512++KFc1/9tS9ubm9v7+794Xf+6/e+/5dGDlkIQSl91k+VxWKxPOmYyLZUWmvtILjQTAL31Kle53PPnd/aH7y7tXd95/DazsEkLydFRQmpSvK97/8wjl/765/9vNfpfPYzLy8t9s6fPZ3EcW+hCyF0HAcC+JGmAzzZzLIB8ybMzCVwMIYIOhgrpX3f451Oo96oKvK7f+tvXr1x81//m3971B/c3NwyRvBB0ibv5QA8W46W5QlCa6ABLCr62tVNMM79inWD+FIYhhjfswGXKVUp9WZRHDhopbu8utJb7bXb9ZoGwGj+mM+qA1GIUYxxiHF4135qGEdKYXC7wVYD4Do4DOvLC+WF08tbWv+gePNMEo+FiDC+2wHAEC66bg3jVdfNOH/92uagKP/mr7wU+p6D8f2+MQhBAGA9DgCAvVYdAHB+ZVFrPSmqnaOhlOponJaEUkL380IDcP3mRrvV3N7bu3zxAkJoZXnR97wkqbmui6DR23zmwiB3Mq/WbN6pkTO7ragAjkc2InR6a3t3b+8Xr79lfmVSqGYk++N+H5anlukH7ZldZFgsHycQQgdjB+Mo8DuN5JRWEMKbO0crC61aFEqlto+GjIu8rErCJlkKAHj32o1OqymkPHN63XWcTqsVR5HjOEEAEYLwmbeCdyY7jAWcDfyaPWFtdQUoDVxn5Zdv/vF/+VNCmfEcpJQPEgJ7DwfADEZ+3OfA8hQy/8m755eUCdGfZLd2D19949rLYfSVZuO5OI4xdu6aVmV29HZZ7nO+D4GI/JcvnT17aqkWBnerbhmxGX2s0HtiP3NTEG/L9wIItZSNOPzV5y8kjvOHjdf6GP1wPL5cq3VdF93Vi4wgDBD6Yr1+IQz/xcGQKfXLa5vpysLzZ1ZD7N3reKbTF5GGEGqptdba9xytwW98/vmsIJ+5eLo/yd+6uXM4Sl9996Ypi6SU3tjYHI7GNzduLS4srK2unllfXV9bXVtZXlrsJbVaLf4kTsC9ragAjoWhENrbP3jt9beP+n0AAEIQY/fSpUsvv/xykiTg2UsYWz4WIIDa/LRYLA8PszxVWgOgO/X4pQunFprJK5dO39rv7/ZHb9/a2zka3tw7mmSllGI0mfzFD3/089ff+MUbbzXryZWLFzrt1uWLF1rNxvLSkuM4vueCT9hF/kRaAELIGCMpPTg83NrZPRoMAADdbvczn/mMUeh+773dxwEw1bcWy4cCTYPUEByXc8y7ohBCpVRJaJoX17f2n1tZOlNvLnpeeK8Pq1mjDzjfY7QvhIfQ8kLrzFI38DzXwUp9gBDdPf1ZCIAGOvT98yu9wTCtMJoAtUXIShDou2aUQwAwhBDCc0G47Pn9W7dKDPeHkyQOldYQQAXuaB3GEEKMpz2uepq0hBAGvgcAeP7sGhdypds8HKWegzcPBm9tbFeUSamKsirK6vCof3Njc3Ghu7y8PR5frggJAr/TbiEEncAHQgAAn1WRhAfB+D9VRQejUUkoOJ7yvrCwsLKycvcQR4vlg2BNoMXySEAQAgDqtajZTBaaCWFsZae1dTjgQjIpb+33mRBAiIrQNMsBgPsHh/V6kuX5+spKq9V0XHcNY9d1sOseKwWBT2C+zlhADYCUkjI6SdOiLAEAYRiurq6CB3CNbA+A5WGitcaO8/rVzcPRhAkBAbxydqXTqPmuhxGEEAiphJA7R6P/6Q++lx+OvtRsfjaufbXVamB896dVAzDgXALwn/v9G5y98vKl5bWFFy+cWl/sYIyU0g/F89caOA6KI//USvf//Dtf372x829/+JrjueeCoOE4zbvyDBCAnutKAP5Os5Vh/L2/+sXG/tHp5e5iu9GoTQPzlPGK8Z3DwTube4HnKq1fvnB6rdfWt5uZAONSa92u15IoXGw3S0J/4/MvHI3Sn75zc+tg+JO3bmQVzSsySbNJlm/v7P35D/+qWW/U67WzZ063m41vfPVLq8vLnVYrCkPf97HjeK4Dj6cUPvNOAYSQca61fvfate/+1+9t7+wAAM6fP7+0tHTq1KlOp2P6iT9RwSGLxWJ5WlBKK8YhBJ7rnlvprffaV06tVIy9dXP3aJz++c/f3u2Ptg6GWUkmaZpmWX8wDIPgu3/2F/UkWVxYWFtZfuXTL64uL12+cN5z3SDwXdf1PG/eyD7baK0RRlmW/fDHP/35L99Is0wKiR18+vTpr33tayZD/t57sA6A5SEDIcwq0p/kaVFKpbqtxMG4HgHXwY6DhVQV42lRXts+wGmx7Lhd7PQ8z7vXSk1rXUhJtN7jfFeIK53G6kK7XY+TKBBTpaCHs7zDEDqum8ThhbWl8WCyr+RQyRHnHkKNu14GAhBhDABYc70joK/1R2EtmORlLfTrUSA10FoVhGZFtT+cXNvebyU1FyPCGLwzRoERAgB4jgMAbNQiIVS3mRyNUsq557pbBwNnknHOKRcloVVVAgD3vUPP97KibNbrZ0+fAgAqqZKkFsex53oq8BGaaxI4PqXP3iLYiLRyLhjnw/F4d3/fDAxuNpuLi4tJkoRh+LiP0WKxWCz3xRT8uhi7Dgw9F0JgImgOxoNJvn00QgjmBVFKpUXFhMzzAmF8eNSPonBnd384GidJLIRsNZth4NfiOAiDUCqEIDJdAnf2CTyTdlBKVRGyd3B4cNRnjGmtfc9vNBrLy8umQOi992AdAMtDR2OMAAR/9KNfvL2x+6mzq/U4/JtffHmhVX/l0pmC0Neu3rq+uffG9c3LyP0fTq3XHcc3i9Y7UVozpd4oiutleeQiGUff/JWXzq4t1qJQqpPFOR8VCDUAjTj84vPnSUWeu352n8l/c3T4zWZrud2WWuM7X86U9f9mp73J2E93todbR9//2VunVhf/3tc+NxinN/cO39zY+eEb1zf3+6++s/E7X/7Mb//qy8roUd4VllDHBUIQgijw13rthVb9K0X1u1/+zK39wWtXt3b7o+u7B/uDyW5/xIRIs/yNt95xMH7n6rUwCNZWV9rN5sUL57rt1sXzZ+tJsr6yEoVht9vBCJnv/0xV4HF/MB4aSmuM8Y2Njdffefe1N97aOzgy9VXPP//8Zz7zmXa7/azqRlssFsuzxO1OOWVMJDizvLDe61xaX0zL6hdXt/aH459f3Rym+Tu39oqK7o8maZYXRXXQ7//izTeb9Xqr2VxdWV5bWTq1trq6vLyytNhuNXsL3VotDv0AuY4Z7vmMlcuaUup+v399Y/PPf/BX129uVBWpNxoXL148f/786uqqdQAsjweMkINRVlQHw3Ej8CaBf31rP83LbqNWErax3987GiHCIx+fCQIIoXOvjynXmmh9yPkNQtxa2IyDbqvRaSSug+EjEAGDWruO027UOs1kpddW/clmf3wkRCklhDC8qxkAANDzvEqrpoaUse2DgUZw52i4Pxhf3dy7tX14sHt0eDQcpnlJqOs4ENx3sDk02yHwEAYOroVBHPj1OPRcl3GZxIHjoND3MIKTosrKijFRUlpVFYSQUNZs1JWSR+2WUrKe1CllSS2uKA18Lwh8jLHjuBhBfGeR1dMbDoEQSiGUEP3B4MbNW0f9PiEkiiLP87rd7srKShAEn5AUsMVisTwbQAhNoC12fKB1Iw5bSa0ivFGLCBPDSS6EnOSVAppQVlHGKcnzPM+L/nBUVmVe5GVVpWmW5Xm3087LslFPGvV6EPiu42CEXdc50Rf79BpBAIAZsnZwdLR/cLB3cDAcjQEAnuetrKy0220zCdg6AJaPHa2TKOjUazXfCxHWo1yA/H/7L3/lBd5P37kpldo+GqGKfsb1X/TDnu+L+8g15koNOH+9Kr87Hv3W57/YW1notmpR4CEEH8XSzkiCOo5zdqX3t3/15R/+9et/dn3rfFVdLIr1IAh9/+7ZwB3X5Vp/udXckOKnv3j31etbg7Q4GqVvXN+qS9Wgok5FhFEjChu1yHMdcK8MwN1IpTBCceifXVlY7jazkmRFtXk43OuPbuwcbh4M3trY3dwf5KRiXO4fHh4NBls7O67rtZv1MAyWF5fqSbK2srzQ7Zw/d6bdbK6tLjeSZKHbAbNL3vzq+Fg36WkBIlSU1XA0/vkv3/zOf/3e5vYOY2xpeXmh17t8+fJzzz1Xq9Ue9zFaLBaL5cMwnQajlIPRhbXF00vdy6eWK8o2DwaDSf7u1t720eiX1zcHk+z69iEXnGWcELK5s/uLN95yHWext1BPat1Op1mvXzh/dqHbOXfqVL1eO3v6lOe6YRjOZMBvW8GnLVxkhD6Lqvyvf/6DazduXb2xkaYZdpxOp/OlL33p0qVLjUbjI8qAWiwfAgg08F0n8n0XYweCQKpY6XycUxdvbe1LrftpkUh92fWWPc/B+O5aDfOxnQhxyPkYgBTB3kLrzPJC6LsOfiSrfwOCECFUj8MzywuvN2rSd1OgNwlpOs6y56m7CoE8CGOMTwVBSSoyyWhFNzb38zQn/XHTcVsIFwB6juM72HcdDOGDyxQgBDHEnuMkUViPQtpIAt9rJZHvOnHgcyExQofjSVERLqSQIssoAKAocs9107xMavEkTXvdjpCy025SylrNRlUR7GDHcRyMEUKu4yB8XCmJEATAhEZODCZ80lBKQ6iKstze2dnd39/Z3SvyEmHcbDZ7vd7CwkK73fY870l+CxaLxWJ5b4xpqoUBgCCJAy5k4LvDtHAcnMQhoSyJg4pwqVRFmRCyKktSlVKqilRRGPYHw6SWcCH6gyHnvNmoAw0C30/qNQc72BhB10EQYYwhAka30JhCeDx/94k1IVqDoizHk/TGxq2t7Z00y7iUSZK02+0zZ850u13XdW0GwPJxAyFQWjeTGCFYC/2a532t3jyHnZUwrLT6/+wdpULEQiz7/reWV7que8+5v8Yd//54/MMsKzv1i93k8y9cvHR6JQqCR/qlNLUl7Uat227sHY32Rulkt/+vNnb/T+trq76P7iwEMvcSjH+j1Vot/TeLciREcXXrUhD8D6fOSKBDiP6kLH5CSRiGSRQ6Dv5AcXatgQIaKIUQCjz31FJnrdd+4dyakKqoCADw+6+9szsY//La1sEo3TkaZmWVFhVjbGNzE0L01jvXHIx838cYYezEURiH0dLiwtLiwury8kK3e+Hs6cVed9o4FYSe60ZR6DjYwQ44zhJMSzOfmOAIhFAqrgF699qN//v/8/+1u3+wtb0bRlGj0fjSl770m7/5my+88EKn03mCr9sWi8VieVCk1kBpAKCD8XKntdhqXFxb4lL+d3/j10ZZsXs0endr/xfXNnePRpuHg7SsspJUhKRpvn/QBxC89sYbDnY8z8UYea4XReHaynKr2Tizfqrdal66cK6eJKvLS67rBoEf+H4Q+L7nOq4HZkNGn8gmOq31T3/+i42t7d//z99Osywvim534ctf/vJLL730t/7W35JSPuCMIOsAWB462nWw77qu4zgYewi5EC65LlNqDeEUaeLAFcftOk7jrlG7ZnpXpRRTqi/EoRRJLVxuxI0krsch/lg6Ox2MXc9t1ePVxc5uWgy1GknZ57zpOHdPKsAA1Byn5ThrnpcIpLVeQXjVdQullNYeRq7nuA52HQwh+qDXj2koHgIAoAMxBEB7rgYgDnyM0Znlbhh4hPFmEkW+mxbV4WhCGB/nhZCKcSGFzDkDAEilM9/3fZ9xRighlI3TVEo+HI3q9SQKw1qt5ntevZ54rhuFAcLYxQ5ECGOEIMQY3zVz7DE0EyittZRFWRVFuXdwsLmzm+U5F6Idhp1OZ2lpaX19vVar4bs+VBaLxWJ5Grmdj4bQwccDurUGAASe62LMpawoi0M/DLxhmo/zcpQVRUUIE1wIwTlnvCxLM9g2CAKl1CTNpFTDcUNp1UiSLMv9wIujKArDOIrCMIjCACHsONgkCjDC0CgLgfuavo/HDGqtlVKUMkLp5vbOrc2tSZoSylzXq9frZ86cWVtbC8NQCPGAO7QOgOUhozUIfQ9DGIeBH3ipVvtc/jdBUHecy1HElBoK4UC46nkYQnBXYT1AaKsstyj9SVm8yuj/8eKpz7946dRitx5Hcir9+WiBEGohnzu7utCq/wel/+jN668zgofy6+12w6TV5p5sioLOBMH/ZXUVAtByXQRBiJ2NsnwzzwmEjSSuxUEc+C7+SN7LvH6B5zpa6y++eBEC8He/+jkh5eEwTcvqjetbw6x4a2NnkObXtg6Gab59OKKcS6WKsizKcjgavX312tyZhu1mK46jlaXFRqN+anUlqdXWVldqtXhtebme1JYWe1EcLXTaGGHge0BP0wJ3/P9jUVdAEEqlpFRb27t/9N0/+elrv/z5L98wa/3Lly9/9atf/fVf//VXXnnl4/mEWCwWi+Vj5oSVSeIwicNza4u/9cWXKBOMi62DwcFo/O7WwW5/cmvv6GiU3tg5HEyyQZYfz97J0ywHAPz4Zz83O3EcJ/D8VrPe7XYWOp2FbmdxobvQ7XTa7UajvrK02Go2u51WHIW1pA5maXytATCpCTCTGAKPPkuAMVZSbWxu7R8d/qv/+d/e2LhVFKUfBL1e76WXXvq93/u9Xq9n3tQD7tA6AJaHj1ki+54bBr6QoJRSAa2PJ+mGxyK9d0t5CqUQAIeM3agqGHgLkddtJgvNxMHIrDE/Bi/blOq7GEe+124k59d6hOu38/KVZsMc3t2+PoLQn5XNAKi15lrnSkkMAtfxHMd1HBM+eGgHCSHQUwlRqbSRCVrsNOMw0ACkRdmsxZO8PLsyKSnLCkIYLwmjnFMmuBSMS3M8WivOeZplQgigQRD6aV5EYXB42I/jqNtphUHYaNRNZgA7jue6juO4juO5nueZu9OuAnCcI3joARKllFBqkmZ7+wfvXL1+9cbGUX8AIYzj2HXd1dXVM2fO1Ov1JypFa7FYLJZHjVIawOnKOwy8VlJb74laGCShP86KhVYyzstRmhPG85IwIQtCuZAVZUorKZWDMUJQCJEXBUKIc15W1WA0atQbtVq8u7dfT2rNRiMI/HqSuI7j+77jYM/1MEa+7zsY+76HMXZdFx1LDN3P8H0UI2hi/5M0TdPsrXevTuv+OXddt9FoXLx48ezZs1EUmfGXD451ACyPAAgghLVa2KzXyCgfMK707flZieMArdG9vgxUa6zU60XxvdEIrS1cWGhePrv68sV1qbS+Z7fAo0FrHYdB4LkXzyx//bPPv/Xau//lxuY3ut0LgXYhvDuS70LY9TygNYTQ6P0TpQ4ZI5GbREEU+JHvaagf+qxyc0FxHdxpJEDrlW5TKk0ZJ4yP0qKkNC2qtKj643TrcHhzt783GO0ejQdp1meZEloqzfjYDFqf9j9B6Pu+57pJUgt8L4lj13WD0K9FcbNRr9eTdrPVbDQajfpit9NptZutRj2p1ZOaF4bgXlWH8PhA58/uPVWH7l6+z9qRlVJSyr2Dg+98789ff/PtP/zun1DKtNb1en19ff3zn//8b/zGbzQajRMSbxaLxWJ5tjG2xXUd18HrfnttoX351LLUOi8JoXyY5QWhozSvCHtnc3+UFe/c2h2k+a2DfkUYpVwIWVGaFjk86psOYIwxwigKQt/z6rU4CIIoCl3XTWpx6AeLvV6tFnU7nTiKVpYWa7V4eakXR1Gr1fJcx5kWoEIAp8YPTsOWJwzjgxpBMOc2QAi3d/c2t3d+/4++/cZb79zYuFUR6rruwsLCb/3Wbz333HOLi4tBEHygs2cdAMsjQAMAQBz4SRKKcc644MefbHhc1XfPvyukzIXYZWyT0su1cGmxU4sChJDS6mOO7poZgpHvL7Tqb/tegeAOZzfKaj3wG45zdy4CHb8ps50pNRGCATcOfN9zfc/hQj4Ksc3bs34hxBA6WjsIeY6DEWQ8aNSiktBOo9ZpJIvt5jDNB5NslJVpUWVlVVFWEsY4LytKhaBcKKWU1kqKIs9JhYuixBh7ruMHfi2KozCsJbVaHMVR3GrU67VaXIujKExqcej7nh84jhP6PsY4CKZBEYyw6001mBGACCMIEYQQYYSOpxYf30FmgiOY1hQBIYWUijGaZvm1Gxs3b22++ovXb21t53nh+36327106dKLL7549uzZRqPh+z54omUbLBaLxfJIOO6XgxBCjJEGAAIY+q7nYspFI44YF77n5RXpteppUR2O0pLSUVpQzrOKMsYryinnhHKltVRSS0GpGkuB89z1POyg0A881xuOx0EQNOpJ4AftVjMMg3arGQZ+kiS+50Vh4DqO5/mO67iu67uu6zoYO1NriE1bHTr2NBCEECMMjSGEEGMMIcQIGv0epZVSmjMulRoMh3le/Ohnr968tXlz49Zhf6ABjKLoypUrFy5cuHTp0vr6uuu6HzQEZh0Ay8NHAwAgaNfjpXZzsDOYcF4pSaV079+ZrgBAEO4z9mZRvJrnPy3yX1tZ+MrLVxY7TYQQBgBBqD6uGg/ztcQIdZrJpbWlnzRukMD7q6LoV/TvLXQbrvu+cv6llHuUchg2a1ES+kHga0If9dGbKimEoO85vlcDs4yDNjfTRxXlWul3NvcOR5Nb+/2jcXpz92iY5v1xVlE2yUvKxSQvuJTiniX1xwPWZwU/vu8b9eUoipYXe3EcLS+aoEgj8INWsx74QavZcBzH8zzXcVzHcT3X9zzHcRzX8VzXdRzP8xB0HMcBEGqppJSm1eng4Ojmrc3/x7/61weHR++8e41xrrVutloXL1785je/+Xf+zt/p9XqNRuPj+WBYLBaL5Yll2o6mQeA5ADi1MDAPAQCfvnhaH88dVgqUhO71Rwej9OrO/tEw2z4c9sfp/nBcVDQntKgooXyQ5fc3grdz1BACCGAcR81G0mw0Ou1Oq9FoNhrddqvRSJJa7Pt+q9kKfL8Wh67ruq47C5OFfoAw8lzPcR3f8xyMHccDAACIOGdKiTTLGGc/+Ku/vnlr6z/8wR++e+26FFJImSRJq9X6h//wH545c+YrX/lKvV7/EAIY1gGwPBIggFHgJ1F4CGGlFFOaae28X4DWQyjGuOu6q54/7o9fv7oJtJrkZa9VjwLPd12M7nAhNABKA6A/cPON1loDrbSe95fNLriQQqhRlg/T/OqtvY3dQzrOehB1MO46jvt+b2G6E61TKT0Eo8DzXAfgjyk2fSK7Ms23IHC7GAcA7QGtQa9V9z0n9N3lbmup3chK0p/khLJBmhPGR2lOmKgI5VJyIYVUTAgpFZdSCGV8AyEkAFppwDlXSk7SlBCqpPR9bzKZeL5Xi2LXc+Mw8jy3FkeO4/q+Z9b6nusGge86rvEEXNcJfN91Hc/1EEJSSiHlJMtIRba2d/cODnd399MsU1pFUZQkycWLF7/0pS9dvHix0+lEUWQD/xaLxWIBtytubps8eJwoP36K1hpo4LUbMXYQRHCp3VxdaI2zYpjlaVFlJckKUlI6yauKMi6ElIoKIY28nlJMCCU1FUIrJZQCGmgAGaVZjpTSnIk0zfr9wf5hHEVh4Puu48Zx7LlOFIWu43i+72AchoGDcRgEjuN4nu+6ThD4juNEga81gBAxxhjn/cGgrKpXX3t9Z29/NBpLqYIwdBzn+eefX1paunTp0tLSUhAEH07+zjoAlkdFM4l6reRdDCdCFEpWUob3z0+Zr2aIUNdx1j3vUhj+9c/f/fbr177xynPnVnp/72ufO73UDTwHOM50yQ/ATKlXA+BgPOcZvO9yEDoOdh3HcxxwR28uBC4GJZFSv31r7y9/+e6rVzd++OaNMxAtSXUK44tRFD/I1wxColVf8C6CvVocBh5wnMdVnq7n/jM/HIwgBGdXFwCEACEAoWl8TsdpxdjO0aio2N5gXJRkkOYlIf1xnpXV4STLCjJOy0lRTsqqIHSWBmGcAw4qcgQAuLX9XgfjYOx5fhgGYeDHURQEvu/7cRj6gR+Hoe95QRBijIUUjPH+cFAUxS/ffJsQQhk3e0iS+uXLl7/yla/803/6TxFC7Xb7sZxVi8VisTwVHBu/O6KEgeeudNsrPfjc+VNTUyi4EqI/yodpOUizSVEejrJJUYzToqJsf5hWlB0Mx3lFh5OiJCwtq/kXKQktCR0Mx+97PFEYuq6bJDXPdZJazXXdKAp934+jyPe8WhQBABBCZVURQrb39o8Gg53dPUqZ+XOMcZIkv/u7v3vx4sXf/u3f/ijK19YBsDwaIKiFQSOJFIKllEQpqt6vjl/rhuPAIPhio7Hk+1taHQHN++lbeYWUajaTF86tNWphI45dB2utAQQQQC6EBuBgOGFcSOgAF7xHr60GWgMlhDoYTFzPC10XGgdAAwBAxXheVnuDycZ+f2fvaGP7oJHTv91qnUG4q+ELtdqK54cI3UO69I6XAEBrpkGudcdxmrXId13wcbcwvA9aAyGkuaOB1lorDbiUQIN6FIWe53sO56KkjAlRlJQwnhNKGS8JI5QRzouKVpQRyinnJWWUi5IwIUReUi5lSaiQUiilFZj9SyEjrYwQxhgATRkVQlQVyfPC+GMYY8dxIEKm67eqiFE5wNgJQtVsNtfW1k6fPv25z33u7NmzCCGM8YMMO7RYLBaLZR6ttVAKyGMtawCElFIqDUDgu+1GLQ79Ri2ijFeUcSGzkjAu0qJiQpQVY1ykVcW4KCrChKwIm5pCJirKKOeUc8okE+YFpjUK2MEIIQc7CCGolRQizwuEUVmWCGPPdTHGnuNqCCAAQgguRJ4XjLI4ilzXa7Va9Xr95ZdfXl5efuGFF5aWljjnAADTR/chToJ1ACyPAK0hAM1a2G0mEqFciEoqghXQ+n7tv2Zry3FartvzPKbUz7PsalX951t7P82z165vuqH/u19+ZWWhdWF1sRYGUiuT5jOFKP1JxoQQCAL3vut/EwdXSnOl+pPc8V3fc01c3qxRh5P85t7hWxu73//lVVmSKs1/vdH8aqPxYq12JYp8hDyE3rf63/yaaj1Wes11Oo1a6Hvv7TM8Fo7rF2fnHvhJDABYaB1v00BprbTmQkqpmBRSKimlkEoqRShjXPTTIiuqg9FkUlT7/XFekp2jYVGxvcGoorSkXAKllKm5lEIKxahSWmutlFb6gXo6IIRBENTr9dXV1W984xuXL1/+5je/GUVRvV5/3KfQYrFYLE8rJ4wgRgi4IA7929s0AEALqZQGjAulFONCaiWEklIxKQlj4yzPSno0zkZpcThKh2l+OMpGWT7Oi3FWpiUxATYFlNaaMT59aFqN9YPKm/i+73ne6urqqVOnfud3fufKlSvnz5+P4xh8NOmLezgAs7pqoGcaRhbLB8B8pEPfq4UhcDBHqNKqUkq93yeVa62UGnKeSnkkxFhKDUGIHTMDePtwOEzzn797C2jgAI0hqDuOlAoAuH808isWBjh2HPc+ivsOhC6ECYARl2/98urNMHg7iSTQTGmuVaW0khoiOEjzWuATLpTjVEDvM9aixIVw0fMaGHsIvXcng9CaC1FpBRD0PaddrwWeCz6mGQYf7V9tPlGqzdQvrbWGAGKMPOAopDTGUmutdeC6UqooCCgXK90m5SKvCOMyLwkTIi8J5dMWAkK50V3mUhLGuZBMCMoEYYwLybjgQgophZRSKSm1kOJglFEugFYYO2fOnFlcXPzGN76xuLh45cqVhYWFKIo8z3vcZ8vyzPNkZe0sFsvHwCwhMC00Pu4vxBhBBD0ItdbKUUqDQMko8OLAo1wudZqEsoJQQkVBKOWcsGmenHEhhCwZk0KWlHEhKRdcyopQIVVJqJSKciGV5FJJqZRSJWXTZDvjYRhqrb/85S+fOnXqpZdeWl1dvXz5crfbNZL/HzEBbjMAlkcEDH0viQPgYoZhqXSp3isDYNBaC61zKQecp0IUUkqlHQ2klIyBG7uHXMg3N3bKitYA9CBc8n3T1+9A6EDoO36EsQPvXW2PIXQBqAHoc/nL195lSkEAuVa5kJVWQyHiKDi30oMQhr5n2mcrIfuMHTpOAFGIkA+ha4rm7xW71gBACIXWhZSV0gpCz/Pa9TjwXZNieLqAM3VRczrdezzhdvAEGunjqZujNZBSFVXFuBjnJWF8lBWE8qyiFWEFIVlF0qIqCS0JKwkjjBPGuBCUC0L5pCCMCw0Axvjs2bOXLl36vd/7vSRJbMW/5ePF+gAWyycaCCGGEADgYHS/J4C5iTfzD5gQQsisIISzSV5RxkZZWTGelRXlfJSWlPFRmlMh8pIwLkrKORdMiEGaDya51to4AFLKX/u1X/uVX/mVV155ZWlp6SG+O+sAWB4VCCKMsRf4QRQSrSopFQBgzqhqAJTWQmum9ViIPmcHnO8xfsDZQIjKd2jNX1rpLAZut9fyA7/XruclrdfCw/64vz9IAPxWr6cBCI4bbNeD4HQQtO81BxsCEGPc87xvtlqfimOptdBaKNUX/NUsT4H2IFhf6f63X/u8UjoM/P5gPBxOVFZmefVaRX+RTk6TqoXwiu83MV71/RjjpuOgmQLx8QtxrQecV1oBjHzPbdZi33WfwBKgj84dgZI7+4yB1koDx3EgRM0aFErVolBIxYUQQnEhmBSMC84ll9MkAGGcS8G5TIvqaJyVFRNSQ4QWFxcXFxeTJAmCQCllR31ZPkaevW+txWJ5mGg9b/z0id8hCAPfdV3sOY6QqpXUhJRMCKEUZVxKRRg34kJcCsIE40Jp/dbNnbdu7b27uTvJS8/zIIQLCwsrKysm6v8QO9+sA2B5NECAMMIYY9dFvse0ZsdNwLcjxxAihBylAqUOKL1RVK9m6Q/Hk+2q2hF8oduqdxpfWT51YW3x5fOnOkm80G4cjdOtwwFUqr8/TCD6x0tLRCkjzWk8gbrjePfp040R8jzvq40G1VprLbVGANwgJGdiR4kjwXqt+re+/nkmZD2Obuwe3trv/+zqrZ9d39zcHd3a738qCLrY+WyjcTYKG61WE2PXcQCEwGQ2wPTLL7WeCEG0hgh6npPEgec679s58Cxh/mkxBI7vQQDqcTjLEUzzP7Nbs10pIBVljAvJpTwaZb//Fz/bPhgqBRFCKysry8vLrVbLNvtaLBaL5WkBI+Rg4LsOmI7NgbdN4cwgQjituBWSC06YQBB+72dvIYTGWX51az/wfcd1FxcX19fXwzAED3XepXUALI8KjKDn4FY9WuzUB5y7WgqlOIRUKa5UodQR5z/LsomSm4wXUKcABJ3kzJnFrywvdDuNbrfZrNc6zaQWBUkUeq7je263mfzOVz67uXeKUA5z8q/29k6F4a83mwFCHkIuhB5C99PEQhC6ACSOE2oNACBK/clotMX565K1lzr//edfPLe+1KonQkrXwedXesvt5pVTy//NF18ejiZ5Ud3Y2B2N0sOj8WZR/bR/iJV+3vMbGD8Xxw2MO67rIdR0XaLUHiG5Uth14jBYbDUwQlp9EsVqTPWkVur2lrkf+nbQRGsNpFJaAxdhz8HYjEqEEGhdVVVVVVJKI3b2CTyNFovFYnkaOdbZA0BP7eDtWOAsh26eprXUSmntuI7rYNdxEIIAAKWVEJJzzhgzA+8fItYBsDwSIAAIQoxRGPhJHBbDMlXKVN1QpSqlRkJsUfqXk0lfyTcpgZ4LPPdc0Dzba59/7syL59aW2s12UnMcjDGc6f6HgffShVPtJP6jv/5lCSfv7I1ix4kxTjAO7l+db0AQIgASUyCkdaVUX4iRkkOgekn8hRcurC912s1EKQkBaCWxGUmrgB7nJeX8274ntvevl+VukWdVSSk7cvye6wYY91zXQygCoAkAVWrEOQUKYeR7bj0OuZAfdE7ZswS8czDZ3T8MHnSABghByrjrYGj+MY8TrGbG+yf5NFosFovlaWR+QOed5vCkEZRKuWEQBV7gOc5tgf+pEXzoB2YdAMujAmPkObhZixYayfb+uE/Fn4xGQusbVTWWclMKGHjO+sJiHF5qNRa6zfXlTqdZX+o2a2GQhL7nukorIYFStwdvQwBqob/cbf2jv/Gru3v9//f//EcOo380GJwLw88liXvcr/NeaG2OoS/E/zYc1Nv13/zSKxfPrFxYXWzWYymEKbDTWgEAlNJKaxOT/trLlz936czf+MynsqK6uXOQFtXNa1tVRf/DOPMK1RKqjtHnk/oh528UxTjyG0kcRwHCCL3vAAQLAEprBMFgUuwPJ5XRWlMaQdjtdlutlnmODf9bLBaL5ZnEKIRqrdOi2jrsT4oSAOB7flyrhWHouu5Db4GzDoDlUWFGNYW+l8ThrhCQ0ncIoVq9Q6qJ1ptQ1R3/UqdRbzcurC6eWupeOb3cqIXtZl0LeZwXO7lyxghFgY8RevnC6XoYZC7uI/B2VXoQvhDHAKH3dgCMvC1TapfSfcFvSn7Gcy6eWb24vrTYaYb+bV0tc4sxxAB4DgYQNmqxBrqsaEV4o14bZcVRUY7S4v/P3n8FSZalh5ngUVf6dS3CPbTISF1ZmVm6uqpaVRcaaGLABggbsIcEaRjaGG3WjA+7Y7t8Gts125cVZtzdMVuzHePDLIdYDpcEQBDANhrd6K5qVFdXd+ms1JmhdbhWVx6xDyfC0zMiUkdWRGaeDw0vj5vXr9973f3/z6+XXJcxakZBMoIW0Ro0WvIDYOuWZRi6BhFCatl6f0AAu77fdn3KGBcCQIAQchwnFouppb9CoVAonm4EEBAAP4waHS8IKQBA0/VYLKZpGsZ43/WgMgAUjwuMkEZIwrFyCefvfN/13LatxR27ODE+nnR+o5hPJmJTI0Xb0DMJxzL0uG0SgllE794zXwiBMRrIJoEAv/vNl7vV5ocXrnsCjFnWgK5PWNZdWu4wISpRVI6iv6xW1zl76fT0xFDh9eem8+mErt3RdthuayOEEARj24LHx0oRZaVssusFa5V6s9NdX6s0G53PZpebEbvZ6Yxl45OZpGNbz1T57yMhBMRovdZa3qx5fiiE0HXDtu1isZjL5Q765BQKhUKheIxACCPKYNdrtLuVesv1AwCA4zjDw8OJRMKyLGUAKJ4UIIQAI2jqum0Z5ShqBCENwwFojeZShULm7LGJdCJ2ZGgAI2SbuqwYlTnf9/yOY4Tijs0oOzExdB2C+TDMQFSOQhthCAC/s/3AAegyVo/oVbe7Jvir+UypkB0fzMctk+B7DNOWSUhYwwAQOSwwl4oHYbTZyFYa7UuGsbBRWZxdbHO6FAY5IGKWaejq9/UgQNhx/UbXpZQBAQjGmqbF43E571ChUCgUiqcYwUXAqR9EXT+IKAMAmKaZSCTkJGDG2P6+nVqgKB4Lci2tEXx8rFRIJ/73/80/QACePzbu2IZtmhrBpqFjhDSMIQRRxLaT/O8XFlFD17772vOTg3kAwMby5v/1ytwbTjynER2hvK7vcL0LABqUbkbRv9vYuBkEbCAzlLD/1//lbxqm5tgmlgXE94Hs+Uspl9eo66SYSeVTianBQhBF/+g7r9fb3ZvL67ZlGro2Vsw9m/1/HgLGORHgyvzK1YXVZtcDEBYKhcLAQC6XSyaT6h4qFAqF4mlFAIAR7PjB8kZ1ebO2WW8HESWEZLPZ6elpqQRVDYDiiUE2AkrEbISQAIMaxqePjJiGBgCSTSC3erw8bG8XglExk2x23OFSrtXxVgRbY3QjDNOalhECCtFLvpdv1GKsSulyFK1wmkjYiUxyfDAPERS3OlLe96VBCADQMAYQmtp2ebIQAOFWp2tZBoSQMZaMqRSg+4Uxzhirt7vVZieiFEJo23Y8Hrcsa997nynQqd+FAACAAElEQVQUCoVCcYgQAgAQRrTabLc93wtCLoCmabZtp9NpXdfBY2iDoQwAxeNCAIAQGsyluAATpTwAACEURQxCLqdgPOJ3GULEhShlU7/9+vliOrnRbHn1zv9xdu53Bgrfy2YNhOK9LlpCQAD+qly+FgYLOgLZ9A9+883RUo5xhgB66B+VrA3YepT/oczQtOmhAXl9CEGuDID7o9bqUMauLqxeWVhx/YAQMjQ8PD4+nsvlUqnUQZ+dQqFQKBSPC84FY6LW6vz6yszc6mal0Uomk9lsYnBw8OjRo7ZtP443VQaA4vFCMJbecgD22RsOIYAQ6hpJxu1CJjkxNNCA6NLi+gZjy76fNwwbIRmFaFLqc75K6abgsXTSyiSLuVQxm0Lo4Vf/u09GdqtHAGh4K06n1v73gxACQNjx/K4XNNrdVtcTAOq6nslk8vm8YRiapqkUIIVCoVA8rXDBGRUdz18pN1pdjzGu6XoymUwmk5lMRtO0x/GmygBQPHYEeFxrYSGERjAheHqk9A+/8/qHn1197+r8RRp2y+VvZTLZRAJCaED4ebe74PufBF7D1P6LcyemJwaPDBczCecxLSvVuv9BEUKslBtLm9XF9cp6tUk0PZlMHjt27MSJE47jyOinQqFQKBRPHxCCiHI3CFfKjQ8v3ux4vgAglUpNTExMTk5OT0/3BmLu7/sqA0DxZAMhRBA6tjGUzxQL6cHBHI3YXLW9RqPNKCIQxjFeDILrvg8dK5mMjZTy46W8Y5mGpj1w7r/iMUAZp5xVmu2F9UrHC8KIxRwjkUgMDAwUi8XH0fxYoVAoFIpDAwwjWm60yo3Weq0BIQIAJBLJ0dHRTCZjGAal9HG8qzIAFE88QghD1wyNnD02/t//k9/5q/c//dN3P7a63VoQxjAe0LQ/r1Y/73b/0fe/OTU+9Oa544O5lAAPXvmreAwIAbp+4PrBJ9fmfvLRpVqrAyDIFwoTExPnzp07ffo0IUpGKRQKheKpBWHU6HR//tmVT6/OVpodjBAA4Pjx49///venpqaEEPve/0dyF+WqvG6KJwYEIUIoZhmlXCqfS+UKaZ/BBT+MYdRmLDQ1S3MG8unBQtqxTU3T6H7301U8HEKIZtct19vlervabEeMY4zz+XypVIrH46ZpHvQJKp5llI9AsQd97R8AVJPeFY8GYzyirNF2F9Yr5Uabc24YhmGamUxmYGAgFos9vhj4HgYABBBBBCAUygZQPDlwIdLx2EA25UXRUCHz5z/79f/46y9thGEQvf762XeGB95+5czU8IDggjGmvtmHAQQhwvDSzPIHX17/5Ors4noFAGCa5je+8Y3z588PDAwghB62SaxC8WjAnhMMKktA0Q9GEEIEEAIACkoFeOhe1opnHYxQ1w8qjfaXM0v/7m8+6PgBACCTTpcGB0+fPv3cc89xLocOPZY1y93C60JFARRPFhByzh3LKGWTU0MDm5MNyLjfcaeGByZGi7pGGGMIPpZQmuKBEAIgCFqu53rBcrm2sF7xgghCmM1ms9lsqVTK5/O418VVoVAoDgcCgFbXC0Lacb0gosOFjEbIPQfJKxS74VxwTuvt7uX5lfn1csQ4QpgQUhocPHPmTC6X45w/VttS5dcqnh4wQkKA0YHc6ECu4waQ4Ga7u7xZe+vFk+ePjccsEyO1pjwkCIRwpdle2ax9fHX2Z59e7vqhEGJqampsbOyFF144fvy4nP+l1KpCoTgkQAgFF9Vmp9rsXFtYrTbbv/uNl1LxGEaqVbHiwYAQcsE442vlxl9/eOHqwmq53jItS9f1U6dO/e7v/u709PRjSv3voQwAxdMGRhhCODqQDSLa7rojA9nBXDpmGkR5lA8HEMIwomFEF9Yql2aXVzbrXS/QDNPi4MSJE0eOHEmlUoZhPG7Zp1AoFA9EGNGQsitzK3Or5Znl9WqzdXS0NJBJHh8fNJS8UjwIQgg/jBbXqzMrG3Orm5u1lgAiHo+PjIyMj48PDQ0lEonHfQ7KAFA8bSAEAQCnJoePjw16QeQGQTbhmIauhvIeEiAEfhhRyi7cWPybX395Y3Gt7fqlRMowrbfeeuv06dP5fF7TNJVWq1AoDg8IQsqY6wfvfnb5FxduLK6Vq612PpueGipMjwwgXakYxf0ihEAIekH468szl2aXv7ix0Or6nItsNvv1r3/9zJkzR48e/Qo64CkDQPF0giCCGBo6gAjKbHIVoD0MMM4BxBu15szy+s3ljZVyvRtEMusxk8kMDg7m83k5+UuF1BUKxSGBMoYgvLG0sVap1zfrsO2NITJix1aXN2gQzixv5lKJbNLRNbWmUtwDAQDjvNzoLG/WPrs2v7BR6XoBxCSTyQwNDT3//PPFYpEQ8hXEwNWXVfF0ghAEANoEx4DOhVDu5EMChBDb5lq1/pcffPbZtYVLc8sAAsb42NjYqVOnpqenx8bG1IelUCgODxBCAKFmGp9cm//k6uzVm0u19crrmfRQzPl/f3pFT8Reee7oxFCUT8exRlj0WGY2KZ4aCEaA83qru7he+U8//7jr+42OF4vFErY9MjLyve99j1IqvWCP/UwO+lYoFI8RtfA/PMjPYqPW3JxZ+vWl2V9dnGl0XIxxsVTMZLIvv/zySy+95DiOEEL5/hUKxSGBcy4AnFle36y3L9+YX1xYfdW0s0ODk7aVIdoKo66Of/nZlcWNiqlrhUwyn4ojmYeqUOyCMV5vd5sd90/f+2hhveKHEYQ4ZtuTk5PvvPPO6dOndV3/ysZfKgNAoVB8FUhLrNrqfHpt7qOrs5/dWCAYMyFyufz09PRLL7307W9/O4oiVfurUCgOD5wDCMTCevWT6/OfXpmdm1v5B+MTbxQyBV1PEnLTdZdo9JcfXxocLkyPFAUA2aSj2k0o7gTjvNV116uNv3j/07Vqs9rq6LpuWdbw8PD3v/99OfnrK/NbKgNAoVA8XqRTv9HurlUbn12b/+sPL8wsbyAIU+lUPJ549dVXX3311aGhIc65Wv0rFIrDA4Sg0mxv1tuXby5++PnVSQ5PZLKTlpkhhEDIOH8pkRih0ZUwgB3/l59fXa00iulkzDLiMUuFnxX9cCFcL6i1u+99dnVutVyut70gNAxjaGjw3Lnz586dGxwcjMfjX+UpKQNAoVA8XqQibHa92ZXNi7NL7316JaKMC+E48cHBweeff/6b3/xmMplUc38VCsUhA9bb3ZmVjRtzqx9fnPmvi8UT8fiEbmR1XQqrs46zGUV/tVmutLxPL89WOu63XzgFIUg6FhWq84RiCwiAEKLrB+VG69eXZ68urK7XGlQA0zALhYHXXnvt5MmTw8PDWw1LvqokWGUAKJ4GZJWvAPe7fEQQqkTzrwAhBEKo7fqrlfqXM8t/+/GXN5c33SCw7FhaN86fP3/+/Pnjx48nk0nV+UehUNw/QgjpR2CcIwgJxhBBtC1CHlGSyFHlHS9w/eDizcWffHRRbNZfjTlnLPukaSYwBkIAACAAEEIboW+nMws0eq/bba/XfvThF6Ol/N//+osRpRohjy7RZPWUEEAIweXsKC50jWhEpRo9AQgAIAB+SF0/+Oknl28urX85s7hSrgsAE/H4uXPnTp48+cILLwwNDSH0Vc+TVgaA4mmAYAxk3cz9/HwEAJQKIVTb5scNhBAZOup6XT9Y3Kj8/LOrlWbb9UOINULI6OjoK6+8Mj4+Ho/Hle9foVA8CBBBiBGMOTaAAMhFOeOAC8D5I4p3BAEiGCEIEVzYqPzo40sv6EYJoUldP7Wdoi1VDQbAxvjlRDzmuj9c3+j44S8vz3Qp/b1ETG91IYTg0UQbghBiBFDf/8KIUwaAeMQj33Yr4VaRlpLC+w6GEEBoWwYX/NLs8mfX568urlUbbQCAabGRkZHJycnTp0/LGLgyABSKB0BK+fVy7drCWhBFbhgiAO8kxSCEBCNT006MDzm2Ebetgz79pxbpr/KCcGlh9cuZpf/xz39aa3Y26y1EtFgs9tZbb73zzjvPPffc6dOnZeefgz5fhULxxAAh9IPw+tJaud76tz96P+nExkr5Qio+OVRIOnYuGbcMPR4zBX+YlmIIwq4X+GH0/oVr7312pbW0eZ5ovxFPvOnEC7rOAUC3HxMDkNG0k7b9346OzLPoP88sX3D9f/MnPx7JZV46OaUR9BBD6CGEnHMueNuPWl233u6WG+359crM8gaCCALwm689//rzx2gU4Uerm4IAUMaFENIIwF/5GvSpp9lxBQD/4ae/ml3Z/Jtff7laqftB5DjOuXPnJiYm/vk//+epVMq2bXgQWQnKAFA82ci1Y9v15lY33SBouT66069IAIigRnDMNIYLGY3guH3QZ//0IoRgnAdhtF5pzCxvvPfpFQAh5zwe10zTHBkZeeONNwYGBgYGBg76TBUKxZOEzM9hnFebncWN6l/94vOBTPL05PBYKa9h5KcTpkYABDHL4Jz3rY/va30lBAAIhJR2PH9hrfyrSzfzXpSmbIxop+NxxhjedRQMoUOIBuFZx9Hdbqtc50J8fn0BMPH89BiCBGN8n5HpW/8vBOOcce4HYaPdXa82FjeqF24ufnx1TicEQfT89CiEkHOBH3b9L8TWA2WMcyHNGgSRWv/vF3Jx4gUhF+Dz6wsX55avL611vUDTtJhhjY+PHz169IUXXsAPbh/uF8oAUDzBQAg4FwCAxY3aX/zis6jr0ZYb10gMod0u5YALCkENCsuxJwbzCMFs0lHejv1HAACBG4Q3l9eXN2v/5ofvb9QaGCFd14munzp16s0333zppZeOHTsGIVRd/xUKxQMiAIBciK7nu14Q13UrpNZKZWm9dvHizVjCSWcSowPZyeGBUiY5mE/nU4lM3BGCS4Fz92gj5xwjvLRZ+4sPPlueXxP1zinb+XYpPW6anPM7n5HAEBY0jVn2Hw4NriP41x9dol6YTTljpfzxsUFxr+xUCIGMXTPOvSC8srDWaLtza5vr1cbN5c2g4waNNg+jtBcEMZPHLD+MOl0PAqBr5CEiqBBCjFG51ux4wcdXZyv11pGRYjYVnxzMJ2M240JJ5UfH9UM3CH/26ZUbi+sfXZ1Z3qwzLmKx2KlTpwYHB3/wgx8Ui0XGGADgq0/+kSgDQPFEI2vrQcf159bKsOsZLQ/rmqVpbFcHBp8xH4hlRknC7rh+ENF7CmXFgyIVWBTRVsddWCvPrZUv3Fx0/YAKYet6NpsdGRk5e/bs1NSUzPtXq3+FQvHAQMA594LI8wMRUciBA/2AsUoYNmOtWr0VdL0ojDzXZ4wJJhCAGCONYIQQgjIWsLfsiRgLI1pttC/PLvN62/DDgRg8EYvFMEYQ3mWhTSB0CMkLcdyycRRW12qbm9XZ5U3L0CcH8xjtnQgk1+5yVj1jnDLuBUHb9edWNuvN9vXFtc1qY35pE/oB6XoWwnEAfYxcgv0w8sNQ1wh8wMR9+V6UcgDEZr1Va3Wuza+uVxoY4yCipWwqHhPblauKh4RzwQVvdLq1VvfG8vrnN+eXN+uVRtswjHg8PjY2NjExceLEiXQ6/dVM/L0TygBQPA1gBAlCg5b1vGZPxewTtk37nCIQAiHAehBsMvYfmvUGIQQhJd8eB5zzjud/dn1+brX8//vgs5VKY73awITEHefEiRNvvfXW6dOnv/a1r8VisYM+U4XinigZcUgRAjAuGh230/UyEJ20rH9aKrmcVyitCrZE6eZK9VfLGxdsC1lGqZDJpRInJ4eGC5nhQjZum6ahEyS9rrc+YrnmbbS7X8wsXbo698WFG28mEm9kc2cdJ00IhhAIAe91WhZC5+PxRBC8E0+wavs//exXjVZ3MJdJxe2BTJIxdts7CkAZY5x33KDj+bMrm+VG68L1+VbHXVgt65QTL8hD9H3dTJuxkZzWZpQz/kPq/zoI267XaHczCQdCKO7PYS81oh9EbhDOLG8srJUv3Fi4ubS+uVl3PX+z3iwVMqVcKh6zdIKxcs08FEIICEHL9Tpe8KNfXfjw4s0r8yuL65W262u6fvLUqfHx8d/93d+dnJzMZDKmaR7s2SoDQPH04CA0aujTlnXOccLbhbUAIEVIPAqdNm5u63Ul4fYR2Yk1jGjXCxY3qjeW17+cWd6stzqeH4vFkklnYGDg5MmT09PTw8PDW200lI5RHF7kl1OVpx9GBACMCy8MgyC0IcxhfNJxIsZajC35vghp0/VqrSYnxMWgUm+lko6hYQhAzDSk1DE0jWAEEULbbUMFF0yIrh/MrZVXN2v1ct0yrWNJp6TrFsb3mWajQVjQ9S7nk5o+7wWzm80jw8Vqs60RJESCA4B7bT25EEIEEaWUyTLfxbXKymbtsyuz7Y5brTRTCBUAtC17Opkc0I3jtr0ZRT7nv2hHYRiEEfX8kDkcQHBPh708d8a5AMINwlbHXS3Xri+sXp1dujK7TL2QUYZ14ke02XGDMNIeurDgmYdxIYDoekG91bmxtP7x1dmNarNcb+m6blpWqVQaHx8/fvz4xMSEbdsHmP0vUQaA4mkAAgCBQBBpEOoIYoSMXQaAAaG+VeGkGp7tNwI0O15A6Z//3SeLa5W/+uDzzVqz2XUBQul0+vjx47//+78/NTX12muv2batMn8UCsVDIwSIQuoFQaXVbXTcMcMY0HUCgIaxgXFG0044zvc49zhbCcO1KLrm+3Pr9Q/WfvVDzvRU3IxZL52cLOXTR4YLKSc2VszphMRjZrPj3lzeuHhj8V//6d8eQeS/m5x4zom9Fk9Ii0E29LzHmUGIAAAQFnX9nw4NftzpCM6782v/5//5P7/98nO//+1XTV1LJWL1Zqft+euVRrvrfXpzoVxvXbgy53U9M4gsAU4QLYONNyanbIRKmm5AaCGEIdQRKkCIADCbwHeDZtvbbLQzyTi4lyyFCEYRDYJouVxfWC9/cmXuVxdvsnbHbXSft6yvZ/J5THQI/0O1Mtde+eTLG+Vm57dfP2toGrtLzYNiF4xzjNDiRmVubfPdT658eOnm4np1rVpHiBBNe/mVV4aGhv7oj/5oeno6k8lYlnUYxt4rA0Dx9IAAxAhqEJG9ZKIGIYFQ5n+q5ee+INtIMC4Y4/V2t+sHcyubC2vlpY1qo9PVCDENPZfLlUql6enpkZGRfD5/0KesUCiebAQQnHNKuR9GQRjFMbYR1uB2/xoIAQAZIQAAOoCGAA3h1yJWcz3X99tegC1jNRXnlFoa6XpBzDAMXQMA1NvdtUpjvVJf2awVY7FsOiMdRoEQPqUEQgTArXfZeUqACxFyzoUQEERc2BibEFoCNrrenNddKdcqjbZtGgSjSrPd7Lir5Xqr7a6ulcu11ubqJnWDLIAxTLKJxACCR3TDRKig62Bny1FIAOCcRxH1gpDfa43OhaAhc/2g2e5u1hrLG9W19fL66qYVRNANUsQYMcmgrhsYx5mAQVirtZBphJTpjAOgPDX3hQzphBGljJcb7cX1yuzK5o3F9abreyFNJmK6aQ4NDY2Pj4+Pjw8PDyOEDsPqHygDQPE0IVuoie1WajsiAEI5/fcbjKAQsNHptF3/3/7o/Uuzyx9emml23I7r6bo+MjIifR5DQ0NvvPEGQkj5/hUKxaMg2z74UeQGQb3VaXfcadPM6ZrYju3C7WQdAcCQYQwaxnOOEwmxHARNRm/6fjmKPv7y5nVG/0rTqIaPjg46tnF8vFRutD+9Ol+rt9quN8/4zwX8Oaj/Kdmq/T0Wiw0Zxovx+KBh7AgFMCG6nG+E4S+azXIUrfsBFRwI0KC0EoXLUXTd9yD4fGmzNpBOFDPJSwura9VGo9pqddzjhKQg+m9S2XxeGzPMJMYFXdch1CCEsua4f+gYhBghUwiT0dD3qs1ORBmAcM8EICEAxrDe7F5bXJtZ2fjJR5cq1cbFuZUXTet7mnEinj5u23lNy2kaAyDg/I10Ou25Fy/dLF+++Vuvnsml4inHvnvdswIAINv3I4Rmltffv3D9oyuzP/rwCzcIq82Opum2Zb311pvT09O/93u/Nz4+nkqlDjztpx9lACieFaBK+t8/pM/D80I/jGZXNjdqzfm18nK51vUDJkQymUokEydOnBgeHh4bG8tmswde7aRQKJ4GIBQAMMYjymQEIIGxjRDcGmUFwLach9sTuxBCJgBZQgwIPcJNADcwwYwvhNSldKNWb3tmwrFaXY8yhgnOJuMxXWMxkwvQRTCMqBtEqSgyEAo5B3t5l5gQHufrQbBJaRUDAbGpEUoJYZodhSkNIYzargcB8MNos9xoNFuGHxY4GEYkh/Gwpmc1LUeIg3EM4zsty+SbagCYAnLK3TC8a5aOgBAFYbRRa25UGhubNeQGYwCNYjKhG4O6ntO0OMYGQhwACEBR19rcuBkGAaOrm7WIsZhpQA2qUq27IGc1uF7Qcr2byxvXFtaWN2v1josg1jS9VCrlcrmjR48eOXIkn8/H43FN0w7V7VQGgEKheDAgAFwAAMFqub5aafzZzz/65Nrs/Gql2uwwLuxY7NTpU0eOHPmDP/iD4eHh8fFxQpScUSgU+4MQwg+jrhfUW123442YTk7T5Op/z7WVNAMKup4TYtgwQiFO2/Z6FP5NvbEcBO/NrUKd1JptQ9dilpFwrJFSnkAQIQQACCBcLdfm1rs4xD6lr8Tje5wPAAHn9Si60G5vQCDyKd3QCum4YNwCYIjzPONeGDU77uJGtesFwA1IRN/KZJ/LpZ6LOXlNSxKiQ4ghRACge5X0xiDKIiSCqNLsBBEFAoi9XiAAABA1Ou4HF2+srWzOXl/4eir1u0PDBU2bNE0DQh0h6YtGAOgQvhiPj5vmZ2urC93uzz6+VBrIljIpjNFBtag//EAIKGVdP7g8t/Le51cvz638/PMrfhi1O148kUilUu+8885bb7114sSJ8fFx27Z1XT9sd1IpZoVC8QBwLhCCja7b9YIby+vzq+Wbyxvza5W2F0RcFPL5TCZz6tSpI0eOjI+PFwqFWCx22KSeQqF4ghEyAkDDIIpCGosR8/YIwA7kVgQhgtBnLOS8w1ib8QhBoeFMMqaZxmgxF7OMbCKuadjU9V7aDYTQB2Kh0eYYeRHjdzwjwIRwGY90nM8lYzF7aqhAGUNy9BgXHc93g2C92qw1uy5qs65PEegw7nMeci6DFeT+BKUBURxhwVjH9ymlgPO9LQAAABAYoZhpGrrmUwoBSCCUxDhNyI69IYQJQgQARYyHiLa8UY2AqHe6GCPHMiFWiUA7YZyHEa23ugvrlWuLa5fnVubXyrVmRzcMJ5EYHh4uFArHjh2bnp4ulUrpdBocyq53ygBQKBT3C4RQAIE1cmNx7cLNxZ98dPHCzcVyo91yPcuybcv6xje+MT4+/oMf/KBUKjmOo3z/CoVifxFCBFHkB4HvepHrZ/LEwfiezXACzrkQl113LQj+olyeC4O2bQhD/61Xzg4VMt/72nnb1G3TwOi2lHqM0J+9+5EXRLm2L8rNO73HdstYkYnbf+/1s4OF7NfPn4yiCG5XJjDGNYyuLa6vVxs//vWXX84s/nKz/teV6m+k0sOa/k42U9C0jK4b97FGTBI8qOsipBv1luuHUcT2bFEKARSc51Lx33z1zBdJ54cfX/Ix2vCDOEJgV5ABAqAjlCTkG8nUcTv2f78ym6zU33j+mDcQTY8UNXK/XVCfBSAACKOIsdVK/erC6r/961+slOsXZxcjyoKI5geKxWLxN3/zN998882pqamRkZFDuO7vodSzQqG4B1vjKrlgnDc7bsjozeWNq/Ora9VGrd2lAmiaPjQ0FI/Hjx49Ojo6ms1m4/E4IeSQ9DpQKBRPB3LwbcRYRJlgHHIu27vd84Ue5yHnc563HIauoWm2NlLIGDH7yEhxIJPMJGKmrpm6BhG8rVkEQoauYYQhROJeXSSEAAhCU9dMQzdtUw9xr2UQ5wJhlE/HEYRHRgYixtY0zbCNRsg5DReCIOTcJoRgjO5RqyZMhByMPcZdP6CUMc7Bng56CIAAGsYpx04nnWIuBbE273t5U+dCwNuXpb0i45ymIQjNiEEvWNmo6oSMl3KGRtRkYFmQzYVgjPvdqNX1rsyv3FjeWNqs1ZodP6S6YeTiydHR0ePHj09OTg4NDaVSKU3TDvrE74YyABQKxd2AACCMIUaCMsTg1YWVn3165d1PL//882sIQi4EIcQwjL//9//+888//53vfCedTmOMD7PbQ6FQPLkIIfwg8vwI+SEJqYmxfldHg1y8znreWhj+PxaX5ln05svPnRstfu/V50cHssOFLMZIcC5beQJ222IaA8C54PfXQw5uTyjjnAPGGeMC3RKDlLHhQmZkIHdsrOQG4YWZpY1q8//5Zz+ZXVq/7vmTmvbPh4YmTNPGmNwll0mAJCFDpjkT0s1au+v7YRQRgvfcmQthm/rkYCEIo7dfeW59Yf3/9ssv/ncaeSuZ2vP4GMLjts0BmFxZ7bT9v/7FFyemR88dHU/GEGXsnjGWpxuMIAQIaMR3vRtL67Mrm/+Xf/dXtWZnfq0sd8gXBs6dO/f222//4R/+IYQwlUod9CnfG2UAKBSKO8K5YIK7HbfZdTdrzeXN+qX5lctzK82ubxl6LOZgTTt69Ojg4KDs+QMhjKJI1Y0pFIp9R84PF0K0Pd/1fANChJEG4d3XMVISpQkhEI6ZJmMYMx6FEQACQBhEkcYxvsvs2wecGwP3eLb1F+MCCBoxRhlDEOgEGxBaEE5a5oSmxwkx7iNmaiAUxxgw1g1DGQHAAMM7GyhCCNvUj42UkBcmk04dws/bnaKhF3V9t19fFi2cdGJVBC+3OvVqY2m9QhkvpOP3Oq+nFs6FAKDt+l4QLm/Wyo3WFzcW1ioN1ws4AJZlJpOpfD5/9OjRV1999ciRI5xzQgjnHEJ4yPWgMgAUCsXeIAg5FIKDcqN9dWH115dnfvLRxY1ac2mzihCilOcHnIGBgd/7vd97/fXXJyYmcrmc6vSvUCgeF2JrGV1tderNdgwAA2ETQR2iewqdvK4PQFA09BYFGkaY4IFMcriQFhyge796f5AjhWOmYRn6YC4dt01d1wQAY6Y5pulJQgx872z7OMYDug4iv9LueEEUMkYEAXewABBCGIN8OvEbrzwnKKOfXJoT7Cf12mvJZNEwOOcY3mawWAgJAL6dycwHwY9nZr0wujS77EV0IJOAED6DlQBwa7IcaHXcjXrzT9796ObyxodfXq+1u14Q6bpuGPr4+PjXv/71F1544Xvf+x7G2DCMgz7r+0UZAAqF4jaklI8o67h+0/UW1isLa+VPr83PrZU3as2OHwgBCoVCKpU+ffr05OTk8ePHBwYGVKd/hULxmBEAAiF4u+u1Xc+EyCZYgxBv19rK9emeTnQdQgThSTtmUu1ms7OI0epm3TaNgXTyK85vlw1kljZry5tV4AVJDiZNc0LTDQjBnVfYvX/QIDQhhIxHfhBRGlFZBHznGIAABJOkbQ/m0y8cG8fV9uXl8pBhnAxDHaEYxrvjAAOaFgpxxLYAF9fnVwLGnpsa1gg29spol1EIGfXF6LD7vO8fIUBEKeVstdzoeMEXN+Y3as0vbiysV5sdPxAAJhOJXD5//Pjxo0ePvvjiixMTE7quH/RZPxjKAFAoFLch45YRYxv15uJG9Ue/unBzeePdTy8zzoOQYoyEEIODQydPnnznnXfOnj3ba3MGDmWnM4VC8RQBORf1drfZ6toIJTDRINK2hwBsSZ+9WoIaCEEIX0smhsPw482N9Wbz5so6IiiXjBOCvkrXNmXMD8Mbi2ufXJ/nbTfFxPN2bMwwtDuNMpDbt0/RgNDGGEQscIMopBFl4K5nLwAwNKKZ+uRQ4dsvnvz1ry69f/HGsK6fdZycpsUI2f3yUdPUEDobj68K8Osvb6w1O7/12vOmoZu63h8EgBAgCAPBI8YQFxBCSDAh8CmIE8hBzIwzL4guzi6tlOt/+u5HG7Xm/GrZjyIAgKZpyVRqamrq93//98fGxs6fP2+a5hNX/KYMAIVCAQAAXAghBKW86/lLm9XNeuvLmaW1avPCzaVqsyMENEzLievFYjGfz7/wwguy2X82m7Us69mMDisUiq8aCDgXrY7X6noGgDbGEIAuY+UoajG2EYYZQo5Ylg6hhfHtrwNAiJymcQhHMeFMLC1vhpSfHBviwjC0++zCvw/UW91Ko72yXplf2jhKtEQiEceI7MoXl475NqXrURRy3oyiAcMo6XooBIEQC4Epi6LIC0Mu7HvcMwgE54mYfWJsaHF+3ckkmwR91umcdZysrgsh8O1vDSG0EHrecWIsut5x67XmpdnlfDqRcmKUcQQh40wIUGt1Gu1updltu96R4YF8OokRJADfT8H0IUT2+WFcCCHartf1gquLq6vl+hc3FzdqzdVKveMFRNeTsdhAoZBOp1944YWRkZETJ06kUinDMJ641T9QBoBCoZCaBxMMANBN3HG9T6/NXZ5f+YtffF5ttOvtrtyNcq7rxrFjx955551z586dP38eANDr9P/EyT6FQvEkwoWod7qtjjuFURagpK7Xg2DJ82563rv1xpm4M2GaEQDWXhk1JdNMUjoKcCsILt9cvllp/M6bLxiG9pUlAUEIO16wUW9dWVj9xcUb35+aOpVNJDHZ3flHFgx0GbvpurUoutBqv5PLTliWjXESCFMIFDEaUT+i/F7OFwihoCybig8NZL+8sQgcczXiH9Qbg4ZxEsJoVyUAACBOyDfTaafT/jerq1XOPrs+f3Rs8NyJKQgAIkgDBBDcXq9cXlj78ubi/Fr5977xsm0aGkEm0PiT2TMUIwghJggCguvtbr3l/uiXF96/cG1hvVputHtWTTKZnJ6enpqa+mf/7J+lUqmRkZGDPvGHRxkACsUzjRAijChlfGmz2u56H12Z3ag3P706X2m0O66HME4mEvlCfmRkdGJi4sSJE2NjY1NTU7lcLooijLGq+lUoFF8hkHPeaHUrjXYmYhHj/5+1tQpjV6KwyegqEhoN/7JaPRGLvaRpbJdvW8qrl1LJTBj8vN4qd90vrs/ns8mzR8YwfuxyjDEuAPj06uwnl2ftlvtGIjFuGEOGgfcSoSHnVIjrvveX9VoXiCoB7Vbzl91ujpA0xrWImhg1O+56pTGcTcF7ed1lPIFSOj1S/HtvnF+9sXTpytzZMBhx3aympXY1H4IAaBAWNP2ddKam408uzXh+eO7oeNf1uRAr5drCWnl2ZfPK3ErMNjHGhCDb1DFCT+LEABm+bnY81w9nVzdXyvXLc8tyxO9mvQUgijt2NptLJJMvvvji4ODgc889l8vlMpmMaZqMMQjhEzrxRhkAiicVGbB7uFijfJVavEIABIRMiJDShbXyWq3xx3/zQaXZnllel3dW0/VEPF4sll555ZUXXnjhm9/8puM4T1CXA4VC8VQBAeei0erWWl0Pa5Txv6xUKoJ/ziMBAADQAwJG3Mb4pWSSA4B3vhpoED7vOOlA+5v5+WUa3lha9yJ6ZmoU75qPu98nDgQQQojLcyt/99mV41QcI9qEbkxY1p56jAEQcL4YBD9pNjwEI9u44HeEH309mTxj211GTQi7rl9ptBnj4J4WAAAYYYLR+GABIPgXzc4Xn11+IwqXfT8m5yjffg4YQkJISddfjjk3afSvr8wKADaqjVqrG1H26bW5dz+7vLJRu7m6+fzkyEgxx7jQNYKeTH0q+3V6QVRvdy7cXPz15dlfX565trjGOQcAaJqGMc4XCiMjI7/zO78zNTV17Nixp2PI/R2u4b6mXigUXzU7pAuEEAIo4J7/eLfDyN5eW216bxd8z9QXv9rutrrexZmltUr9V5dmNuvNlXLVD6lONMM0h4aHC4XC+fPnx8bGXnzxxWw2K7scSHX1jNtOCoXiK0YOJA8pa7v+Zse9gLCB0dhgvpRwXp4eDkLa9gKv0rx0eXY6tDd9n0CY2dW4BgIQwzinac/H4yka/urC9bVq863nj8UsU9cfVyWAEAJrZGm1vFFtbKxXw1Z3NJ48kXbihMhUn/6dOQAIgGoUfdxuz9AokYofL+VeO3+qXK512m5rvfpepb4S+OthWO642WabcgbvxwKAQHDhWEYpmxofKpw/Olbx2V9WqlnDKOo6F2Ln8l0IA6EpyxIBKgHoVRr/4d2POu2u6was7Q67EYFI6EYhZjsxM2bopqYJIMCTUwwGIZQtjNarzeVy7fri2uX5lRuL6zMrG9VmW8PITiR0wzhz5rlcLv+1r32tUCgcO3YslUoxxmTXoyddCT4NRoziGUEIwW/fAoXgggshl6T3K3eEEFwIzgXnQoAdh5R9f5/sX/W9rh8ICOTFN1rdjVrz06tz15fWP7x0s9xouX4IEdIIceLxiYmJ8fHxt99+u1QqnT17Fjz1d0ahUBxuBBeUsa4fNL0g0IhpaMWkUxrMf/PF064fVBudazcXf/jFlRVK14MgpeuZXUdAEMYxFgBMmSYJ4Z/fXPIi2nZ9jLGm4cc071YIARAq11vXFteqlUbY7BaTmTOOE5czE3c4oYQQCDUo/aLdWdGg7ljDQwO/+drzV+ZXNuqtvwuCS+ubLmNtCJqe3+y4jN2X7oMACCFilqlp2mA+Mz5SbMytfdls/U6xQIUAt7dPlXfBQGjMNAPBk4x7tdbPP7sauG6n7Y5gcpLoXsSyhDg6MQ1d14hOSHSfp3IIkG6skNIwpGvVxsWZpc+uz3/w5Y1yo71Zb8qsHjsWS6VSZ848Pzk5+fbbb2cyGTnn/qDPfd9QBoDiyYAyfmV+pesHfhAyziGAAggEYUSZAODizFLXDSKiQ/Nu2SlCCM6ZH/BLs8vlVnej2uytaAUQBGGEUTbpDObSukZs4wnr6XvXCwcCCMY5Y9z1Qy7EpdmltWrj8tzKaqV+Y2m90mi3vQBhksslstns+fPnh4eHz58/n8vlpqambNt+9HNQKBSKRwEC0HY9LwjzqfjxsdKLJyYy8dhLJ4+k4vb0cDGMqF+KsBBHRge7AP1lpfK1TDqnaRqE2u3LegyhidBzjlOMjJ91OqzZfe+zy2Ol/MsnpyxD33c3BwSg4wXA9b+4ufB3X1xLBdGb6dRRyxrUdR0hIMSO94uEWHHdG773abedGi5868z0sfGhoUJGJ8QPw1Im+crJqWsLqzcW1+KO3fECcf/OLwAIRgjC8cHCt86feN8NLi5vXA18LMC0ZWU1DdweSccA2BgXdOMb6cwmZx+3uqc0fSKbLxJy3DB/2mrOu92kbWUTjqlrAAHI7/NEDgbp+GOcRxHt+P5GrbW8UftyZmmlXLu5vL5Rb23UmgKhmOOMjY7mcrlXXnllampqeno6l8vl83nTNJ8yF5gyABRPAgJwzhfWyrV2Nwgp5xxAKIDgAlDGBRCL5UY7jHyA+J3LAgQAHIiQcZdFy5VGhzI3itBWOhCEABCMOBBjA/m4ZTm28fQYABAiBBGEmHOOuB9GGKK5tfKXN5c+vHRjYa1Sa3VCyuS+umHGYrEXX3zx6NGjr7/+uuM42l7DXxQKheKrp+sFXhBABOMx88WTk8OF7BtnjmkExyyDMyGAqNSbTsJud/yPm61j8bgQQuzocQkAAMBEaNKysprG/aDT7lxZWIEIvXxyCmPEmNjfZR5EMKKMcz6/Xvnk+vw3iHnEtgcNI6PrMsv89r0hB6AWRRtheLnZPjNWPH1kZGq4mMum0k4MQVjKpSuTw4ahu2EkgKg024yJ+0+AJQgBDAeyScvUf/XF9XUaLkdRnINRw9idRYQhtBBKE3IqFjNc793NykAm/VYyNqjrRx1nMQoBgLahxyyTEHzIq38RgggggCHnHAIAPFhvdW4sr/3ww8/L9db8ejmMGAAAYYwRSiaTY2Njb7755ssvvxyPx59WF5gyABRPAHLQOxOi2uz8za8vVOotCyANgFHTYFwAAHw/nORgBOG8rsfuEKEzEYojPKXpjPHylzMVgpY1LRS8TZnLeTWKBnKp56ZHY6YRj00S/EQW9e+8bxBSxrgQG7Xmeq25vFFb3qzeWN5YWC+vbNZrrU7b9UNKnXhcN4yzZ8/lcrl33nknm80ePXpUFvsKITjnT0Gyo0KheNKBEBq6NlTI/ss//C8YFyOFjGVoGsYIQkqZdP0MD2T/V99/+1e/vvj/nVk8E3jJFp62rDHT3NHyAQLgIEQI+cfF4iYCP/niZqvjTw8XB/Op0WJ+H8+Zcc44mF3Z+Pj6/Mriutb2Xiylvx5zcrq+uwsFB4BxXo+if7++EdjG+LGxE8cnXjg+kYzZLIwYZwyAmGloBH/v9bPfOHe82fW6fphNOpw/QBAACJF27KRjv3z6SCT47NXF6+VymhACYYIQa0dDGyEcjM/F4ydjsa+lkglCUoQAIXzK2ozXKLVjVimXsgz90BbQCQAE5xu1dsv1bi6vb9Ral2aXK4325fkV1w/K9TblHCE8OlLKZLLnzp8/efLk8ePHR0ZG8vm84zgY417S/0Ffyj6jDADFE4AckMg594JgZmVzZb1qC2ACoMdiXAAEgYZxGuMkRDGMtTv8SjGEOoRpjDMQetVmwFlTAI+xzTBsc77GWcvzR4pZLwg1jB5TJuhXgJTvvSeUsoixRqe7Wq7PLG9cW1z7cnbp0uySLwMpAGCMbSfhOPGJiYnh4eGvfe1rqVQqk8k82lkoFArF/oMQilnmC8cmMEa6pgEIOWNgq6UbQBAmndjzR0av3lwsM1ZmbCUIiroudnX4gQAYGBMIj9u2TqP1jfVE3C7Xm7apjwyIB612usvKl3POuWi0uzeW1tuNtvCCAUymbZvvyvyRVxFx7nF+3XVjtuak05lsUqakAiEwQgAAxzIgNLPJOCBoc7Pe7Hrmgy++LUPHhl7KpaZGiu9eX9zw3HIUtRmzMQa77pUOYUnXAYTj0hEuRCDvOQA+55pG4rZJMAICHJ4ggNhWggIAzjljvNn1Ks327Mrm4kZVdry4ubwhd8aYEIJjTrxYKh0/fvy1116bmpoqFosHfRGPHWUAKJ4AuBAYodeemx4pZKvNzszS+pdX5rIC/G8mJgUACYwRBFyABMYDum7tlVUJAUgSYiD0DwcGOowBACgQoQCLvv+fy+U6AhmDnJ4e+2+//3YiZtumcc/RKocQOTAeQSAEFELUW52byxvL5drn1xdXK7UbS+v1drfW7LhBGEaUYCQwPnr0aLFYfPXVV8fGxs6ePZvNZvP5vKZpyuuvUCgOIbapC7GVzB1RuqNnAxfC1DXbNI6Mlr796plGvfMXq5UExsdtmwuh7+pyAwB4znGswD8Ckd7q/uKLa5VW9+joIEbI0PH9K4E7CUoIYdcL653ujcW1H/36y28b9mvF4qiuyzZqu/ePhLjheUtReBXQs2nnu6+eOTpaggD2L8nlyHYghKDAsQzL0AhGD6qvhBAijKaGigPZ1JVrC5WWeyUKabP5rXRaVkjvODkOtkropFbocu4y1hWcIRiPmYVk3NA1AR4gE+nxIb8PGCPORa3Zabn+ry/PbDZan12bq7e7N5bWO67f6roy6zUWsxOJ5JEjR06fPn38+PEzZ84Ui8VSqaTr+hPd4P8+UQaA4skAQpiJOxFl46U8o2xmbtWk3EHIQGjYMDCECAANIQOhO5XoawhhCEcNIxICABAJsRFFTUIIgjFT13OJ4YHMeDGPMMIIwSfKAJDeDsqEEIIyFkbUDcKNWvPG0vrCevXCzMJmvTW7Wg7CyPVDQjTdMBOJhGmak5OTIyMjp06dGh8fn5qaSiaTT1OLA4VC8ZSB77Ug0wg2DT2TjI8PFdb9aI3RCqNNSg2EdAjF7b4hCGGakAwlAwgHIVvdrCbisa7nG7pm6oT3udXF9qOQ8vZ2q4Nv+5tvnzoGABCuH6xXG7V6q15tJorWEctKEAIhhLvaTwsAAi5WfH+VM2bqhhMbK+byqTjGO5NPZOdQCICpawDChxuHw4WwLcMydd0ygKGVGTMo63LOAIC3XyDoNQja3kiF6HIeCcEF0HXNsU2C8YGv/2VDQMY55yKkLIzo8mat1upemV9ZrzUvzS63ut7yZi1kDEKEMUml7HQ6PTg4ePTo0dOnTx89evTEiROxWMxxnAO9jq8OZQAongwghITgTML5zsvPHR8fXK00gkb7f1pdOxl3fjeXi2McwxhDeJc0Pbjd04ABIIRwOf9Zrb4B2AIGI6Xcf/n2K6OlfMKxpHvpoC/3wRACMM4bbbfrBzdX1lfL9Q8v3tyotxY3yl0vqLW6jHE/oqZp5ePJkZGRdDr91ltvTU9Pl0qldDqdyWRs27ZtW7n8FQrFEw1GEAAxWsz+1ivP/3XEbm7WrnP2N9Xay8mEQ8juSgAIYYqQ387lr0fBn19f5JRfnF0ayCRTR8ZAFMndtjJJBOBCQCFonxUBpQEgfeS35xhxIZCAs6sb/+nnn3aWN08gclw3XnDiMod+x2lzIUIhKjT681q1qeHXzxx7bnL45Phw3DbvMl2rl/D5oAghOBBBGPlBZOp6zLGubtTnvODNVKqkaTF8jxq4gLFyEHQ5o0DEY9ZAJmnq2sFqTQhBGFLG2Eat1Xa9L24uLm/WP7+xsFapV1sdLwgbHRcASHTdMa1sLjcwUHj55VeGhobOnj0bj8czmYxc+j9TLjBlACieDCAACCFT14YLGY3goWK2jtCNxY20oXcZsxDSILz7GELpNSEAYAACABgAi6HfwkhYZjwTPz42OJBLGZrG+OHuZLaN9PpwLrgQQUTDiFYa7WbHnVnemF+rfHxlttxor9caXAjBgW7oum7EE4lUKjU2NlYoFM6ePfvcc8+lUinHcZ7uKKdCoXh2gBABAOK2NVHMp9JxzbEaIZ/xveNObO8WcRBaCE1aZoPTsO226q2Vcl0jRK7gt3YBgAnBBJepL8HtBkAoRJcxj3MqALn1BpBxxhirNTo3l9cTTbeESQ7hgq7jvfQUB8DlvMnofBj6WH+jlB/IpjKJmKGR/S1IkxlEYUQp462O13Y9wLiGUFvwiLKQc8o5uNciOBLCZSwUQkCga5pjmQTjAykCFkIIIZgQnIuO5/tBtFZt1Fqdy/Mrc6vlT6/NrVbqXAjOOcLE0PVEPJFMJoeHh4eHh8+dOzc8PPziiy9CCOWMy2cNZQAonhiEEAhCy9CL6eQ/+3tfX1wt/2+vzl2F/H8pb56JOd/NZAwItbuuZcW2vP6o2Vyn0V+1myODhT/4xstTI8XxoYGYqT8Rq/+t+cUcMs7Xa416u3tpbnm92vzllzeqzfaNpY0woh3PZ5xzzh0nnslkpo5MHT9+4siRI0ePHi2VSsVi0bIswzAwxqrPj0KheGqAEHDO47aZdKwXj01wxm98OfOfr86N23ZJ0+IaicFbq1sIABBCR2jSsgIhvp5MNUL2xz98/63zJ7525qgfRDohcom54vvVVvtPNjc/1HV6e64LA6JL6WYUzbpuJrKZzNHHuNrszK+Vv7y+cP36wjed+G+WStOWZWC8O/kHAtBm7Of1+kwYtjQcS8X/wTdeMnVN08g93FoPCMbIc/2uF1xdWJ1Z3fjo8syF2eV409P88LdsZyyVPWLbcULu6RDyOd+MIg8ATEjMNtOJGOcPl4j00J8yBAAgjDw/8IJopVxb2axdWVibW9m4NLeyuFHpuIEbBH4QUsZjTszQjdPPPVcoFF5++eVSqXTixIlEIpHL5Qghsr3Ps6kE9zAAbtXLCyAOT1G3QiETgRAyDa2US4dhZCcdgdBaJyhS2maMI0QQAnf+0gohIgC6jK2F4RqNmKlrjj00kB3IpmKWYWiH0R4WfW19ZPEXY1wA4AVhGNHVSqPabM+vVVYrjdnVzXq7u1ppQAghRhrRE46RTqdLpdLIyOjk5OTU1NTU1FQ+n0+n0wd9WQrFk4AAAD5hCYEKIYBGMNFIOuEM5TOz1nJD8Dpn5SgyMLYRALs6ApkIOQhlCPGYWK/Wq41Wx/PDiAJgEYwtQ+/qGtO1OoIYCAYF7DsAE8JHoIUhNDRiaIRghJAQ3PXDjVqr2eqErq9bsZKh2xhjuMf3KRLC43w9DDdpRGzTjtvFbBIIgNF+LkkZ55SxZsetNNor5er8anljo1bbqGUhTgswqGnDhmHL5fC93pQB4XLOICAa0QjWCIki+lg/0F66k1SDcp4X46Lleq2ut7RZW1yvzK+WZ1Y3F9YrS5s1LgRj3DD0mKVls9lYLDY2NjYwMCDb+0xMTNi2/Wx6/fvZY8UDAUAQAplQIf8HwFZw5/4nzj2T7PjRqHv1OBBCIIRzqThC8L/7wW9dnV3+4x/+XZWxNMbTlvViMgnu5MWHkAsx57qLQfD/WlreAOIPvv+N0YHcN86fcGxTI4cr80+29IGyrQ8EACKAoKCMMn5zeaPW6vzowwsLG5W5tXK92VmrNbteEG6LYIxwIZ8/cuTIO++8Mzw8/PzzzyeTyVKphBAihICtlnnKtFco7ggEAACIEAQI3lYLuqUJFXdEdm3u3aMDuVcQQs74ycnh8cH8arn+q5nFC4G/0XH/yfBQkhBwuwAkEAKEhgzjzVTqU9f9X2YWv0w4//5vPzw+Wso+7+RT8eenRpbjMRG36oTU97oe2QBzihUGc+liJmUbervR/uLG4v/8o1/wanNS00+a1supFGUM7G6wI8RmGM76/o8qlYpOvvn2y0OD+WI2FVG2X1KaCaFhtLhRu7G08XefX/3pJ5eajfZKrfnb6fQ/T6RfiycmLUt21Livd4TQ42IjCJmt5TIpw9TBY2uRv+XpR1v/kaow8Pxyo7WwVv7FxRuL65VLc8u1ZrfSaHc9v+P5vc+HEPz6669PTU29+eabpVLp6NGjlmWlUqltGwcqPbiHAcCFCMMQAsKiSIQhhKjXaQtCALefArinnxXe4b9PKuKuz25t2jJM+/916z713YftNd09gLc/KHYi76yGSTGXbrbd8cEBI6Q3w0DH6BilWAh7VyMzAUDAWIex2SBYCAItEUtpeGqoWMgmDF0jGB2SW93z9HPOmRCMMco4ZbzrBV4Qtlyv6wXza+VGpzuzurlRa9ab3Y4fCAA1XXfiCU3TksmknGI4MjIyOTlZKBSSyWQsFtM07alvaqZQ7BdccMZZEIQQYghBT+ntUoW7edqUIOhptTsrQeme3RJffUrw1uXDbZ12v6rtkfWgEAQjQ9cGMsljY4Os3lnsNqtRlMY4gbEOoUzxD4UIOG8ythmF1wN/Q7Bkwkk4sYRtGZoGBEg5sYnBgmOb6USMYHynTBcIIeM8m3TSiZihawAAU9fScbvj+m2NrHN2od22EcpomomQASGEEG3NpwfLQbAahczQzZg5WMiUsmkA9jP3Rx4II2RoxDS0mGX4nm9oWkuIpTAcCUMNwpymORgbCBGEyHZ59N7fBCGoEC6jkJhJx8J4nyPnvZg3F4IyLjiPGGOMu37oR1Gr67e63ka1sVZtXF9a26y1Ks2O6wUhZVjTbEzijmMYRiqVSqVS586dGxkZGR4ezmazjuPouo4xVkqwx+2fnNgat9TxPCxQ5HnM9wlCCCGCEISIEAghIggh6RrZ/r9+aXCb2b+3D0AczkgCBLfJq72e7TFSXMo8xrgQgHMukzQAAAgiWY8kIyq99LKt+NqeP+3d967vRn2lGXaHHs65qWuvnDqSTTgR41dvLvzxB5+/YTuThpkhZGxXDRMEoBJFK2HwZ5XKDA3zR0ZGs8nf++bLGCNdI4ch9e+WmY0hpSxi3AvCjuvV226j416cWbq6sDqzvD6/Xmm7vhuEYRQxxinjCEE75jhO7MiRI/l8/u233y6VSi+99JJt26ZpYox7aY4HfYkKxZOBEIIxHkW02fEwxhhBBBHCEEOEMUJbGhBg+bPq/bBu04M7ld/TogRvd/1ta0YuOJe1lvL/hdhSdFsPAAiItlMLwLYFtYcevKsSfCA1KADQCSEYvXhyMpOM/6e/fv9vZ+a/kcsJzk/GYjrGCAAmRD2i62H441ptIQo+7HZRzJwYG5wYLR4bG4zbJhdiemRgfDAvr+ueb4ogNAyNUia4yKWc0+NDl7m4vF752077w2r9O5nM+bgzYVmDhkEAkB08IyHeqzeWOI0yTnYg+8bZEwPZlExJ38+PFUBD1zMJp5hJjQ7kIIDdkF7zwy9a7XIQjuv6mXh8SNcHDcPBOE3Ind5dVjh0GN0MQt3Qx7Jxy9SB2J9s8d4oGwCQ/Bp1PT8Io3q723b9SzPLK+X6B5duVBrtlXI9pDSMKGMsogxjjDCWqT7nzp0bHR198803x8fHC4WC4ziEEIwxxvgZzPK/O7cZAPIz9MNwZnnViCVa5XW/29KIhhEkGCOENIIRhBohCEGMEIYQYgRla14IEQRQ9mGEAMGthS6CCEKAEJJT+iCAqLcc7omC+/1EHu6Tu8ePlgsBxFZp/NYjFwIIuZi/taX3XAjBBd8axSEoF4ILyhjjnFImOBBwywCAt26IzMresgi2780tCdgvKzFG8vYiCGVLepkISJDUQrt91XeKxjzlQARNTNLx2NTwQLvrOumED/FnrfZxJ5bXNAyhsW3oMyE4APOetxCFDQIj3RwdKRbyaccyITzIpp+9kBHjgnPuBSFlzA8jL4haXb/jevVOp9bsVpqdG0vrc6uby5u1tWo9iGhEmW3bpqnFbNs0zUKhkEgkTpw4kc/lTpw4kcvlBgYGVIKjQvFwCCE83++0Ol/cXCQEE4QwQmRb/WGp/jAmGEmpvCXq0baC21JzO7QAQgj05D/akvl38wjtxUNL+rtJOanMuODbT4TsLCwE2NZ4QgiwrQe5EOD2R8E4Z4xJlwQXgjPed5lb6y6MENxyim0bAz07YDurXt5GBCFGCCGIpB7ECEFE5HaM4R7e6TsGFhBEKSc2MsCTqbiddFZZpHtixDRNhGqU+pxf99wKpUuQt0w9GTcSqcSR0dLR0VI6bhuaBgDQNWLo22d5r89GGnYIwIixtBObGhmIGGt5Pmu77WpzGQnsugEQXc4yRItjHHLuc74UhWUMc7n0QDGbdGzHMvb7Gw2FADohcdsaLmROTQ6n47FMKt5qtOutLhWwzMENGlU4qzIWR2jYMAyEHIzlaJ2ew1z2PI2ECDjvMmYQlI7HHjF79lbUSICIUir1IGVuEPpBVG22u36wWW+1Xf/K/Eq53p5bLTc7brnZhhASjA3TSlpWLBaLxWKDg4OZTObMmTMjIyNTU1OlUimRSMisV8We7Lg1AgDYaHX+9G8/yOTyN2/MbJTLpq4TjA2NYAwNTcMYGbpGENY1QhCS6ROWoWOCDE0jGOka0QixdJ1gpBOsaUQnWNc0jWBTJwQjQ9MJIaaOMYRE0wCCtznWxR7RhAdII7wt9tj3rP/P24UEjyLORRQxyngQRZRx1wsoY34UUcr9MKKUBVEUURaEUUBpGEVhxCLKwohGjMkva0gpZTyIKOdcCAABQBhtiTwICZLSHyEI5Mpe/gERJFLKYYQh1AjGCCXjtq6RhG3qRIvHTEPX4papazgRswlEmq4BAACEWzdq+9fT+w3dSkM6lB6mfQRByDnPJGOvn5m2DG2t1myulv+HT6/+45HhQV1PENIzAGST5r+p1a6FYSvjpDPx775+dqyUZ4LD/W2xdi96Drat5H4AAYKACx5FQURnVzcbHXd2ZbPe7iys16qN1nK5Xm11V8s1xnkYRqzPB1UcGEhnMseOHSsUCidPniwUCufOnXMcJx6Py29bz1emfB4KxQNBGatU6wvzS//Df/iRoWsaxgRjXSOEYJ0QjSBCiK4RHWONYKkfCcGmoW09x8jUdYyRbegYSZ2IDU0jBFu6Jg+lacTQiIahRjCAEPSnJYg9owYPIs7lvjsC1rdPwOptBlwAIWhEGQVhRCmjQUQjyr0gjCgLKKWU+WFEGfP9aFszMi+MIspCGkWM+8GWlqSURZRSLihlcnwVhghBiPDWmh5CKDUj2VKDEEJAMEYQSrMKYWRomqERxzZjhmGZuqnrjm2auha3DUMjcUIIQQDjeynBW/6VXCqedKwjE0Nn2p1PFzcvd/0TMdtC6MNmcyOM/mxjPdBJmEkMDWT+3pnpsVL+1dPTpqEnHVvmiAsA+IN0h5PXaGI0NTIwNTxw/tjE184cvXhz8ZPr85/NrfzZ0vIrTmJK119Ppo7GbNlU9FPfpXH7909NHRkbTMRsXdP29/sMIRCCx23DsY2BbPJrZ45WW51mx72xuL5arl+YWVzcrH24Uu62O2NYcwR4M5PO6vpZx8kQMmwYW19OIQCEDACfc5fzehQVdG0gnzZ07YHaxdymBLcKTbf+qdFxu55/fWmt1uosbFTrre7CWrne7s6tVbpeUGm2uXSzAgAAQAjZljU6NjY1NTU8PDwyMjI9PT05OVksFtPpNNz+eslvg1KCe7JHClDEeLneBpq9UW+tlOu6RjDCGsYYQw1jhCEhBCOkY4wQ0jWCETINTYo5jJFGMEHY1DRCkIYxIZgQpBOiYSx32LITCMEY6kRDCBIZYZWxAigtfrjlFu/3bu8IPcrayD4net+/bY3r63nrZXIOF2ArUil6G0EQRZyLMKKMi5BGlAvPDxnjIY0o43KVH0VUPg8pjSIWMUopDymlnAdhRBmnlDHOI8a52JoeiPr8H1uPCEEAELrlFEEIYITRls8DaQQhiOIxUyPYMU2NENvWDUJilqFh7NimhrFl6hhhDSM5sBZjpCFMCMYIaduPt8r4ZaIq2ko96t2lpyaGAAEgGGOEs0nn2FhpgXHgWFUELrvupGXFMIYAEABWg6DFWAUA1yCDg/nsQCabiicda39X/7tnsvT7NmT4SAghAKCMCSG6fkgZ84MoiKJWx+v4wfzaZrvrL21WW11vrdZqdb1qo93xw4BxgrFuEduyTdOQXo3jx4+n0+mJiYlsNjsxMZHJZFKplGma2n4rD4XiGSSIoq7nr1bquqZLT7+GsYwDYIwIQgRjQrCGEYLI0AlGSNelasMEI13TMEKmrmGENA0ThHRNIxhJJ5pOMCFE1zAhWMcIISQTixBECIEtdxHsxRZ2psP3V5Td9o+9dPttthJTtwPabCugfSthlW83VIm2VBujjIURo4z7YUgZl76tMKKMcT+MGGdhSCnnfhRRxqVmDKKIcR5RxhhjlDPBKRcycI0A3IqN9KIBCMqsga0t2yFuDBFEECOkE6Jr2DYNy9BMXTc0YpuGrhHHMnSNxEyDYGzoBCMsdR3RMIJI1zBGSMMYY6QRgrYCMgAAwDlHCGWSzlgpf3O91umKL123TOn1KGwIbhXSjm2mR4qlXGpiaKCUSydiNsEIQ9hb9T/o8lHuLdOnEzGrmE21Xd+jTEdINw0c0EpAr9Ow2xUeYxQIzbGcdLyYSxUzSUIQgvBxuO9kzgWCGBCcjNkawV4QWoYeMJZOOEnHbrc6pheiiK4I0OIUel6a4CpjMYyTGBMIbYw9zn3OfcZdxhDB6XhMlxMABAAQ9Lr13PoGbn0PBRCAg1uJFlwASlnIaBDSIIr8IPLDaLPebLvBwnq50emuVZutrrdRbbY9v9n1gogKgDRdjydNQzccJyb7eA4ODo6Pjw8MDBSLxaGhoXw+H4/HVfT7PtkjBcj1g0+uLQx16ccXb5Yrlfs/lgzpSQ83wdIM3qq3lpFS+ZvHeGs3iBCGCCMYj5kaITHT0DVim4ahaSnHwhhpmtZzmW9FBqU4AVI4boVZyfZ7QAgRRAAADBFlLIxoEEVdPwhC6vmhH4VeEHlh6Ieh50dhRN0gDCmNKBNcMGkscLFVdyIE41xwzphMReO9tlP3lQn4CGAEUf9qHmMNYwShhrGmYUPXHMtIO3Y8ZiViVi6VyMRjhVQik4gNZJJJxy5kEqZhgu0Y9HbIFQCAbpnatztO5B/i1i/1iUFsK5Ijw8XxUu5vP7r4s+vzX0b0i8WlfzJYGtE0BKGuaX/XaHzR6XzMQp6w/6s3zp87OjpUyMYsY18+yV67HgABlBPT4S0FfSsas504xjno+kFE+SdXZqutzsWZ5c168/L8arPrNlrdIKIdz9/9Lsg0bds+efLEkSNHXn755enp6fHx8XQ6HYvFlLBTKPYXxnil1V3arF+4ufSgr8UQIISk/5tgDAHY8oVL9YcwRFAmIyMMMUIQABkiiFmmqWm2qesacSxTJyRumxgjglHPf7S1bu73JSG4rQ1lpi3Y9rJDyhjnwvXCkNKu54eUtT0/osz1giCirucHUeQFlDLqh6E0CaQGlMk/lDG+rRMZ5zLTdUsriserJyAABKOt5CuMNYIRRhrGCCLZdDIVt21DzyYd29DzmUTCNofymaRjF9PJVDxWzKV0jZi6JksRTF1HGL56evr42OD/YWHteqP1f1pZFpR7OiaG/oPvfm2kmPudN87HLMMxTYAg5xwA8eipoQIAxnk6Hssmnamhge+++vz8erlSb/1PP3z//QvX/ma96rZcHSOd4OOnjxwZK71wYmpiMP+YVv9bp7R94ETMSjrWYC4NEPrWC6eCKKq1O42O97PPrqxW6n/2s48814u6fgrhE5Y1bll/P5/LafpzcacjRCSEK3g1iohpjJcKlmkAIYMEO5K6pY8WSncs2B7axYWglAnOml13vdq4sbwxu1a+sbi+uFYuN1uNrtfu+kEYyY5JO4jF7MmJiYmJiTfffFNO8jJNM5VKGYahfPwPwR7ZUaZpHT9xolAoBBFbWV0TvCcWtotct1wH/FYdk+DiVtqJ2JpzIURvfQmBADIzBgIuh2hwAQUXUDAOO16AUeQGEcFQw4RgtKFrEEK8tabfWlxB1FtsbS9toRwQ27dhe6kru8BSziNKpYc+ooyyLQ8HZYwyEVEqhyXJLEb59ZQJfGAr2367+8N2A4jecwDA9tshsGWKoK0EfQh7DRGE2PrWA9CXn9P3bKuQeOs2yqdb9QVbN3DbncCFoIyBEAghKGXNrmfo2nq1aRqaY5qWqTumaepawrEMnViGoRFsm7pOiG3qGsa2aRKCbFPHCBGMMYIYYYwgIViaHNIFhbe1yDb337ThwNiaiStAPpX4jZdO1RY3Z91gnrMPWy0dozTRboThImfPHxtPDGRK2ZRlmhDC+1n937MHlBCCcSHElmqMGONCMMYYF4yxiHLKqBtEXhC2Xc/1QzmqsNn1woiubNZcP9iot7qe7/oBY5wQggmxbBsTQjTdNAzLtuPxeCKRKBQKuVyuVCoVCoWhoaFMJqPrOuc8iiIhhCrzVSj2EYRQLObkcrkTJ04gCCNKt6tbtwrCeM+RLhXHlvrbyv+8JdC3leDWn2Brwg4XAEHAORCCQwhARCnjjAkXB21XxskJRlDf6ty1pdvgVmuYvtQJCHuxctivlyCS87C4EBHljPGQUs55EFHpqqeMR5QyxiPKuOCUCXHLObt1uhhjJAQk6NZKrufV6BVT9jZuOftQz80v+lvj3a4Pe1u3brcQPedxv+4Tgst94PYmDjjjUFDadj0/CP0w0gjebLYNjcysbBq65pimZWiObZq6HrMMnWBD10xdM3Wt1upSxhllMV0zINQROjEyEI/HhrKpVMyqt7tBFIUR1QjRNIKgbOOxnUr1CEpQCEGZoJwxxg2NJGL2m89ND2eTa6vlRr29UWtElJ0/Nj46WLANXQghJxk/bqQPXggOAIsYY5wThGOGfmpscDSfTmjEdYNatcG8kLfdiPH3o8Ch4UXPBQDoEM75vg8EJDhpmxBC+XXi0kQUIqK39KBcgLleEFLa7HpBGLa6nhdEHS/ouH6z61ZbnVqrW222m51uEFEhQMy2LNvCmGBMTMsydD2VTpumWSwWU6nU6OhoNpsdGxtLJpOyrjeKIgCApmmyWkHpwfvnNgNA3jjTso6dei6dTiPNGCiWKKVhGFJKGWNRFMk1x23POQ+DQD6Xj5SzKKKMUUopo4yyxzgh4vEBIcQYa5rW90h2IP+p96fstChv47ayuOOjfMIY67VOYIwxxrrdLqXU8z1Kqe/7D5R9CACQXpOBTNI2jYFMwrHMYiZlm0Ypl7RNo5BOGDqJmaZOiKFrlk5sU9c1zdA0Q9cMDWICiUZu01jiVnLL9uZDFyWQ/p4jo6U/zCT//d/+6mfzS5+E3nqnkyDagKa9325dCYL//vyJU0dGTk0MZxLObu9Cf25U339uTyzr+8/W/RFCRCziIghpSGnXD0JKPT8MI+oFUdf3u16wUWtVmu2F9cpmrblSrlfbnWbb9YJw7wsxjGwmE4/H84V8LpsrFoujo6NTU1PHjx8/evSo/LId9M1WKJ5yIEK2E8/mC6+88grn3PM8SmlP8UlBLZ/0NCNjPIrC/i2c8yAIOOeUbjnTD/qyHgbpXNA0HROka3pPG8qOiv1KUD7KNouEkDvpPsbYzu2MyTx7xjjnLAqjMAoDPwgiGoZhGEVRGD7oadumkbCtVNxKOXY2GU/F7WwynkvEAQQxx/KCSDP1V184OVrMHh0umYZm6BpCSNo/Wx4xjMEtQ67PwSnf4EGUIARAJwQQMJTPgDyYHC74YfSrSzOL6+V3P71Sb3e/+fLpkUI2l4obmvaVNaXolVLbpg6AnnJsAOH0SBFA8L3Xzra63oXZpaWN2i++uLZYb/3tyjoJKen4RUOfNMylKGoLoVn66EDGIAQhyLmIKHP9IGKs4/qyPDKMaNv1vTBcKzdaXW9ufbPW7MyvVert7matGVFG91reWLal63o6k3IcZ3BwMJVKHT9+PJvNfu1rX0skEmNjY2qJv1/ssZhwHOdrr79uWdbkxESn0+kJO0oppZRzHoZhT/z1P9JtGGNyH/m8t1G+fMejEELKSsYYZ4wy1vNr9mVNg12PAoCt8o7eErnnXwAAyIxK2ftp+wlCCBOM+7dKUSUfIYTbwk7DGGnbwk6KNins5PN+q0DKwZ4Z0HPE3mnRv9sA6G2Rd2nLAPA8+RhFke/7jLEgCOQjpVEYRjSKoigKwi0JGUWRvHQoABeg7flBRCmluq5VGm2N4JkVSyPEsU1DI5ap64SYum4Zmm3qhqYZOpHZlpah6xqRtd2GpmkEGbpO+ss8ZKkW2gpMY4QOybhoAYShaWkndmyk+K1zJ1oL69eWN2KMzft+upR7KWaMlXLFbEojhG8bM/LbxTjnXDDKuBAR45xzJv/HBOOMbaeBUc4YF5QxwQXlTNaNUM49P4oYdf0gimjHC0NKvSAIQuoGoReErh92XK/t+c2213b9lut6figD0/I7aNu2bFpsWVYul4vZdmFgIB6Py/792Ww2nU7ncrlsNivdG2p2iULxuMEYZzIZQsh3v/tdqaF6ikyqtj313U7XGGM9A4AzFkYR55xGEetTdj126ERKKeeMUia78IDbNaDsEdnvSu9JM9D3J8EYItTTgNvKDmJM+nVij/4/EEK6rm9rQ6zrGkLYMIyeHuwZAL2lf79JgDGWC/3dPq89zQAuuOBb2lBqNM/zgiCQz33fD8MwDELKaJ8e3PosfN+XulKuIuQnKJuqASD8MGq5vlXVLbNqm8b8WtkLIiGEF4QfXZmdXdm8vrhhaESGC6T6237UCMaaRnSNGIToBGuEyL6ihCAiC5YhlHrw/mWyAAACqGE8OpBJ2CYAsOv5Q7lM0rExRkCIr1K4S1ODMS4HzG8pOyFcz3eDECMYt83JoULSsQAQges3UaMrxPUwaDBGIVjYrH/45Q0hRMw03CDcMgAoa7leRJnnhyGlHdf3o6jRdv0wqrc7rh/WWl0vCDkXWwGsvo7xjuMgCF997bVisZjJZOLxeKlUisfjAwMDsVgsm82apqmaW+wj8J52rPwNy19aGIby99lzh+zY3jMV+p9v7Uap27eo7S1tKaWdTkd6u+WWKIq63W7PDNjKO+p70gcXAjDGALhV7CtPW8ojXdcNw9A0zTAM+adpmv0bCSG2bWuaZpomIcSyLEKI4zhyZU8I0XVNrvl7Yk4aAD2rQMpEubMMQvUbAP1iTj7vbem3B+RGedO63W4URa7ryscwDFutVhAEjUbD9/1ms9ntdtvttuu63W63Xq+3Wq12u+37/j0/bCBFj7adGmTolqHHLMPQdVMnpqGbuuZYpqlpqYRt6no6YccMI5OImbqeS8V1jSRitq5h09A0jG1dRxhhQvbqN7RzWqa4w/YH/Lbe5WsqR1gITPD1+dX5tfK///EHf/3BFwaCkRf8vbdfOzIx9PvffHm0mN2+DQAAID+GIKJRxPwgCil1gzCiNIhoEFE/jIKIhmEUhFFIqRdEIaV+EEWUyfK4ZseNGGu7XhjRrhsEUdT2gjCirh8EYdj1Az+M3CDqJQjsvBoIdU0rlkrpVOrI9HQulzt9+nQikRgeHk4kEsViMRaLJZNJsC3pVDcDheKg6DloeuqP9rFD6/U0o1yt9u8jFVwQBEEQ+L4v17jy0fM8+Vzqx96i9k6u9H61KM9QhpK3smc4N00TISRVm2wPYFkWxlg+l49SM/Ye5ZP+Hfr9XD1l13veW/rvUIuEkH7fllyX79aG8rm0eeRGeeuCIJAGgMR13SAIms2m7/tSD9brdc/zpGas1Wqu65Y3Nyml7P4C5lKFWaauERK3LI3guG1ohMRMXde0mGlYpp6MWbZlxG0zEbOTMSsesxzLSNi2ZeiOqRs6MXQNY2KZ2lalNtira5PoLwQDt0+SFhDAcqMdUVpIJwlB99aM95T92964nU099prm0COijDHuB1FEqReGlLGu61PGgzAKoqjZ9ert7tX5tXKjdWVutdl116oNIXgY0eemRs4fm+i4PgTADaMgol3PDyPa6nphxFxf6kRftky854cCASiWSpqm/Yt/8S/OnDkjJ1qWSiXbtmWqz9YlKj24f9w7nUDeaOnbRghxzjVN67mu5c9Y/oDlFkn/lt4Pu18y9jtLpJTsiVQpN3syYncoYMeTngTsf+y5Lnq5OmQvpDjreTukaJPPZUxgt18E3e5T6X+UyPu2+8z7pTbYDlzs9pH0W1PyhkidIU0CqSTkYxiG3W7X8zwpH+XGTqcjt0dR1O26URS6ritvLxCCcY626qVByATzIz9iGPsIQQ0jjJFBNIKRtV08oBMcMw1CsGNbBCHT0AlGGsEYIx0T2eBC9sSQjbHlQQjGW48IEYwRhjrBCCKdyAK4vXMc9+z/eid6be7Era4DgjIOhFit1MuNNuUiGY8xSkPKKu2OsVH56w+/SDp2RKkQgFLGBfcj6XLjjPMoYpSzkFLZynqrVoRyyhiljDIWMpkyyxnjEWNccD+ImEyrlV0yttpACcYEEwhrhol13ZRDMGAsFjNMM+44lmUlEgld13O5nGVZ6XTatm05r2RoaMg0zWQyaZpmPB6X/XxuVVQpkadQHBy9QUKapskKnJ4G7GnDHRpQPvb27E+gvZMVIXViT0v2L/RBXwRgT224Q1H2Atq9R8Mwepqxl7GzI5G1P6N1t5rrxcl3bO//c7vpNdqt+3afav+l9ayF/hvSu12u68pH6SLsdxcGQdBut6VmlAaD7/u+729sbFQqlW632+8ggxAyxoEAwA8DRCPKMEIt15UNiDBGOiEawaahGxoxdc00NMvQze1aAp0QQyOEIA0T2QgRIagTghAkmGyX1SFdk/EBfEshItTrH4UQkpUUXc9nnNdaXYTgXs7Yu05v2PFcALDd6CmMtjPy5RjdbTXHOKeMyzJIzrbC2mHEGGfSDIgo5UIEYSRL2iijXhB5frhZb3W8YKPe9IIwiCIhAGN8rdr8/MZiEEYAAJnPE0aUcRaEVGb/y+i6/O3IWw92WTG3vhsQmqZpmubY2Njk5KS0V+U39rYej0oP7h/3lU8sf/OP6Qx2eDV6W0Dfgr7fA9p71Z7P+88Zbje+7JWG9J5sd+F88kpGeiKy90RaUEEQlMvlVqs1Pz/faDSWl5ebzaZ8XF1d7eVf9YLXjHNwf7mGW2PIMEbbXdtkeRQQUNewoRFD121TlyIyZhm2qdumYWqaY5uGpjm2pWs4GTM1QpK2TQg2dAxlZ4Cdl7b9pG+uoOjb3n/CO2SfDAYFIfWCwAvDMKKWaQ4X87VW2+e85fq40ry2sEYp7fhBGNGO61PK6l0PANCr6gO9+msBBNiafXNr49Z38n4/KWlDSiCE8Xg8l8vJLsVHjhyR80ocx5H+OamSn6yvokLx7CCVhVwr7++RxV5IDdgLaPfamYNd+m73drmzEGKHvpNX0a/+eiryyZI8u4Pq0uJyXbfRaNTr9dXV1XK5vLGxceHChUuXLnHO+w0AIUREWQSYH0b383ay0chW+6atYcag12VUNuOOxyydEMc0dE2L26ahk6Rj6QTHTNM0dNsybEO3DCNmaqZOLNM0Na1XzQ0haLv+dsuPvsvc1oN8Lw0I+nbfdnwKIUAQRozxRqcbMdb1giCkbc8Poqjr+kFEXT9w/bDrhW4YBGHk+qEfygKWrWW4LL9mfOtGCSAjSlutTSAQbKslFAAALKxXFtbvq1Fk75sGdtk0/d/nWCzmOM6xY8empqYO8Av27PAwy/p7Zg3dabcdTgtwuxd8txd/9597Hv+e5yPjjxDK9l5gh9Tb88mOI9xTPj5ACuB9LyH7L3C3Yui/mTKqWygUZL54f7ig5yxptVphGMpkIeky8X3f87xutxtuQ6MoCIMoolEUcpnZxVgYhZxxGklZKXsybBnyjHM/ohHjXhBijDBEmGz5OTCSWZLS2wE1ghFEGu41itjzem/76x43Z9ffstf1djtqXmt1ml0viqgfRpfnV0xd41wIABhjTAhG2bawA1tXJKdyCSAbUgggMICyTZP8bvamYkp3PiFaNpvFBGuaTgg2DEPTdNu2dV2PxWKGYcRiMdu2bduOx+OO4yQSCSndTNN0HEfuRgiRCkx+S6WpoFz+CsXh534k+V2UILhdsO/5T/2vutPb7faF7daM/U60fh2343GHBtwhfw5WCYLt1cLuTOCeNjQMI5PJOI6Ty+V83xdC6LouVWG9XscYCyFM0+yFKfZ8M3lE2RMQ9jbfqrwSvdrZ3r8yxruu70HYcT28rfJ0giGULn+ICcZymDRCCCOCEdpqmLmlgrYSiB4hAtCrTWZMCCDCrRQMLuvWGOeMciYEY4xy3kv3lzEBLgQAYjuJCQIAEeqdFr4VZgcAAIB7nR0BkG0DYb9NudWgFvWmP/RHhPpmCm+txyCEjUaj1Wr1QmcySUR+rKq13ePmYQyA+/xI1Ce3J/d/W/b3BnY6Hdd1Nzc3ZeVAt9vtdDrNZrNer8tyAtd1Pc+TFkKn0wnCsNNuB0FA/SAMqeu6B33nHp6uHzz8i7ea3t3mYCOabppmsVSS63hd1xOJhGmaMp8nnU47jpNOpxOJRCqVyuVy+Xy+X/YpFIonnfuRz0oJ7snDKcGHEKFzc3M3b95cXV2VL+ecy8K/XoZS/xuJvpqE/oSuXpX2Qd+2g2B7foVcycvxdL35TnLrjiLy3enT/U1WQN9nKg0ASmm32+2ZuD2b4YkLTD2JqJaCTwl3yY/qd5AUCgXGWLFY7OVWyjYLspdCr9yqV3UQhqHruozSznZvol4ZXBiGlEa+HzBKI0q3jxRFURSGAaW3dmOUBkHAdzmxbjm6b/3OH3kECrzNHyEdWXhrosRtDol+QYMgRNsJvjs8YRBCSiPORaVS8TxPxluOHz9eKBR++7d/W67+NU2TpeSyxq6/WFyW2YVh2O92Uj5+hUKh2F/69QtjDCEkmwXJ7bquQwjPnTuXzWaluN4zPtPvipar0v565f4KjV5lY/8WzmU32K2u6Nv9DyNKGaWR6A06uJ3toQpgq67t1qSgB0YegxCtP8AEZZGe7FS+PSW03zXfpxMhAFCm7Pf+HexKHgN9K3W0ix0xpd1JFv2fUX/zdMVXjDIAnhLuUiUjf8z3nBfba74mmzD0NyGVnZqiKJIVxr38oiAIZAaRfzvyn+Sh5M7YdXsV4f1vKrb7n/af+UPLAvnC/oJsmVjfX7u2o4x797/2Z8cCABBCchpDs9n0PE++S7FYHBsbe+ONNxKJhFzuy8iykmIKhUJxIOwIF+xIIJE1zaOjo8PDw3J27G5ltHvF38s4kht3tHLqNSSVXZukz0tukc27pVaVXZ7CEPd6Ou0489579WasaZref0X9+UK7r3dHKANCqOv6VjMVzjnnGACEsXRR9Xzzu2u7+7Vh//q+9179W/pv8p6qc0/6A+mUUtmdRenNg0IZAArQqxiTItKyrP52Fv09qm9NbLjl27i9tnj7Sf/G3gulxJSSFGPc6XQ2NjYuXrz47rvvSgnoOE48Hrdt27KsB7qEPV0OOxwPexbD7fmq/iPL8KUUVTJMDCE0TdO27WQyGYvFelJPqA79CoVCcSiRK91EIpFOp9PptGVZdymn3lGY0dvYP71nzwZQO/61X4fu0Im9wzLGrl+/Xq/XZ2ZmgiAwTTOTyfzjf/yPCSEDAwN3qUuE26Xh/SFlWVdWr9eXl5d/+MMfNhqNarWKMY7H43K8jFS+oM+FD/p88z1/P9jLH7c7gr27aOT+a0TvvxRE8ZhQBoAC9Mf1Hh+cc9nHTfY51XW9XC7fuHGDMfbzn/9cigPTNFOpVCqVSiaTMkFwx3nuPvMdz3uSa4dTpP9Vd1mp73hhb0sURf33R9d1y7JkRe9jvWkKhUKheHSkl1p2ZUgmk7sNgB3cSUfsUB87ehXuuU9vS/8oCbm95x1bWVlZWloKgkDTtFQq9d3vftc0zSNHjvT71O+UQdq/iJe+/6WlpYsXL3788ceU0lqtJtuEJBKJfD7POZf10He6xt1K8O6odfyTizIAFDu5y+/5/lvR7bldTlqQyZcy1CAnsvXvuSOP8EG5U6nWbnF8n7vJ0rE9M5d6PayU41+hUCgOPz03vPTQP/Rx7qTp7rRRqgnp55LjF3rbZZC5t0U644xt7tMx19NBvUlK0tHW31SqF9XfM3do96EUTz3KAFDs5C6///0VDfF4XBbR9h9fBmoJIYeh68JdahJ2RD8VCoVCcfjZlw4zD/fy3a+SCTmykKynUGSkQgaZH+JdGGO6rvc3le5PcFW9NRU9lAGgOACkO+ROFVFARRUVCoVC8XSxZ9+h/pID0JdTJPWjbFf6QEt2lV6vuE9Ub3KFQqFQKBSKw4UKMiseK8oAUCgUCoVCoVAoniGUAaBQKBQKhUKhUDxDKANAoVAoFAqFQqF4hlAGgEKhUCgUCoVC8QyhDACFQqFQKBQKheIZQhkACoVCoVAoFArFM4QyABQKhUKhUCgUimcIZQAoFAqFQqFQKBTPEMoAUCgUCoVCoVB8dagBZwcOOegTUCgOO2qsukKhUDwdCCGkSBdCHPga9KtRLmIbzjnn/JBoNMZY77NQHAjKAFAcRiCEh0Q6w20O+pYoFAqF4pGAEKJtwCFwQkMIGWNKxSgOBGUAKA4R0kXBGIui6JA4BiCElFJK6SE5H4VCoVA8KNLZHASB53mu6x4SR7gQIoqiMAwfq8pjjHme12w2CSFCCGn8HDiMMYRQu91mjHHOlQn01aMMAMXhgvdx4BJBRgCkTXLQN0ahUCgUD4k0AMJtDkmQmXMeRRGlVObDPI63kEEG13Uppb7vg0MQ9+hdO4Sw2+0+vmtX3B1lACgOEZ7n1ev1IAhardZhkM7yHMIw5JwHQXDQt0ehUCgUD4Nc9F+9erVcLsdiMU3TDsmikzF28+bNer0eRdFjUnlCCBnElulGB33Ft84KABBF0SGJxjyDKANAcSiQ7hnf9xljnU4HY3zQZ3QLKZ5831dCSqFQKJ5EpAfn8uXLhmEQQg5JGgwAQAjRarVkFtC+r8575b9RFEVRdNDXer8nfNBn8aygDADFQbKjJAsAwDmX8dCDPrVbZ9jzTyCEhBAYY4TQ4fGjKBQKhWI3/fpFSnLP88IwPGwCXHq+AABSuTyicQIhJITYtl0qleQBKaWH6nrvxODgoG3buq4f9Ik8KygDQHFgyIhkGIYyMVFCKT3o87oHnucFQXB4ypQVCoVCsRtKqaz65ZyHYQgAaDabB31Sd0OaAfKEH0W/SMtH0zRd1w3DwBgfcgNAZtvquq7r+uEJzjz1KANAcWBompZMJicnJ9944w257pci73CKKimhhBCaph07dmxoaEjJKYVCoTi0DAwMnDhxAiGUzWYxxoehscRdkOFl0zQHBwcdx3loRzhCKJfLEUL+6I/+yPd92fLooC/u3kAIE4kEIaRUKoHDugx4ylAGgOIAkL9tjLFlWdlsdmpqSno+DrlPXRoAhJBCoZBOp5UBoFAoFIcQqWIcxxkYGPA8D0KIMT7k+gUAgDHWdT2fz8tChYe+dsdxbNvO5/O9kWcHfWX3OOHeyB0AgLR8lAHwFaAMAMWBYRhGoVB44YUXCoXCIZdQ/UAIi8WiZVkPLaAVCoVC8biZmJiIx+Pnz5/vdDpPxIJSpu5YlpXJZPbLwXT4devhGcz8rAEP/5dD8bQiawBkGcBBn8uDoWkaQkjVKikUCsWhpddi/5An/+wAQmhZljQGDvpcFE8zyoWpODCkgHsSp6AftiYSCoVCodiBLH6V428P+lweALX0V3w1qAiAQqFQKBQKhULxDKGsTIVCoVAoFAqF4hlCGQAKhUKhUCgUCsUzhDIAFAqFQqFQKBSKZwhlACgUCoVCoVAoFM8QygBQKBQKhUKhUCieIZQBoFAoFAqFQqFQPEMoA0ChUCgUCoVCoXiGUAaAQqFQKBQKhULxDKEMAIVCoVAoFAqF4hlCGQAKhUKhUCgUCsUzhDIAFAqFQqFQKBSKZwhlACgUCoVCoVAoFM8QygBQKBQKhUKhUCieIchBn4BCAQAAQgghxP3vDyHc8/mdDt57vP/D3s+RFQqFQvEV0K8jpGR+FPl8/0rh7tzpTDjn9//yO/25vzy0kr2fs3o4Jas07MECH/0HoFAoFAqFQqFQKJ4UVARAccBwzoUQrVarXq8zxiild9oTQgghxBgjhDDGGGPbtgkhlmUhhBBCd3In1Go1z/M8z5MH3230yiMjhDRNwxgTQgghuq4bhmEYBlCOCoVCoTggGGOc82q16nleEAQIoVQqZZqm4zgIPXAasxAiiqIwDCuVShAED+oX30E6ndZ1PZVKyTORR/N9f319HQAQBMHul0htIvfXdR0hpOs6xtg0TUKIYRhSH+3jDaSUhmHY7XYbjYYQgjF2pz3lWWmaBiGUetCyLE3TLMvq/euen06j0XBdNwzDO2lwqWGlepWPmqaZpqlpmqZpQCnZg0AZAIoDRghBKa3X6zdv3oyiyPO8O8l0ucQ3DEMKDsMw8vm8bdvxePxOskMIASGs1Wq1Wq1Sqfi+f6fTkKt/x3F0XbdtOxaLyedKKikUCsUBwhhjjK2urtZqtXa7TQiZnJxMJpPS9fOgRxNCBEHQ7Xbn5uZarRbnnHP+0HJ+YmLCcZxEItFvALiuOzs7yznvdDpSB/W/RP5JCEEIOY6jaVo8HjdNM5vNSvfWvt9ASqnrupubm3Nzc9L+udOeUsnGYjFCiGmatm3n83m5dr/Lp0MpLZfL5XK50+nsqcGFEAghad7Ytm0YhmVZ8XhcalilZA8KZQAoDhjpnJifn//xj38sXRQY4z1dMlJS9PsP5DI9n88Xi8Vjx46lUqmBgYF+gSufz8zMXL9+/dq1a41GA0J4p4NjjHVdlw4J0zRN0ywUCtls9siRI0NDQ/F43LZtoBwVCoVC8VUhhAjDMAzDzz///ObNm6urq4ZhfOtb3xodHc1kMpqm7V5h3/OAnU5nY2Pj3XffXVpaopTeZ77+nnz7298uFosjIyOEEAAA55wxVqlUfvKTn1BKNzY29gw4gz5/lvT9SzMgFotNTk6mUqnz588jhPZL4wRBUC6XL1++/NOf/pRz3u1277RnLy4hlayu6/F4PB6PDw0NFQqFM2fOGIaRSCT6TymKIt/3L1++fPny5fX19TtpcGlFyGNqmkYIsW3bNM3R0dFSqTQ8PFwsFi3LMk3zQT9QxUOjDADFAcMYC8NwYWHhvffeazQa6+vrUpLuRsoFKTelp4QQkkwmC4XC6dOnMcajo6MDAwOcc4xx7yUAgLm5uU8//fSXv/zlxsbGXSQL2gZjLM2AsbGxfD7/9ttvS2koxbFCoVAovjKiKAqC4Msvv/z444+vX78ei8UGBwcJISdPnnyIo0nH/Obm5vvvv3/58uUoihhjD73iLBaLnue9+eab8k+ZYFOtVt97770oimZnZ+/0QvmOPUUmPe6JROLll18eGho6evSoNAz2JSAQBEGtVrt+/fqPf/xjxliz2bzLzj0l2/PZJ5PJI0eOnDhxolQqSXtA7iY1sgwvXLt27YMPPpidnV1fX5dWWf8xe2t6eUypZ03TBACcPXv22LFjL7/8ssx9khsVXw3KAFAcPFJoBkEQhqHv+7lcLhaLWZal6/qeOwshpKOl3W7LSG63293Y2Dh79qxMDx0cHAR9jhMZZPB9PwgCmdgjXUe7hb48E8653HlpaWltbc113Q8//PCdd96Znp4eGRlJp9PgDtmQCoVCodhfpMyXYjwIAowxpfQuiez3c0DOuTxaFEWEkGKxKKPKD2QJQAhzuVyvAAD0NcORUQvf923bTiQShmE4jrM710heWhAElFLP88Iw/PDDD1OpVBAEQ0NDr7/+ejqdHhgYuEuF233COZeuegAAYywejycSCU3TdF3f7a2XhXnyJZ1Op16vf/nll5VKpV6vnz9//u23304kEolEYsenIysrgiCQR06lUj1P3I7rlVlD8uBXr15dWVlZXFz86KOPXn311ZMnTxYKhVgsBlSw/fGjDADFAdOTCEEQ+L4fRZF04cs0wd07yx3CMIyiqFKpyCdzc3O//vWvpXhCCA0NDfULNak5ZB2wYRjSq2EYRv8iXso7qVfCMGw2m7VaTdYzXblyRQiRz+cty5KyWPXOUigUiq8GKW/l+tXzPAhhFEWU0oeWw9J/FASBXHPLDBxd103TfNBFp67rhJAdr5IuJKl05L/quh6LxfpDDTLvSFbNep7num65XOacz83NAQAWFhZeeuml6enpfcmS72k3efekI6yX6dp/G+XzIAjkGt3zvPX1dVkzMDMz88knn4Rh+Prrr+/ITZJ6WX46YRjKjH95V/uPLBW9tBM8z2s0GvV6fW1tDQBw+fLlQqEQj8dHRkZyuZxa+n81KANAcViQiT0AgOeee+75558/evTo8PDwjuxM6WmQngnXdefm5paXl3/5y1+22+1qtbq+vv4f/+N//Na3viUDxNKLALaLB6QUnpqaGhoa+q3f+q18Pt/v7+mJSOnDqFQqm5ubV65cuXz5cqfTaTab77333uzsrOd5p0+fHh4ejsfjKlVRoVAovjJ67doefU3cf6h8Pv+DH/xA+toJIQ9kV4yPj8disf6Vbv/xAQAjIyOvvfba9PT0uXPnfN/vjxX0XE7NZrPdbi8sLGxubv7iF7/wPK9Wq3355Zf/+l//61deeeUP/uAPHMfZ7Q57iOsFAMi0ohdffPH1118fGBgoFotRFPXrQdBnADQajRs3bqyurv70pz8FAPi+f/369T/90z998cUXv/3tb/dn28q3kOm7L774YrFY/MY3vpFIJHZYF9IAkKbX+vr6ysrKpUuXrly5AgCo1WrvvffezMzMP/2n//TEiROxWGzPFADFPqIMAMVhobeeLhaLp06devHFF48dO7YjzisNACmb2u320NDQ5cuXb9y4IWVKuVz+9NNPjx075rpuv7jshWURQtlsdmRk5NVXXx0dHZVJh719pDiWnpv19fW1tTXG2MbGhuu6QRBcvnx5bW3t3Llz+Xy+UCgc9N1SKBSKZ5F9D8Datn3+/PlSqTQ6OrpnSsxdkBntu3NdeqRSqenp6fPnz3/nO9/pdrs9A0B2H+oZAM1m8+rVqwsLCxcuXJAeKNm4M5FIeJ6n6/ojGgD9JwwhHBkZeeGFF8bGxiYmJsIw3G0AUEoppdVqNZPJXL9+/Ze//KXned1ud3l5+cKFC8Vicc/2qfLqhoeHJycn33zzzXw+3wt69Cf/yFjB4uLi4uJiu92enZ1tNpvdbvfKlStzc3Pf/e53pXZWBsDjRhkAisPCjgGBe05Y7DUnlp0Ezp07l0gkoij64osvKpUK53x5eXl5eXl+fn5oaCiVSu35RtLS2H38Xj0W59y27aGhoXQ6/dJLL/3FX/zFBx98IDsU/epXv6rX68lkUgZP7yL3FQqFQnH46R95+xCBhfscfyuXwr3j9xpOcM41TUsmk9ls9tSpU5lMZmFh4V/9q3+laZps3fPnf/7np06d+ta3vsU535fasx0jfndftVSv8onjOIODgysrK7JTn+/7i4uLUs86jpPJZHZnEIG+qHu/qpU+ONltz3Ec27anpqZSqdRzzz337rvvfvTRR7JY+f3336/Vat/97ndlmq4Ksz8+lAGgOHT0RoTc3QEg1/FhGB49erRcLhuGwRhrNBrNZrPRaOTz+d0v6e9sIFfwdz8TjPHg4ODly5fn5uZmZ2fb7fbi4iKEUA49Uf0KFAqF4klHtuOUVWd36kH3KAeXMyXv2dUnl8vlcrkwDJPJpBxuU6/X19fXr127lk6npfv80Q2AXjdtqQRlW+07LbJjsZhsejE5Oel5HgAgDMNqtdpoNDqdzp0UtNTgd2rj0UPOcZN10rOzs9evX2+3261Wa2FhQdf1TqdDKZWnt7+fiKKHMgAUh45exs797GxZ1tjY2OzsrOM4ctav67qdTicMw/t5o7tMEAMASEH88ssvO47zx3/8x9VqdWlpqdPpLCwspFKpZDKpZJNCoVA86TyQ0nm4g9/PbrquT05OGobx9ttvy0kFjUbj008/TafTzWYTQphMJvfrZO5zBLJszTkyMlKpVOR8AN/3u91uq9XqVdnd/ZbeScn2Mn4TiYT0r124cKFSqczPz3ueJyMMuVxOKdnHhzIAFE82st1YPB7XNE32OJNNBh5ltgvYlk0y7XJkZEQI4TgOAKDZbEZRVK/X5Uz1g756hUKhUDwNSMd8NpullE5NTck/Pc9bXV2VQ3b3JSf+TqMw77Qz2FaysnGQbPxPKZV1AuARrCZ5cNmQdGhoaHR09ObNmwCAer0u6yK63a6MP6h+G48J1ctc8WTT69nfKzaS3dz2JZIrfSTDw8OvvPLK4OCgnPfu+/7CwsLVq1cf0cZQKBQKxWFgz5KzA0EIYRjG2bNnp6amstmsaZqe51Wr1evXr9frdfDYwhR3PyU5pUeu+HstU6WSffSbJoQYGxt79dVXh4aGNE1rNptra2vlcrnXiVvxmFARAMWhZk/Tvz9cK9s5y+EAYHvQ4O7GzA+HPIjsRxaLxaQsjqKo1WrVajUVAVAoFIqnAMaYbFBz/4rjThW0j0LP457NZmWrCc/zZM+cOxW2PSi71dZdlCzoG9PZU7Jkm32sSE4kEgMDA7FYDCEkO3G7rut5nvKyPVaUAaA4dOxoHbDnDr3HWq324YcfXrx4sVqtmqaZyWRyudzAwICcVLIvyFEsY2Nj09PTly5dqtVqc3NznU5HySaFQqF40pFD5W3brtfrmqbdZ8KJdDPJNev+DobHGI+MjKysrBQKhXK5XK1Wa7XazMyMNAAeMR9GpgD1K9k9T77Xu9P3/Uql8uGHH87MzERRJIRIpVLZbHZoaGgf22AUi8VkMpnP53Vdl/bG4uJiKpU6fvy4LIA+DMGZpw9lACgOHb1ZIUEQ7Pjliz7CMHRdd2lpaXFxsVKpyI4BMqFQZivu1/lIQSl7RGCMZTzUdV0VAVAoFIonnSAIlpeXPc8LgkAOArv7clO2s7RtW9O0sbExOU9mf+MAsgu+pmmyT2h/zv0jIrWnHHkph97saC4kR+LIRzmSbHFxcW1tTSYgmaaZz+dTqZRhGPvVMUkIIbsSaZqmaRpjTCrZIAiUl+2xogwAxSGiN4Wk2+02m81Wq7VjEBjnXMpBGRL96KOPFhYWfv7zn9dqNc/zhoaGTp8+PTExMTIysu/d3GzbTiaT0j/U7XZVawKFQqF4opEap1qt/smf/IlpmrFYTLp47vlC6aRPJBL/8B/+w1wuF4vF9tcAME1TtunEGDPG5FCwKIr25ZJl4ZzsudnpdIIg6B8EJhVcGIadTmdzc/OTTz5ZWFh4//33gyAAAOTz+VdeeeXYsWO9Kb/7cuFyOIBhGLZtyzhDt9vtdDo7FgCK/UUZAIpDR6PRWF5ejsVivu/vcABwzsMwjKLIdd1Wq3Xx4sXNzc3Nzc0wDA3DSKfTR48ezefzj6NDv6x8ksJOuk8O+j4pFAqF4pGQweTV1VVN0+TkqbsbADKFRmbAy4Xy4/BSyyT7Xod+IUQvBf8RI88ywF6tVufm5jzPa7VaURTtmAQsr6vdblcqlatXr66vrzebTUKIbduFQmFyclJ259zfGLjserRDyaow+2NFGQCKQ4Q09z///PO5uTnHcSzL2vH7lwVJ0iMShuHa2hrn3HVdOZLw5MmT/+gf/aN4PP44RoibpmnbtgwsBEGw7+JPoVAoFF8lMtsnCIKZmZn7TOORBoDMVMnlcp7nyZSVfTwrOTtM5sPIULNMi3/EFKDexbbb7Q8//PD69esyzrBbycq8IN/3fd+vVqsyIzefzx87duyll176zne+I5ti7ztyQnC9XpfnoFKAHjfKAFAcOmRyvxRA/dt72f+cc2kGSDdJIpHIZrODg4NTU1O5XE72Kt73s+Kcy8xIsD3F/aDvk0KhUCgenl7n6GKxKBfc92yT34sADA8Pp9NpGTTY9xPrKbvem+6XUpMKNAgCmfyj6zrnvBdnkPtQSmXhAaVU13XLsgzDkBm2o6Oj8XjcMIx9v2Sw7eDrZRYpJfu4UQaA4tAhs2vCMJSzx3eAMcYYE0JM0xwdHS0UCkeOHDl9+vRv/MZvxGKxu88mfMSz6qUkyVRF1ZdAoVAonlzkwnpkZORf/st/mcvlhoaG7qcIWGJZFiGkVCrpur6/S9Ve3/0oimRUHCEka2TBI+fc92oAIIRSme7eR2YfmaZpWZbsqvfqq69OTk5+97vfZYw9jgC7vC6ZdyRH+sgSCGUDPFaUAaA4RPRmgw8MDGSz2Xg8vsMZI70C0gDQdT2bzSYSicHBwaGhIQBAL0Vyf5fm8oCe53U6HRmEleViB323FAqFQvGo9Jq8WZalaVrPI37Pl8hQ8P62AAJ9BoAsMJDDbWQPukc/uOy3Mzw8PDw87DiO4zi702w0TUMIyWlfmUwmnU5PTk7m8/kgCB7TilxWJkibRyp9aX4oA+CxogwAxSFC/tqPHj36wgsvnDhxYnR0tDffVyKdFlI2GYZRKpU0TZMdGHqSYt8d8/KArVarWq3+/9u7t5+m/TcO4O22lnXt1rWMsRObDBCNDjHRRGO80Bj/Be/8E739xisvjIYQjYgJ6DxAEJCywU5du3Xd+rt4YrMfKgfZHLD364KQbDTtpp/P5/kcnseyLMr9HA6HsQIAAHCuOY7D8/zExEQikbh06RLleTvyr/ra+DuOYxgGbcG3bZsy5EiSdMqpd/f0giRJuVzu/v378Xg8mUx2HwImPM93rwBQdNS/R2ZZttVqmaZpmibt/mVZVpKkUCjU82x+0A0fLpw5giAoihKNRuPx+IHJCRroU7oA2gVE8UBfm2PbtjmOK5fLdBzK6/WqqhqPxxEAAABcMANv2DudTqlUohydlmVRHfrR0VFBEE5/e7SELooi7e1JJBI0q9X97NSr0qEIyvff789E1/W9vT1KdUoBjyzL4XCYAoCBfyMXFQIAOEO6q4JnMpmpqamzUAKQ5mA0TaNiMV6vNxaLZbNZrE4CAFwwA+902u12sVjc398vl8uU4ToYDCYSiZ7sO6WRvaIoqVSKaubQLqMBPp2vliAAAAhASURBVC/DMKVSaWNjo1KpWJYliiLHcWNjY1QYeLA3drEhAIAzh7ZU9mNv5UnRZtCdnZ1qtVoul1utFsdxfr9/fHw8mUwOPDIBAIDeGmDD7tbf/fLly/b2tq7rHMeFQiFFUeLxeE+Sb7ppjtwett9L6IejtD87Ozv5fH5/f7/dbodCoUAgoCgKtgD1Gz5cOHOoeXJ/DrBtovZxc3NzZWWlUCg0Gg1RFP1+/8TExOzs7MBnTQAA4CLxeDytVuvDhw9bW1vlclmW5dHRUUVRZmdnqRJwD/OBDvpZGeZnJ7u1tbW0tKRpmuM4sixHIpGxsTFVVbEFqK8QAMCZ1r//+Uc2f47j0IrkysrKwsJCpVLxeDzJZDKRSESjURwCBgCA4+ie1TrkDc1mc2NjY2NjY3l5uV6vsyyrqur8/PzU1JRbFfjCoAV2TdMKhcLHjx8/ffqk6zrDMMlkMpPJUBrAniQ+gj9BAABD6sj9RSzLNhqNarWaz+dfv369v7/vOM7Y2Njk5OT4+HgkEsEKAADAoFAD3pNhcQ8v9euV3b7mkOu7b9je3l5bW3v37h3lI5Ik6erVq5lMhuf5MzJnf/wHP/yRqQMtl8tra2v5fH5lZYWybMdiMarpGQqFBv0QFxwCABgijuPYtk3VRiqVChVD6X6Vyv0yDFMoFAqFwocPH1ZWVt6/f18sFgOBgKqqt27dyuVykUiE5/kLNh8DAHD2UZp80zQrlYrX67Vt+8ipHErb7/P5fjtr0263dV2v1Wrlcrm7Mu5x0B56SkX92zdQgktd1xuNhmma7g24awJUl9cwjG/fvmma9uLFC03TGIYJBAKjo6O5XO7evXupVGrQn/oJUBHPSqXi8/m6P0y3vHG73e50Oj9+/Nja2nr79u3S0tLnz5+bzWY0Go1EIrdv375x40ZPDjzA4RAAwHCxbbvZbFIA4NYzp3NR1BZTIZKvX79++fLl1atXL1++NE2zWq1OTU3FYrFr167dvHmT9iaer/kYAIALgAKAer1erVYpADjkze4hV1mW/7SfpNPpUABQqVSOWQfAvTjlpD6kSle73aYAoFKpGIZxIAKhoXCtVtvb21tYWFhfX3/+/Hm1Wm21Wj6fL51OX758eX5+nvL/nJcpp2azSYvnFAAc+Kg7nY5lWbZt5/P5N2/eLC4uLi4udjod27ZlWVZV9dq1a/Pz85hi+wcQAMCwYFnWtm1K5fns2TNZlt30xtTiU1tM5UiKxeLu7q6maYZhSJIkiuLDhw+vXLkyNzeXSqX8fj9zfppjAIALwHEcj8fTbDaXl5c1Tdve3hYE4cgJ+0AgwHHcvXv3Ll++HAgEDqz6MgxTKpX++++/YDAYDodPuumc53lFUZ4+fRoIBH77ht3d3cXFxc3NzXw+b1mWGwB0Oh1akbZte29vT9f179+/12q1er3O8/z09HQ2m33w4MHs7KwgCOclGQ4N91dXV3d2dgzDCAQC7rfjLrDbtk0RUbFY3Nzc3Nvb83g80WhUluWHDx9ev349nU5TleVBP83Fdz7+VQH0RLvdLhQKtVrNMAye57ubGLct1nW9XC7ruu5OLI2MjEiSNDc3d+fOnZmZGVmWB/0cAADDiGVZy7K+fv1Ke+WPXImluX+/359MJlOpFMdxv6aW13V9YWGBil55PJ4TrQCIophIJJ48efKnAGB/f391dXVjY2N1dbV7Opx+N02z1Wptb283Go12u00vCYIQi8Wmp6cfPXqkqqrf7z8vo2F6qPX19R8/fmiaduDbodF/o9Ggsl/NZtN9NR6Pj4+Pz83NPX78OBQKcRw36EcZCggAYMAOnJHqR+5/uiC1oY1Go9Vq2bZ9IPmx06XT6VDZxcnJyXQ6PTMzk0wmb968mUwmR0ZGqM3C9D8AwD/jJq13HKdardIWoOOMjFVVFQShVqtRyvlfr2nbtqZpHo/npBnxWZalreo08P3txS3LKpVKuq5TGonuDfHMz3UAn8+nqqqqquFw+MaNG2NjY3fv3lUUJRqN+v3+HvY1fepn2f9H6xj1ev3AFBvzcx2AYZiRkZFIJCKK4pUrV7LZ7NTUVCaTmZ6eliQJo/9/BgEADBiNuWlrfqPRcBzHsqxfW+rToIO/pmnS5lGGYQzDOPxPWJYNBoOxWCyXy+Vyuenp6fHx8Z4UYgQAgGNyB46WZdE52k6nU6/Xj3+FarUqimKlUmm1Wu5Ivd1u09Fbek+pVPq72ysWi16v1528Z7rO9VqWRbdtWdaR1xFFMR6PU9LPeDx+584dn8/Xq9VmuiXae0OHHHrYybpn5+hktuM49O3UarXD/1AQBFEUM5nM7du3Z2ZmJicnqcxOTx4ZjgMBAAyYx+Pxer2yLKfTacMwqM5uMBjsyTQATXKEw+F4PJ7NZnd3d4+c9qBJoHA4HA6HFUWhpBC0boC5fwCAf4lm/X0+XzQaTafTjuMYhnGiLD2KogiCoKoqbftkWZbneVEUJyYm6vW6GxX83b1JkjQxMdG9R9/j8QiCkE6n3S7jyItwHCcIQiKRiEQidCnTNEdGRmgD/el7HDqmrKpqNpuVJInyWZ/+aAHdmNfr5ThudHQ0lUq1Wq1isXjkNiqv1+v1eiORSCQSCQaDtAhjmibP85SZA53sv8EikwkAAAAAwPDACgCcCbQRiH7veU2WI6sw/ol7D5iQAAAYoO4+4i8cmEo/5dUOOHAU4a8v3r8e50An2I9O9jSPjB52ILACAAAAAAAwRM5HbikAAAAAAOgJBAAAAAAAAEMEAQAAAAAAwBBBAAAAAAAAMEQQAAAAAAAADBEEAAAAAAAAQwQBAAAAAADAEPkfLOegvdRo5JQAAAAldEVYdGRhdGU6Y3JlYXRlADIwMTYtMDEtMjJUMDM6NDI6NTcrMDE6MDCw66hNAAAAJXRFWHRkYXRlOm1vZGlmeQAyMDE2LTAxLTIyVDAzOjQyOjU3KzAxOjAwwbYQ8QAAABZ0RVh0dGlmZjphbHBoYQB1bnNwZWNpZmllZLN+fk4AAAAPdEVYdHRpZmY6ZW5kaWFuAGxzYlW3F0MAAAAUdEVYdHRpZmY6cGhvdG9tZXRyaWMAUkdCsyBJ3wAAABV0RVh0dGlmZjpyb3dzLXBlci1zdHJpcAAy5DuEBwAAAABJRU5ErkJggg==;clipPath=inset(1.11% 0.33% 0% 58%);" parent="1" vertex="1">
          <mxGeometry x="-744" y="70" width="154.49" height="110" as="geometry" />
        </mxCell>
        <mxCell id="2hYeIwUKahBhDZ7bIVge-8" style="edgeStyle=orthogonalEdgeStyle;rounded=0;orthogonalLoop=1;jettySize=auto;html=1;" parent="1" source="RAkV_QfOQvglam8f1-1x-2" target="2hYeIwUKahBhDZ7bIVge-7" edge="1">
          <mxGeometry relative="1" as="geometry" />
        </mxCell>
        <mxCell id="RAkV_QfOQvglam8f1-1x-2" value="&lt;font style=&quot;font-size: 18px;&quot;&gt;Low Pass Filter IIR&lt;/font&gt;" style="rounded=0;whiteSpace=wrap;html=1;" parent="1" vertex="1">
          <mxGeometry x="-465" y="95" width="121" height="60" as="geometry" />
        </mxCell>
        <mxCell id="RAkV_QfOQvglam8f1-1x-4" value="&lt;font style=&quot;font-size: 18px;&quot;&gt;PPG signal&lt;/font&gt;" style="text;html=1;align=center;verticalAlign=middle;resizable=0;points=[];autosize=1;strokeColor=none;fillColor=none;" parent="1" vertex="1">
          <mxGeometry x="-584" y="92" width="110" height="40" as="geometry" />
        </mxCell>
        <mxCell id="RAkV_QfOQvglam8f1-1x-5" value="&lt;font style=&quot;font-size: 18px;&quot;&gt;Trained Model&lt;/font&gt;" style="rounded=0;whiteSpace=wrap;html=1;" parent="1" vertex="1">
          <mxGeometry x="-464.5" y="325" width="120" height="60" as="geometry" />
        </mxCell>
        <mxCell id="RAkV_QfOQvglam8f1-1x-7" value="&lt;font style=&quot;font-size: 18px;&quot;&gt;Filtered PPG&lt;/font&gt;" style="text;html=1;align=center;verticalAlign=middle;resizable=0;points=[];autosize=1;strokeColor=none;fillColor=none;" parent="1" vertex="1">
          <mxGeometry x="-404" y="170" width="130" height="40" as="geometry" />
        </mxCell>
        <mxCell id="2hYeIwUKahBhDZ7bIVge-5" value="&lt;font&gt;TESTING&lt;/font&gt;" style="text;html=1;align=center;verticalAlign=middle;whiteSpace=wrap;rounded=0;labelBackgroundColor=none;fontColor=#007FFF;fontStyle=1;fontSize=26;" parent="1" vertex="1">
          <mxGeometry x="-274" y="70" width="120" height="115" as="geometry" />
        </mxCell>
        <mxCell id="2hYeIwUKahBhDZ7bIVge-9" style="edgeStyle=orthogonalEdgeStyle;rounded=0;orthogonalLoop=1;jettySize=auto;html=1;" parent="1" source="2hYeIwUKahBhDZ7bIVge-7" target="RAkV_QfOQvglam8f1-1x-5" edge="1">
          <mxGeometry relative="1" as="geometry" />
        </mxCell>
        <mxCell id="2hYeIwUKahBhDZ7bIVge-7" value="Caculate Features" style="rounded=0;whiteSpace=wrap;html=1;fontSize=18;" parent="1" vertex="1">
          <mxGeometry x="-465" y="221" width="120" height="60" as="geometry" />
        </mxCell>
        <mxCell id="2hYeIwUKahBhDZ7bIVge-1" value="Server" style="rounded=0;whiteSpace=wrap;html=1;fontSize=18;container=1;" parent="1" vertex="1">
          <mxGeometry x="-464" y="450" width="120" height="60" as="geometry" />
        </mxCell>
        <mxCell id="2hYeIwUKahBhDZ7bIVge-2" style="edgeStyle=orthogonalEdgeStyle;rounded=0;orthogonalLoop=1;jettySize=auto;html=1;entryX=0.5;entryY=0;entryDx=0;entryDy=0;exitX=0.5;exitY=1;exitDx=0;exitDy=0;" parent="1" source="RAkV_QfOQvglam8f1-1x-5" edge="1" target="2hYeIwUKahBhDZ7bIVge-1">
          <mxGeometry relative="1" as="geometry">
            <mxPoint x="-404" y="440" as="targetPoint" />
            <mxPoint x="-404" y="390" as="sourcePoint" />
          </mxGeometry>
        </mxCell>
        <mxCell id="EgM-Vw-8gBvtR2IOrEyR-1" value="&lt;font style=&quot;font-size: 20px;&quot;&gt;Prediction result&lt;/font&gt;" style="text;html=1;align=center;verticalAlign=middle;whiteSpace=wrap;rounded=0;" vertex="1" parent="1">
          <mxGeometry x="-382" y="401" width="70" height="30" as="geometry" />
        </mxCell>
      </root>
    </mxGraphModel>
  </diagram>
</mxfile>
